<svg width="710" height="398" viewBox="0 0 710 398" fill="none" xmlns="http://www.w3.org/2000/svg">
<path d="M709.326 195.933C709.326 140.987 670.753 95.0667 619.207 83.7333C592.207 34.3867 539.807 0.919922 479.58 0.919922C423.887 0.919922 374.887 29.5466 346.46 72.8799C331.26 37.3333 295.98 12.4133 254.873 12.4133C199.887 12.4133 155.313 56.9999 155.313 111.987C155.313 115.413 155.487 118.8 155.82 122.133C144.78 118.813 133.087 117.027 120.967 117.027C54.3 117.027 0.246582 171.067 0.246582 237.747C0.246582 304.413 54.3 358.467 120.967 358.467C148.46 358.467 173.807 349.267 194.1 333.787C216.607 371.667 257.913 397.053 305.167 397.053C341.94 397.053 375.113 381.68 398.62 357.027C423.5 380.493 457.033 394.88 493.927 394.88C552.553 394.88 602.687 358.56 623.087 307.213C672.673 294.48 709.326 249.493 709.326 195.933Z" fill="white"/>
</svg>
