<svg width="706" height="397" viewBox="0 0 706 397" fill="none" xmlns="http://www.w3.org/2000/svg">
<path d="M590.287 129.24C586.113 129.24 581.993 129.467 577.94 129.907C576.527 71.16 528.473 23.9866 469.393 23.9866C437.54 23.9866 408.887 37.7068 389.02 59.5468C360.54 23.5868 316.5 0.506653 267.06 0.506653C196.407 0.506653 136.767 47.64 117.847 112.173C115.327 112 112.78 111.907 110.207 111.907C49.3534 111.907 0.0200195 161.24 0.0200195 222.093C0.0200195 282.947 49.3534 332.28 110.207 332.28C119.967 332.28 129.42 331 138.433 328.627C151.887 368.333 189.433 396.92 233.687 396.92C272.22 396.92 305.66 375.253 322.567 343.453C342.873 375.573 378.7 396.907 419.513 396.907C463.273 396.907 501.3 372.373 520.62 336.307C539.967 351.027 564.1 359.76 590.287 359.76C653.94 359.76 705.553 308.16 705.553 244.507C705.553 180.84 653.94 129.24 590.287 129.24Z" fill="white"/>
</svg>
