<svg width="714" height="397" viewBox="0 0 714 397" fill="none" xmlns="http://www.w3.org/2000/svg">
<path d="M623.021 128.917C608.34 128.917 594.484 132.419 582.209 138.597C582.517 135.412 582.685 132.184 582.685 128.917C582.685 73.928 538.107 29.3506 483.117 29.3506C452.657 29.3506 425.409 43.0426 407.147 64.5906C378.128 25.8946 331.888 0.857269 279.799 0.857269C205.455 0.857269 143.027 51.8599 125.583 120.781C116.957 118.312 107.859 116.961 98.4387 116.961C44.072 116.961 0 161.033 0 215.4C0 269.767 44.072 313.84 98.4387 313.84C112.905 313.84 126.629 310.695 139.001 305.089C158.289 358.676 209.565 396.995 269.796 396.995C319.972 396.995 363.932 370.401 388.364 330.543C409.531 354.603 440.544 369.791 475.108 369.791C522.485 369.791 563.192 341.261 581.007 300.449C593.576 307.013 607.859 310.747 623.021 310.747C673.231 310.747 713.936 270.043 713.936 219.832C713.936 169.621 673.231 128.917 623.021 128.917Z" fill="white"/>
</svg>
