<svg width="710" height="398" viewBox="0 0 710 398" fill="none" xmlns="http://www.w3.org/2000/svg">
<path d="M550.247 32.5838C520.727 32.5838 493.073 40.6398 469.38 54.6571C446.98 21.7865 409.247 0.198486 366.473 0.198486C317.727 0.198486 275.527 28.2278 255.113 69.0438C241.06 52.7891 220.3 42.4905 197.127 42.4905C154.793 42.4905 120.473 76.8105 120.473 119.145C120.473 122.12 120.66 125.049 120.993 127.936C113.82 126.275 106.353 125.366 98.6867 125.366C44.3134 125.366 0.246582 169.44 0.246582 223.807C0.246582 278.173 44.3134 322.247 98.6867 322.247C114.407 322.247 129.247 318.544 142.42 311.994C158.9 335.156 185.94 350.28 216.54 350.28C233.287 350.28 248.967 345.728 262.447 337.823C286.927 373.787 328.193 397.409 374.98 397.409C421.74 397.409 462.993 373.805 487.473 337.864C506.74 346.145 527.953 350.74 550.247 350.74C638.1 350.74 709.326 279.518 709.326 191.661C709.326 103.806 638.1 32.5838 550.247 32.5838Z" fill="white"/>
</svg>
