<svg width="711" height="396" viewBox="0 0 711 396" fill="none" xmlns="http://www.w3.org/2000/svg">
<path d="M597.313 395.951C660.1 395.951 710.993 345.723 710.993 282.943C710.993 222.637 664.033 173.309 604.687 169.512C603.113 110.205 554.553 62.608 494.873 62.608C471.58 62.608 449.993 69.86 432.22 82.22C432.233 81.6813 432.26 81.148 432.26 80.6067C432.26 36.256 396.3 0.302673 351.953 0.302673C307.607 0.302673 271.646 36.256 271.646 80.6067C271.646 82.184 271.713 83.7467 271.793 85.3014C262.42 81.236 252.073 78.9708 241.207 78.9708C198.66 78.9708 164.167 113.459 164.167 156C164.167 165.34 165.833 174.289 168.887 182.572C152.673 173.671 134.06 168.604 114.26 168.604C51.4731 168.604 0.579834 219.497 0.579834 282.277C0.579834 345.057 51.4731 395.951 114.26 395.951H597.313Z" fill="white"/>
</svg>
