<svg width="708" height="398" viewBox="0 0 708 398" fill="none" xmlns="http://www.w3.org/2000/svg">
<path d="M628.611 139.573C616.915 139.573 605.825 142.133 595.847 146.72C584.697 110.253 550.788 83.7333 510.676 83.7333C493.86 83.7333 478.136 88.4001 464.719 96.4934C457.4 42.5201 411.139 0.906738 355.151 0.906738C303.541 0.906738 260.192 36.2533 247.995 84.0666C238.095 80.7066 227.493 78.8401 216.452 78.8401C174.395 78.8401 138.543 105.374 124.692 142.613C111.775 133.107 95.8307 127.493 78.5707 127.493C35.5134 127.493 0.609375 162.4 0.609375 205.453C0.609375 248.507 35.5134 283.413 78.5707 283.413C81.4067 283.413 84.204 283.253 86.9614 282.96C92.9067 308.347 115.672 327.253 142.869 327.253C146.957 327.253 150.943 326.813 154.788 326C171.419 358.707 205.364 381.133 244.567 381.133C264.795 381.133 283.615 375.147 299.393 364.88C324.463 385 356.291 397.04 390.939 397.04C445.419 397.04 492.944 367.28 518.145 323.12C520.828 323.413 523.549 323.587 526.309 323.587C553.503 323.587 577.225 308.787 589.916 286.827C601.345 293.293 614.541 297 628.611 297C672.084 297 707.325 261.76 707.325 218.28C707.325 174.813 672.084 139.573 628.611 139.573Z" fill="white"/>
</svg>
