<svg width="710" height="398" viewBox="0 0 710 398" fill="none" xmlns="http://www.w3.org/2000/svg">
<path d="M615.715 209.156C612.943 209.156 610.205 209.301 607.495 209.535C607.5 209.044 607.513 208.555 607.513 208.063C607.513 145.615 556.889 94.9905 494.441 94.9905C461.177 94.9905 431.271 109.356 410.58 132.221C396.005 117.912 376.037 109.076 353.997 109.076C346.756 109.076 339.743 110.043 333.064 111.831C325.083 49.0465 271.469 0.509216 206.517 0.509216C136.061 0.509216 78.9467 57.6239 78.9467 128.08C78.9467 159.419 90.2534 188.113 109.003 210.321C104.185 209.561 99.2507 209.156 94.2214 209.156C42.236 209.156 0.0947266 251.299 0.0947266 303.283C0.0947266 355.268 42.236 397.409 94.2214 397.409H615.715C667.699 397.409 709.84 355.268 709.84 303.283C709.84 251.299 667.699 209.156 615.715 209.156Z" fill="white"/>
</svg>
