<svg width="710" height="395" viewBox="0 0 710 395" fill="none" xmlns="http://www.w3.org/2000/svg">
<path d="M709.326 203.8C709.326 144.88 661.567 97.12 602.647 97.12C589.967 97.12 577.807 99.3333 566.526 103.4C547.553 68.9066 510.873 45.5333 468.727 45.5333C453.047 45.5333 438.126 48.7735 424.593 54.6135C399.793 21.5602 360.273 0.173401 315.767 0.173401C265.98 0.173401 222.447 26.9333 198.753 66.8534C190.94 63.6934 182.393 61.9333 173.433 61.9333C136.873 61.9333 107.127 91.0002 105.993 127.28C103.1 127.027 100.167 126.867 97.2067 126.867C43.6601 126.867 0.246582 170.28 0.246582 223.827C0.246582 277.373 43.6601 320.773 97.2067 320.773C114.3 320.773 130.353 316.333 144.287 308.573C158.86 358.373 204.873 394.747 259.38 394.747C291.273 394.747 320.26 382.28 341.74 361.96C359.767 372.707 380.833 378.893 403.353 378.893C440.193 378.893 473.18 362.347 495.273 336.28C507.78 350.72 526.22 359.867 546.82 359.867C578.113 359.867 604.46 338.773 612.473 310.027C666.78 305.067 709.326 259.413 709.326 203.8Z" fill="white"/>
</svg>
