<svg width="710" height="395" viewBox="0 0 710 395" fill="none" xmlns="http://www.w3.org/2000/svg">
<path d="M664.286 270.573C666.62 260.293 667.86 249.6 667.86 238.627C667.86 167.747 616.5 108.867 548.966 97.1601C543.46 43.0268 497.726 0.773407 442.126 0.773407C387.193 0.773407 341.886 42.04 335.513 95.2533C330.3 94.2667 324.927 93.72 319.42 93.72C274.34 93.72 237.433 128.653 234.246 172.933C223.966 167.533 212.273 164.467 199.86 164.467C178.9 164.467 159.993 173.173 146.513 187.16C134.486 182.493 121.407 179.933 107.74 179.933C48.4466 179.933 0.379761 228 0.379761 287.293C0.379761 346.587 48.4466 394.653 107.74 394.653H646.086C681.086 394.653 709.46 366.28 709.46 331.28C709.46 302.613 690.406 278.4 664.286 270.573Z" fill="white"/>
</svg>
