<svg width="718" height="402" viewBox="0 0 718 402" fill="none" xmlns="http://www.w3.org/2000/svg">
<path d="M602.207 109.123C600.513 109.123 598.833 109.168 597.153 109.24C583.447 46.9265 527.913 0.295868 461.487 0.295868C413.42 0.295868 371.06 24.7025 346.113 61.7972C326.793 50.2692 304.207 43.6399 280.073 43.6399C218.273 43.6399 166.62 87.0705 153.952 145.075C138.087 133.744 118.677 127.056 97.6947 127.056C44.1547 127.056 0.751953 170.459 0.751953 223.999C0.751953 277.54 44.1547 320.943 97.6947 320.943C118.864 320.943 138.433 314.137 154.377 302.623C167.46 359.22 218.18 401.409 278.753 401.409C321.713 401.409 359.713 380.193 382.847 347.669C406.513 369.477 438.113 382.801 472.82 382.801C513.607 382.801 550.087 364.417 574.447 335.491C583.34 337.697 592.633 338.876 602.207 338.876C665.647 338.876 717.073 287.443 717.073 223.999C717.073 160.555 665.647 109.123 602.207 109.123Z" fill="white"/>
</svg>
