<svg width="700" height="395" viewBox="0 0 700 395" fill="none" xmlns="http://www.w3.org/2000/svg">
<path d="M548.505 394.387C631.885 394.387 699.479 326.8 699.479 243.414C699.479 160.04 631.885 92.4534 548.505 92.4534C522.836 92.4534 498.668 98.8669 477.503 110.16C477.519 109.414 477.532 108.654 477.532 107.893C477.532 48.5869 429.452 0.506805 370.143 0.506805C310.833 0.506805 262.753 48.5869 262.753 107.893C262.753 108.56 262.767 109.2 262.777 109.853C255.065 108.573 247.149 107.893 239.073 107.893C169.063 107.893 110.765 158.013 98.0706 224.32C94.1026 223.76 90.0519 223.453 85.9279 223.453C38.7239 223.453 0.457275 261.72 0.457275 308.92C0.457275 356.12 38.7239 394.387 85.9279 394.387H548.505Z" fill="white"/>
</svg>
