<svg width="710" height="397" viewBox="0 0 710 397" fill="none" xmlns="http://www.w3.org/2000/svg">
<path d="M647.237 173.253C647.48 169.627 647.616 165.973 647.616 162.28C647.616 72.9601 575.207 0.560059 485.885 0.560059C434.043 0.560059 387.901 24.9467 358.304 62.8934C347.377 60.1334 335.939 58.6533 324.155 58.6533C255.816 58.6533 198.988 107.92 187.24 172.88C182.075 171.92 176.756 171.4 171.313 171.4C129.359 171.4 94.3547 201.16 86.2601 240.72C83.6374 240.453 80.9761 240.32 78.2827 240.32C35.1001 240.32 0.0947266 275.32 0.0947266 318.507C0.0947266 361.693 35.1001 396.693 78.2827 396.693H591.073C656.667 396.693 709.84 343.52 709.84 277.92C709.84 232.653 684.504 193.293 647.237 173.253Z" fill="white"/>
</svg>
