<svg width="710" height="399" viewBox="0 0 710 399" fill="none" xmlns="http://www.w3.org/2000/svg">
<path d="M640.473 224.547C641.527 218.493 642.073 212.267 642.073 205.92C642.073 145.733 593.287 96.9467 533.1 96.9467C519.7 96.9467 506.86 99.3731 494.993 103.8C472.273 43.4532 414.007 0.519867 345.713 0.519867C260.207 0.519867 190.42 67.8267 186.433 152.347C171.487 142.533 153.627 136.813 134.417 136.813C81.9827 136.813 39.4761 179.32 39.4761 231.76C39.4761 239.067 40.328 246.16 41.8907 253C17.1853 265.813 0.3 291.613 0.324 321.373C0.357333 364.04 35.7907 398.253 78.452 398.253H620.287C669.98 398.253 710.82 357.613 709.473 307.947C708.353 266.973 679.18 233.013 640.473 224.547Z" fill="white"/>
</svg>
