<svg width="707" height="398" viewBox="0 0 707 398" fill="none" xmlns="http://www.w3.org/2000/svg">
<path d="M592.686 397.667C656.78 397.667 706.686 345.707 706.686 281.613C706.686 217.507 654.713 165.547 590.62 165.547C579.58 165.547 568.886 167.093 558.766 169.973C559.433 164.227 559.78 158.387 559.78 152.467C559.78 68.7999 491.966 0.986664 408.313 0.986664C340.033 0.986664 282.3 46.1868 263.393 108.293C251.193 102.907 237.713 99.9067 223.513 99.9067C180.26 99.9067 143.513 127.64 130.02 166.28C125.726 165.8 121.366 165.547 116.953 165.547C52.8598 165.547 0.886475 217.507 0.886475 281.613C0.886475 345.707 52.8598 397.667 116.953 397.667H592.686Z" fill="white"/>
</svg>
