<svg width="684" height="410" viewBox="0 0 684 410" fill="none" xmlns="http://www.w3.org/2000/svg">
<path d="M115.864 384.533C147.577 384.533 176.3 371.72 197.14 351C216.833 385.693 254.113 409.094 296.873 409.094C336.927 409.094 372.18 388.547 392.673 357.414C405.873 363.8 420.7 367.373 436.353 367.373C472.487 367.373 504.153 348.307 521.887 319.707C537.18 327.733 554.58 332.28 573.033 332.28C633.887 332.28 683.22 282.947 683.22 222.094C683.22 161.24 633.887 111.907 573.033 111.907C557.807 111.907 543.313 115 530.113 120.587C512.953 83.2001 475.207 57.2401 431.38 57.2401C416.527 57.2401 402.367 60.2268 389.46 65.6401C361.26 26.2135 315.1 0.506805 262.927 0.506805C177.607 0.506805 108.361 69.2267 107.467 154.32C47.7319 158.627 0.606567 208.44 0.606567 269.28C0.606567 332.934 52.2093 384.533 115.864 384.533Z" fill="white"/>
</svg>
