<svg width="688" height="391" viewBox="0 0 688 391" fill="none" xmlns="http://www.w3.org/2000/svg">
<path d="M650.1 265.546C663.06 246.333 670.62 223.173 670.62 198.24C670.62 131.64 616.633 77.6531 550.033 77.6531C509.513 77.6531 473.673 97.6265 451.807 128.267C452.393 123.573 452.7 118.787 452.7 113.933C452.7 51.3865 402.007 0.693237 339.46 0.693237C283.567 0.693237 237.127 41.1998 227.9 94.4531C218.407 90.9731 208.14 89.0798 197.433 89.0798C148.545 89.0798 108.909 128.72 108.909 177.613C108.909 193.173 112.936 207.787 119.985 220.493C110.197 216.72 99.576 214.64 88.4614 214.64C39.9307 214.64 0.589355 253.987 0.589355 302.507C0.589355 351.04 39.9307 390.386 88.4614 390.386H621.567C657.833 390.386 687.233 360.986 687.233 324.72C687.233 298.666 672.073 276.173 650.1 265.546Z" fill="white"/>
</svg>
