<svg width="712" height="397" viewBox="0 0 712 397" fill="none" xmlns="http://www.w3.org/2000/svg">
<path d="M597.447 168.965C579.38 168.965 562.3 173.188 547.127 180.689C547.393 178.104 547.526 175.481 547.526 172.827C547.526 130.285 513.047 95.7973 470.5 95.7973C458.42 95.7973 446.993 98.5854 436.807 103.544C438.9 96.3801 440.047 88.8094 440.047 80.968C440.047 36.6174 404.1 0.664001 359.753 0.664001C315.393 0.664001 279.447 36.6174 279.447 80.968C279.447 81.5093 279.473 82.0426 279.487 82.5813C261.713 70.2213 240.127 62.9693 216.833 62.9693C156.167 62.9693 106.98 112.155 106.98 172.827C106.98 194.772 113.42 215.212 124.5 232.367C113.153 226.875 100.42 223.792 86.9666 223.792C39.3266 223.792 0.713257 262.412 0.713257 310.052C0.713257 357.692 39.3266 396.312 86.9666 396.312H597.447C660.233 396.312 711.127 345.419 711.127 282.639C711.127 219.859 660.233 168.965 597.447 168.965Z" fill="white"/>
</svg>
