<svg width="694" height="380" viewBox="0 0 694 380" fill="none" xmlns="http://www.w3.org/2000/svg">
<path d="M693.7 173.96C693.7 109.893 641.767 57.9464 577.7 57.9464C562.913 57.9464 548.78 60.7198 535.767 65.7598C502.66 26.1331 452.873 0.906433 397.18 0.906433C333.46 0.906433 277.446 33.933 245.326 83.7864C227.646 67.733 204.18 57.9464 178.42 57.9464C132.167 57.9464 93.2999 89.4797 82.0999 132.213C78.6599 131.693 75.1399 131.426 71.5666 131.426C32.1132 131.426 0.126587 163.413 0.126587 202.866C0.126587 242.32 32.1132 274.306 71.5666 274.306C84.5666 274.306 96.7531 270.813 107.26 264.733C107.18 266.506 107.126 268.293 107.126 270.093C107.126 330.586 156.166 379.626 216.66 379.626C252.366 379.626 284.073 362.533 304.073 336.106C331.26 352.506 363.113 361.946 397.18 361.946C436.926 361.946 473.66 349.093 503.473 327.32C516.58 350.666 541.54 366.453 570.22 366.453C612.46 366.453 646.713 332.213 646.713 289.973C646.713 282.786 645.7 275.853 643.846 269.266C673.98 248.306 693.7 213.44 693.7 173.96Z" fill="white"/>
</svg>
