<svg width="712" height="397" viewBox="0 0 712 397" fill="none" xmlns="http://www.w3.org/2000/svg">
<path d="M78.2427 270.853C86.7921 270.853 95.0107 269.453 102.708 266.907C102.633 268.213 102.585 269.52 102.585 270.853C102.585 308.413 133.036 338.853 170.596 338.853C185.569 338.853 199.404 334.013 210.639 325.813C234.227 367.893 279.252 396.347 330.928 396.347C377.803 396.347 419.204 372.933 444.1 337.173C460.436 356.573 484.893 368.92 512.243 368.92C561.428 368.92 601.303 329.04 601.303 279.853C601.303 279.8 601.297 279.747 601.297 279.693C603.176 279.8 605.067 279.853 606.969 279.853C664.784 279.853 711.652 232.987 711.652 175.173C711.652 117.36 664.784 70.4934 606.969 70.4934C581.972 70.4934 559.029 79.2668 541.028 93.8934C516.169 38.6668 460.657 0.213379 396.163 0.213379C338.316 0.213379 287.7 31.1467 259.943 77.3734C242.681 62.4534 220.201 53.4134 195.595 53.4134C152.781 53.4134 116.364 80.7334 102.795 118.893C95.072 116.333 86.8241 114.933 78.2427 114.933C35.1867 114.933 0.282715 149.827 0.282715 192.893C0.282715 235.947 35.1867 270.853 78.2427 270.853Z" fill="white"/>
</svg>
