<svg width="710" height="398" viewBox="0 0 710 398" fill="none" xmlns="http://www.w3.org/2000/svg">
<path d="M93.5665 325.345C116.1 325.345 136.78 317.633 152.913 304.793C168.58 358.125 217.873 397.068 276.273 397.068C322.873 397.068 363.686 372.273 386.233 335.157C406.753 371.745 445.913 396.475 490.86 396.475C546.006 396.475 592.46 359.228 606.446 308.516C614.446 311.293 623.02 312.821 631.966 312.821C674.926 312.821 709.753 277.993 709.753 235.032C709.753 192.069 674.926 157.243 631.966 157.243C629.913 157.243 627.887 157.345 625.873 157.501C617.287 129.049 592.233 107.735 561.793 104.648C540.366 43.9986 482.54 0.539886 414.553 0.539886C376.433 0.539886 341.513 14.2039 314.407 36.8919C297.82 24.5453 277.26 17.2346 254.98 17.2346C208.913 17.2346 170.166 48.5132 158.766 90.9879C132.086 97.1705 111.193 118.407 105.513 145.276C101.606 144.792 97.6198 144.516 93.5665 144.516C41.9398 144.516 0.0731201 184.996 0.0731201 234.931C0.0731201 284.865 41.9398 325.345 93.5665 325.345Z" fill="white"/>
</svg>
