<svg width="200" height="200" viewBox="0 0 200 200" fill="none" xmlns="http://www.w3.org/2000/svg">
<path fill-rule="evenodd" clip-rule="evenodd" d="M100 0C155 0 200 45 200 99.9993C200 155 155 200 100 200C45 200 0 155 0 99.9993C0 45 45 0 100 0ZM25 136.904C25 110.714 29.7619 82.1421 41.6667 60.7133C41.6667 60.7133 55.9524 52.3799 75 51.1895L79.7619 60.7133C91.6667 59.5229 105.952 59.5229 117.857 60.7133L122.619 51.1895C141.667 52.3799 155.952 60.7133 155.952 60.7133C165.476 82.1421 172.619 110.714 172.619 136.904C172.619 136.904 151.19 148.809 129.762 153.571C126.19 147.619 125 141.666 125 141.666L139.286 136.904L136.905 134.523C120.238 144.047 77.381 144.047 60.7143 134.523L58.3333 136.904L72.619 141.666C72.619 141.666 70.7143 148.809 67.8571 153.571C46.4286 148.809 25 136.904 25 136.904Z" fill="#5865F2"/>
<path d="M75 91.6659C80.9524 91.6659 88.0952 96.4279 88.0952 105.952C88.0952 115.476 80.9524 120.238 75 120.238C69.0476 120.238 61.9048 115.476 61.9048 105.952C61.9048 96.4279 69.0476 91.6659 75 91.6659Z" fill="#5865F2"/>
<path d="M122.619 91.6659C128.571 91.6659 135.714 96.4279 135.714 105.952C135.714 115.476 128.571 120.238 122.619 120.238C116.667 120.238 109.524 115.476 109.524 105.952C109.524 96.4279 116.667 91.6659 122.619 91.6659Z" fill="#5865F2"/>
<path fill-rule="evenodd" clip-rule="evenodd" d="M41.6667 60.7133C29.7619 82.1421 25 110.714 25 136.904C25 136.904 46.4286 148.809 67.8571 153.571C70.7143 148.809 72.619 141.666 72.619 141.666L58.3333 136.904L60.7143 134.523C77.381 144.047 120.238 144.047 136.905 134.523L139.286 136.904L125 141.666C125 141.666 126.19 147.619 129.762 153.571C151.19 148.809 172.619 136.904 172.619 136.904C172.619 110.714 165.476 82.1421 155.952 60.7133C155.952 60.7133 141.667 52.3799 122.619 51.1895L117.857 60.7133C105.952 59.5229 91.6667 59.5229 79.7619 60.7133L75 51.1895C55.9524 52.3799 41.6667 60.7133 41.6667 60.7133ZM135.714 105.952C135.714 96.4279 128.571 91.6659 122.619 91.6659C116.667 91.6659 109.524 96.4279 109.524 105.952C109.524 115.476 116.667 120.238 122.619 120.238C128.571 120.238 135.714 115.476 135.714 105.952ZM88.0952 105.952C88.0952 96.4279 80.9524 91.6659 75 91.6659C69.0476 91.6659 61.9048 96.4279 61.9048 105.952C61.9048 115.476 69.0476 120.238 75 120.238C80.9524 120.238 88.0952 115.476 88.0952 105.952Z" fill="#F5F1CE"/>
</svg>
