<svg width="199" height="140" viewBox="0 0 199 140" fill="none" xmlns="http://www.w3.org/2000/svg">
<path d="M149.25 70.6605V140H183.289C193.763 140 199 134.717 199 124.151V40.9435L149.25 70.6605Z" fill="#67AD5B"/>
<path d="M199 18.4906C199 7.92454 191.145 0 180.671 0C175.434 0 168.888 2.64151 162.342 6.60378L149.25 14.8478V70.6605L199 40.9435V18.4906Z" fill="#F2C24F"/>
<path d="M99.5 100.377L149.25 70.6605V14.8478L99.5 46.2265L49.75 14.8478V70.6605L99.5 100.377Z" fill="#D3483E"/>
<path d="M18.3289 0C7.85526 0 0 7.92454 0 18.4906L6.57165e-06 40.9435L49.75 70.6605V14.8478L36.6579 6.60378C30.1118 2.64151 23.5658 0 18.3289 0Z" fill="#B63831"/>
<path d="M6.57165e-06 124.151C-6.02621e-07 134.717 5.23684 140 15.7105 140H49.75L49.75 70.6605L6.57165e-06 40.9435V124.151Z" fill="#4286DE"/>
<path d="M162.342 6.60378C168.888 2.64151 175.434 0 180.671 0H99.5H18.3289C23.5658 0 30.1118 2.64151 36.6579 6.60378L49.75 14.8478L99.5 46.2265L149.25 14.8478L162.342 6.60378Z" fill="#F5F1CE"/>
<path d="M49.75 70.6605L49.75 140H149.25V70.6605L99.5 100.377L49.75 70.6605Z" fill="#F5F1CE"/>
</svg>
