<svg width="200" height="200" viewBox="0 0 200 200" fill="none" xmlns="http://www.w3.org/2000/svg">
<path fill-rule="evenodd" clip-rule="evenodd" d="M164.153 57.1051C164.153 40.4494 159.392 35.6907 142.725 35.6907H57.0106C40.3439 35.6907 35.582 40.4494 35.582 57.1051V142.763C35.582 159.418 40.3439 164.177 57.0106 164.177H142.725C159.392 164.177 164.153 159.418 164.153 142.763V57.1051ZM152.249 57.1051C152.249 51.1566 148.677 47.5876 142.725 47.5876C136.773 47.5876 133.201 51.1566 133.201 57.1051C133.201 63.0535 136.773 66.6226 142.725 66.6226C148.677 66.6226 152.249 63.0535 152.249 57.1051ZM145.106 99.9339C145.106 126.107 126.058 145.142 99.8678 145.142C73.6773 145.142 54.6297 126.107 54.6297 99.9339C54.6297 73.7607 73.6773 54.7257 99.8678 54.7257C126.058 54.7257 145.106 73.7607 145.106 99.9339Z" fill="url(#paint0_radial_74_23)"/>
<path fill-rule="evenodd" clip-rule="evenodd" d="M164.153 57.1051C164.153 40.4494 159.392 35.6907 142.725 35.6907H57.0106C40.3439 35.6907 35.582 40.4494 35.582 57.1051V142.763C35.582 159.418 40.3439 164.177 57.0106 164.177H142.725C159.392 164.177 164.153 159.418 164.153 142.763V57.1051ZM152.249 57.1051C152.249 51.1566 148.677 47.5876 142.725 47.5876C136.773 47.5876 133.201 51.1566 133.201 57.1051C133.201 63.0535 136.773 66.6226 142.725 66.6226C148.677 66.6226 152.249 63.0535 152.249 57.1051ZM145.106 99.9339C145.106 126.107 126.058 145.142 99.8678 145.142C73.6773 145.142 54.6297 126.107 54.6297 99.9339C54.6297 73.7607 73.6773 54.7257 99.8678 54.7257C126.058 54.7257 145.106 73.7607 145.106 99.9339Z" fill="url(#paint1_radial_74_23)"/>
<path fill-rule="evenodd" clip-rule="evenodd" d="M0 178.453C-8.53931e-06 190.35 9.3915 200 21.2963 200H178.439C190.344 200 200 190.35 200 178.453V21.4144C200 9.51751 190.344 0 178.439 0H21.2963C9.3915 0 0 9.51751 0 21.4144L0 178.453ZM26.0582 47.5876C26.0582 35.6907 35.582 26.1732 47.4868 26.1732H152.249C164.153 26.1732 173.677 35.6907 173.677 47.5876V152.28C173.677 164.177 164.153 173.695 152.249 173.695H47.4868C35.582 173.695 26.0582 164.177 26.0582 152.28V47.5876Z" fill="url(#paint2_radial_74_23)"/>
<path fill-rule="evenodd" clip-rule="evenodd" d="M0 178.453C-8.53931e-06 190.35 9.3915 200 21.2963 200H178.439C190.344 200 200 190.35 200 178.453V21.4144C200 9.51751 190.344 0 178.439 0H21.2963C9.3915 0 0 9.51751 0 21.4144L0 178.453ZM26.0582 47.5876C26.0582 35.6907 35.582 26.1732 47.4868 26.1732H152.249C164.153 26.1732 173.677 35.6907 173.677 47.5876V152.28C173.677 164.177 164.153 173.695 152.249 173.695H47.4868C35.582 173.695 26.0582 164.177 26.0582 152.28V47.5876Z" fill="url(#paint3_radial_74_23)"/>
<path d="M99.8678 69.002C80.8201 69.002 68.9154 80.8989 68.9154 99.9339C68.9154 118.969 80.8201 130.866 99.8678 130.866C118.915 130.866 130.82 118.969 130.82 99.9339C130.82 80.8989 118.915 69.002 99.8678 69.002Z" fill="url(#paint4_radial_74_23)"/>
<path d="M99.8678 69.002C80.8201 69.002 68.9154 80.8989 68.9154 99.9339C68.9154 118.969 80.8201 130.866 99.8678 130.866C118.915 130.866 130.82 118.969 130.82 99.9339C130.82 80.8989 118.915 69.002 99.8678 69.002Z" fill="url(#paint5_radial_74_23)"/>
<path fill-rule="evenodd" clip-rule="evenodd" d="M99.8678 145.142C126.058 145.142 145.106 126.107 145.106 99.9339C145.106 73.7607 126.058 54.7257 99.8678 54.7257C73.6773 54.7257 54.6297 73.7607 54.6297 99.9339C54.6297 126.107 73.6773 145.142 99.8678 145.142ZM68.9154 99.9339C68.9154 80.8989 80.8201 69.002 99.8678 69.002C118.915 69.002 130.82 80.8989 130.82 99.9339C130.82 118.969 118.915 130.866 99.8678 130.866C80.8201 130.866 68.9154 118.969 68.9154 99.9339Z" fill="#F5F1CE"/>
<path d="M142.725 47.5876C148.677 47.5876 152.249 51.1566 152.249 57.1051C152.249 63.0535 148.677 66.6226 142.725 66.6226C136.773 66.6226 133.201 63.0535 133.201 57.1051C133.201 51.1566 136.773 47.5876 142.725 47.5876Z" fill="#F5F1CE"/>
<path fill-rule="evenodd" clip-rule="evenodd" d="M47.4868 26.1732C35.582 26.1732 26.0582 35.6907 26.0582 47.5876V152.28C26.0582 164.177 35.582 173.695 47.4868 173.695H152.249C164.153 173.695 173.677 164.177 173.677 152.28V47.5876C173.677 35.6907 164.153 26.1732 152.249 26.1732H47.4868ZM142.725 35.6907C159.392 35.6907 164.153 40.4494 164.153 57.1051V142.763C164.153 159.418 159.392 164.177 142.725 164.177H57.0106C40.3439 164.177 35.582 159.418 35.582 142.763V57.1051C35.582 40.4494 40.3439 35.6907 57.0106 35.6907H142.725Z" fill="#F5F1CE"/>
<defs>
<radialGradient id="paint0_radial_74_23" cx="0" cy="0" r="1" gradientUnits="userSpaceOnUse" gradientTransform="translate(15.3439 -32.1216) rotate(81.0894) scale(261.316 261.308)">
<stop stop-color="#8122E8"/>
<stop offset="0.309662" stop-color="#EA39D4"/>
<stop offset="0.47391" stop-color="#EA39D4"/>
<stop offset="0.590839" stop-color="#EA434D"/>
<stop offset="0.747688" stop-color="#ED9B39"/>
<stop offset="0.853188" stop-color="#F7CE4B"/>
</radialGradient>
<radialGradient id="paint1_radial_74_23" cx="0" cy="0" r="1" gradientUnits="userSpaceOnUse" gradientTransform="translate(183.201 110.641) rotate(-37.0243) scale(158.058 157.925)">
<stop stop-color="#EB3970"/>
<stop offset="1" stop-color="#EA39D4" stop-opacity="0.1"/>
</radialGradient>
<radialGradient id="paint2_radial_74_23" cx="0" cy="0" r="1" gradientUnits="userSpaceOnUse" gradientTransform="translate(15.3439 -32.1216) rotate(81.0894) scale(261.316 261.308)">
<stop stop-color="#8122E8"/>
<stop offset="0.309662" stop-color="#EA39D4"/>
<stop offset="0.47391" stop-color="#EA39D4"/>
<stop offset="0.590839" stop-color="#EA434D"/>
<stop offset="0.747688" stop-color="#ED9B39"/>
<stop offset="0.853188" stop-color="#F7CE4B"/>
</radialGradient>
<radialGradient id="paint3_radial_74_23" cx="0" cy="0" r="1" gradientUnits="userSpaceOnUse" gradientTransform="translate(183.201 110.641) rotate(-37.0243) scale(158.058 157.925)">
<stop stop-color="#EB3970"/>
<stop offset="1" stop-color="#EA39D4" stop-opacity="0.1"/>
</radialGradient>
<radialGradient id="paint4_radial_74_23" cx="0" cy="0" r="1" gradientUnits="userSpaceOnUse" gradientTransform="translate(15.3439 -32.1216) rotate(81.0894) scale(261.316 261.308)">
<stop stop-color="#8122E8"/>
<stop offset="0.309662" stop-color="#EA39D4"/>
<stop offset="0.47391" stop-color="#EA39D4"/>
<stop offset="0.590839" stop-color="#EA434D"/>
<stop offset="0.747688" stop-color="#ED9B39"/>
<stop offset="0.853188" stop-color="#F7CE4B"/>
</radialGradient>
<radialGradient id="paint5_radial_74_23" cx="0" cy="0" r="1" gradientUnits="userSpaceOnUse" gradientTransform="translate(183.201 110.641) rotate(-37.0243) scale(158.058 157.925)">
<stop stop-color="#EB3970"/>
<stop offset="1" stop-color="#EA39D4" stop-opacity="0.1"/>
</radialGradient>
</defs>
</svg>
