<svg width="200" height="200" viewBox="0 0 200 200" fill="none" xmlns="http://www.w3.org/2000/svg">
<path d="M140.476 145.238L157.143 128.571L128.571 100H171.428V76.1906H128.571L157.143 47.6193L140.476 30.9527L111.905 59.524L111.905 16.667H88.0951V59.524L59.5237 30.9527L42.8571 47.6193L71.4285 76.1906H28.5714V100H71.4285L42.8571 128.571L59.5237 145.238L99.9999 104.762L140.476 145.238Z" fill="#2EC17F"/>
<path d="M88.0951 128.571H111.905V183.333H88.0951V128.571Z" fill="#2EC17F"/>
<path fill-rule="evenodd" clip-rule="evenodd" d="M100 200C155 200 200 155 200 100C200 45 155 0 100 0C45 0 5.47262e-05 45 0 100C-5.47262e-05 155 45 200 100 200ZM157.143 128.571L140.476 145.238L99.9999 104.762L59.5237 145.238L42.8571 128.571L71.4285 100H28.5714V76.1906H71.4285L42.8571 47.6193L59.5237 30.9527L88.0951 59.524V16.667H111.905L111.905 59.524L140.476 30.9527L157.143 47.6193L128.571 76.1906H171.428V100H128.571L157.143 128.571ZM111.905 128.571H88.0951V183.333H111.905V128.571Z" fill="black"/>
</svg>
