<svg width="710" height="395" viewBox="0 0 710 395" fill="none" xmlns="http://www.w3.org/2000/svg">
<path d="M656.94 213.2C669.233 192.28 676.287 167.92 676.287 141.907C676.287 64.0399 613.167 0.919891 535.313 0.919891C482.847 0.919891 437.087 29.5867 412.807 72.0933C406.287 71.0533 399.593 70.4933 392.78 70.4933C323.793 70.4933 267.807 126.147 267.233 195.013C249.793 170.013 220.847 153.653 188.06 153.653C135.631 153.653 92.9986 195.467 91.612 247.56C86.1186 246.267 80.3999 245.56 74.5133 245.56C33.3839 245.56 0.0412598 278.907 0.0412598 320.027C0.0412598 360.12 31.7133 392.787 71.3959 394.427V394.507H614.06C666.927 394.507 709.793 351.653 709.793 298.787C709.793 261.333 688.273 228.933 656.94 213.2Z" fill="white"/>
</svg>
