<svg width="710" height="398" viewBox="0 0 710 398" fill="none" xmlns="http://www.w3.org/2000/svg">
<path d="M124.824 317.236C143.857 317.236 161.887 312.956 178.02 305.316C199.38 359.504 252.207 397.851 313.98 397.851C360.553 397.851 402.047 376.049 428.793 342.095C443.847 353.127 462.393 359.655 482.487 359.655C527.74 359.655 565.26 326.575 572.22 283.276C584.127 288.385 597.247 291.225 611.02 291.225C665.38 291.225 709.46 247.152 709.46 192.785C709.46 138.419 665.38 94.3466 611.02 94.3466C585.513 94.3466 562.287 104.043 544.793 119.949C543.127 79.0906 509.487 46.4746 468.22 46.4746C440.047 46.4746 415.433 61.6892 402.113 84.3425C375.22 34.6119 322.607 0.827942 262.1 0.827942C208.247 0.827942 160.648 27.5919 131.867 68.5386C129.535 68.408 127.188 68.3359 124.824 68.3359C56.0906 68.3359 0.373291 124.053 0.373291 192.785C0.373291 261.517 56.0906 317.236 124.824 317.236Z" fill="white"/>
</svg>
