<svg width="710" height="398" viewBox="0 0 710 398" fill="none" xmlns="http://www.w3.org/2000/svg">
<path d="M669.726 277.32C670.14 273.133 670.353 268.893 670.353 264.6C670.353 193.733 612.913 136.293 542.06 136.293C505.78 136.293 473.02 151.36 449.687 175.56C450.22 170.267 450.487 164.907 450.487 159.48C450.487 71.4001 379.1 -0.000152588 291.02 -0.000152588C203.513 -0.000152588 132.487 70.4799 131.566 157.773C129.407 157.52 127.22 157.387 124.993 157.387C93.8064 157.387 68.5131 182.667 68.5131 213.867C68.5131 226.64 72.7531 238.413 79.9131 247.88C78.3931 247.787 76.8731 247.733 75.3264 247.733C33.8997 247.733 0.326538 281.306 0.326538 322.733C0.326538 364.146 33.8997 397.733 75.3264 397.733C79.7131 397.733 84.0064 397.333 88.1931 396.613V397.733H632.58V395.987C637.26 397.12 642.153 397.733 647.193 397.733C681.606 397.733 709.513 369.827 709.513 335.413C709.513 308.947 693.006 286.347 669.726 277.32Z" fill="white"/>
</svg>
