<svg width="677" height="395" viewBox="0 0 677 395" fill="none" xmlns="http://www.w3.org/2000/svg">
<path d="M634.313 275.213C635.206 270.4 635.7 265.48 635.7 260.453C635.7 211.4 591.326 171.627 536.593 171.627C532.246 171.627 527.966 171.907 523.766 172.387C512.566 106.773 455.433 56.84 386.62 56.84C369.407 56.84 352.94 59.9734 337.713 65.6801C313.846 26.7068 270.873 0.69342 221.833 0.69342C146.833 0.69342 86.0332 61.4934 86.0332 136.493C86.0332 164.627 94.5798 190.76 109.233 212.427C103.927 211.48 98.4732 210.96 92.8998 210.96C42.1132 210.96 0.939819 252.12 0.939819 302.907C0.939819 350.267 36.7399 389.24 82.7399 394.293V394.867H615.607C649.447 394.867 676.887 367.427 676.887 333.573C676.887 306.253 659.006 283.12 634.313 275.213Z" fill="white"/>
</svg>
