<svg width="199" height="201" viewBox="0 0 199 201" fill="none" xmlns="http://www.w3.org/2000/svg">
<path d="M170.459 113.944C159.366 144.297 130.494 165.999 96.6921 165.999C95.7927 165.999 94.9016 165.961 94.0113 165.933C94.4302 164.874 95.0101 163.868 96.3347 162.695C99.5484 159.848 102.163 160.458 103.37 158.016C104.576 155.575 104.171 153.949 105.58 150.897C105.853 150.301 106.273 149.652 106.744 148.985C94.859 154.211 82.942 158.241 71.5948 160.911C71.5666 161.203 71.5382 161.488 71.5241 161.793C71.034 161.627 70.5581 161.441 70.0727 161.264C66.0013 162.184 62.0053 162.924 58.1177 163.477C69.7146 169.448 82.8148 172.833 96.6921 172.833C131.125 172.833 160.85 152.103 174.341 122.327L170.459 113.944ZM63.2164 112.856C61.6095 111.789 61.6567 112.657 61.6567 112.657C61.0157 112.933 62.2126 113.672 63.8667 114.473C65.5254 115.274 64.7243 115.808 65.6762 116.434C66.6328 117.063 68.1925 116.009 68.3905 114.946C68.5931 113.877 64.8233 113.925 63.2164 112.856ZM128.138 124.603C126.709 122.957 126.309 121.221 126.427 119.557C62.3823 162.385 -9.9984 158.956 8.06853 110.392C8.15806 110.158 8.2099 109.176 8.14864 108.923C7.62086 106.786 7.19205 104.678 6.84805 102.652C6.78679 102.279 6.2543 102.361 6.05167 102.771C0.491179 114.068 -2.42573 126.743 2.55044 137.545C17.1727 170.134 81.2173 158.732 132.35 126.892C130.715 126.629 129.216 125.847 128.138 124.603ZM68.3999 117.74C69.7995 118.555 69.6816 117.487 71.6749 117.74C73.6682 117.993 74.1206 118.045 74.1206 118.045C74.1206 118.045 75.8453 117.573 75.3269 117.077C74.4222 116.214 74.4222 116.214 74.4222 116.214C74.4222 116.214 72.6645 115.551 71.2555 115.861C69.8512 116.162 67.0003 116.924 68.3999 117.74ZM109.35 60.5295C112.064 59.3087 112.365 56.2567 117.337 55.3411C122.313 54.4255 124.726 54.1203 125.781 49.3897C126.837 44.6591 129.099 44.2013 129.099 40.2338C129.099 36.271 129.702 29.7092 131.813 27.4202C133.924 25.1312 138.293 22.6897 133.774 22.9948C129.25 23.3 131.662 22.9948 126.384 22.537C121.107 22.0792 120.655 21.3163 123.067 20.7058C125.48 20.0954 128.948 20.4006 128.043 18.5742C127.138 16.7382 126.536 13.9963 122.012 15.0644C117.488 16.1326 114.68 19.1798 110.353 19.7902C106.032 20.4007 104.222 20.8585 102.865 23.4526C101.508 26.0468 97.1354 25.8943 95.1748 28.3358C93.2151 30.7774 93.064 34.2872 96.2306 34.1346C99.3973 33.982 101.207 36.1184 101.207 39.4708C101.207 42.8279 103.77 48.169 101.659 50.7631C99.5484 53.3573 98.3414 56.2567 100.302 60.5295C102.263 64.7975 103.77 70.2911 105.58 68.1547C107.389 66.0183 107.389 66.0183 107.389 66.0183C107.389 66.0183 106.635 61.7503 109.35 60.5295ZM40.4231 141.922C26.5925 127.578 18.0538 107.997 18.0538 86.4189C18.0538 78.6936 19.1659 71.2353 21.2064 64.168C21.3289 65.1313 21.8096 66.1471 23.162 67.6969C26.1778 71.159 27.3841 76.0374 25.5746 80.3102C23.7651 84.583 21.7577 88.0404 23.162 91.2973C24.571 94.55 23.0536 96.3812 26.4276 98.2124C29.7969 100.044 30.4001 102.279 32.0069 105.127C33.6186 107.974 33.6186 107.974 33.6186 107.974C33.6186 107.974 37.6381 110.621 37.6381 114.078C37.6381 117.535 40.046 118.961 43.6651 119.366C47.2841 119.776 47.4868 118.961 50.3 120.587C53.1132 122.213 55.7286 120.181 55.7286 123.844C55.7286 127.506 56.7322 131.369 59.9507 129.743C63.1645 128.117 64.7715 128.27 64.974 130.125C65.1767 131.98 66.581 132.185 63.1645 134.216C59.7482 136.253 61.5577 135.236 60.5539 138.894C60.4408 139.3 60.3324 139.619 60.2288 139.9C69.4931 138.069 79.6386 134.979 90.1561 130.554C87.2113 129.505 88.1255 130.849 85.2746 128.928C82.2634 126.896 83.2672 123.844 79.0449 123.439C74.8227 123.029 74.8227 123.029 74.8227 123.029C74.8227 123.029 75.228 122.012 71.0058 123.234C66.7836 124.454 66.581 124.044 63.7677 125.065C60.9545 126.08 57.5381 124.655 59.3476 122.824C61.1571 120.997 61.1571 120.997 61.1571 120.997C61.1571 120.997 62.3634 118.756 59.3476 117.945C56.3317 117.129 53.7164 118.995 55.7286 116.434C57.736 113.877 58.7444 110.415 55.7286 111.636C52.7127 112.856 53.5138 115.093 50.9031 115.503C48.2879 115.909 45.8799 115.093 45.8799 113.267C45.8799 111.435 43.8677 110.621 46.8836 107.974C49.8995 105.332 46.0778 104.111 51.709 104.926C57.3354 105.737 58.5418 103.095 60.7519 106.347C62.9667 109.604 63.9703 112.046 64.1683 111.025C64.3709 110.01 63.7677 106.553 64.3709 104.516C64.974 102.485 65.7798 103.501 68.7957 100.854C71.8069 98.2124 69.5497 97.8306 70.3744 96.5332C71.2084 95.2367 70.7513 93.2526 72.8624 92.7948C74.9735 92.337 76.6322 91.345 77.6124 90.048C78.5926 88.7509 78.5172 87.9115 80.8545 87.9115C83.1917 87.9115 83.1917 87.9115 83.1917 87.9115C83.1917 87.9115 87.8663 87.4537 87.1124 86.0803C86.3584 84.7069 85.9814 85.017 84.775 85.3984C83.5687 85.7799 81.9854 85.1695 82.7393 84.1729C83.4934 83.1858 84.0211 82.4227 82.7393 81.5835C81.4577 80.7442 81.9854 80.5153 85.0012 80.439C88.0171 80.3626 90.0529 77.8447 89.9019 79.5997C89.7512 81.3546 87.6401 83.3383 89.1481 83.6436C90.6564 83.944 93.7426 84.8596 94.4962 84.4065C95.2508 83.944 95.5521 83.0331 94.1198 82.8805C92.6921 82.728 92.0136 82.4991 91.7114 81.3546C91.4101 80.2101 93.5915 77.0818 91.8579 75.1743C90.128 73.2668 88.1679 74.8691 87.9417 72.1986C87.7155 69.5281 88.0925 63.8819 86.9616 65.179C85.8306 66.4761 83.5687 70.1385 82.8148 68.4599C82.0608 66.7813 84.3981 65.2553 82.8148 64.1872C81.2315 63.1189 79.5727 60.3006 77.9894 60.6773C76.406 61.0588 75.8029 60.5295 75.7275 62.356C75.6521 64.1872 74.2949 64.8739 74.3703 67.3917C74.4458 69.9096 75.4259 70.1385 73.6917 72.809C71.9577 75.4795 71.8069 76.0135 71.8069 76.0135C71.8069 76.0135 71.4299 79.2181 69.7712 77.9211C68.1172 76.624 68.1172 76.624 68.1172 76.624C68.1172 76.624 70.7513 72.9616 68.9465 72.1223C67.137 71.283 65.8553 70.9015 64.4981 69.2229C63.141 67.5443 59.3711 64.2634 62.2362 61.7503C65.1012 59.2324 66.1568 58.7746 67.5893 57.4012C69.0172 56.0278 69.3941 56.4093 69.9267 57.2486C70.4544 58.0879 71.2084 57.7827 73.541 58.3168C75.8783 58.8509 76.1798 57.859 74.8981 55.9515C73.6164 54.044 73.0886 54.5018 74.8227 53.1284C76.5568 51.755 79.1958 49.0082 79.1203 47.5585C79.0449 46.1089 80.7036 44.9644 81.533 47.177C82.3624 49.3897 84.6997 49.3897 83.8703 51.5261C83.041 53.6626 83.3425 54.807 81.2315 55.2648C79.1203 55.7226 77.2354 56.8671 79.3465 57.6301C81.4577 58.3931 81.91 58.3168 82.5131 59.7665C83.1163 61.2162 85.2274 63.3478 86.1322 62.5849C87.0369 61.8218 88.1679 62.1318 87.6401 59.8428C87.1124 57.5538 86.283 53.8151 87.7155 55.4174C89.1481 57.0197 90.2791 57.9353 91.1839 56.6382C92.0841 55.3411 93.064 55.57 91.4101 53.3573C89.7512 51.1447 86.66 51.2209 88.0925 50.0002C89.525 48.7793 92.541 48.9319 88.8464 46.0325C85.152 43.1332 87.2631 41.2256 84.9259 39.7045C82.5886 38.1784 80.6283 37.1866 79.1203 38.6362C77.6124 40.086 78.0648 36.4236 78.9696 34.2109C79.8743 31.9982 81.6838 32.3797 84.0965 31.4641C86.5092 30.5485 92.2343 28.1832 93.7426 25.4365C95.2508 22.6897 98.4925 21.3163 100.001 20.248C101.508 19.1798 105.58 17.9638 104.525 15.8275C103.469 13.691 103.544 12.3176 99.9248 13.0807C96.3057 13.8436 93.1391 14.7592 88.7711 15.2933C84.3981 15.8275 83.4934 16.3568 80.1005 17.7302C76.7077 19.1083 70.7513 18.9509 66.4584 20.248C62.1608 21.5452 59.145 21.3163 58.014 23.8342C56.8831 26.3521 56.506 27.0388 52.7363 29.404C48.9664 31.7693 46.8601 32.456 47.991 34.745C49.1219 37.0339 53.4148 41.302 51.3791 41.8408C49.3434 42.3701 46.1061 37.8733 43.241 37.4917C40.3759 37.1103 37.3601 39.6233 35.5506 38.4073C35.2678 38.2119 34.9427 37.9543 34.5987 37.6729C48.9994 18.9319 71.4723 6.83836 96.6921 6.83836C125.39 6.83836 150.535 22.4798 164.267 45.7751C161.651 46.3091 160.629 46.953 161.265 50.0002C162.071 53.8676 164.078 55.4937 165.69 55.4937C166.627 55.4937 163.8 56.9577 161.93 58.417C162.122 58.4074 162.316 58.3979 162.481 58.3979C164.271 58.3979 165.869 58.8033 167.24 59.49C167.457 59.3135 167.674 59.1322 167.9 58.951C169.403 57.735 169.78 57.4299 169.874 57.3487C170.275 58.3835 170.652 59.428 171.014 60.4771L177.245 57.7732C165.539 24.1631 133.859 0 96.6921 0C49.6073 0 11.2964 38.7698 11.2964 86.4189C11.2964 107.125 18.5392 126.147 30.5838 141.045C33.562 141.583 36.8559 141.884 40.4231 141.922ZM170.067 97.0148C161.962 102.929 152.774 109.194 145.582 113.72L146.388 128.818L142.614 132.165L137.124 118.713C134.914 119.876 133.49 120.416 133.213 120.091C132.935 119.772 133.651 118.417 135.078 116.348L122.596 109.094L126.37 105.742L141.087 108.507C146.464 101.884 153.8 93.4769 160.633 86.1233L128.844 65.5653L132.586 62.2415L156.388 68.9701C158.117 67.1199 158.612 66.7146 158.998 66.3712C160.662 64.8929 163.923 65.0216 164.615 65.818C165.256 66.5572 164.917 69.5138 163.659 71.0302L173.069 73.6912C175.943 71.0112 178.022 69.1943 178.653 68.6363C183.361 64.4541 196.989 59.9048 198.718 61.8934C200.448 63.8866 193.827 77.3249 189.515 81.1542C188.766 81.8219 186.739 83.6579 183.841 86.128L185.227 95.8941C186.877 94.8265 189.817 94.8695 190.458 95.6084C191.15 96.405 190.853 99.6947 189.19 101.173C188.804 101.517 188.341 101.96 186.301 103.458L189.817 128.207L186.075 131.535L170.067 97.0148Z" fill="#173154"/>
<path d="M27.7448 183.544C25.7703 182.386 24.3001 181.237 23.3341 180.092C22.3775 178.957 21.7932 177.832 21.5811 176.716C21.3785 175.586 21.4539 174.465 21.8073 173.358L28.3103 177.173C28.3951 178.165 28.97 178.972 30.0255 179.596C31.067 180.207 32.033 180.292 32.9283 179.863C33.0131 179.825 33.0696 179.777 33.098 179.73C33.2111 179.538 33.0461 179.253 32.6079 178.871C32.1649 178.49 31.4769 177.998 30.5344 177.402C29.3658 176.64 28.1594 175.757 26.9154 174.751C24.2106 172.539 23.4189 170.455 24.5404 168.494C24.6253 168.332 24.7384 168.16 24.8797 167.979C25.6431 167.13 26.562 166.51 27.6317 166.129C28.6967 165.738 29.9595 165.685 31.4204 165.977C32.8765 166.258 34.5917 166.978 36.5662 168.132C38.5359 169.276 40.0062 170.421 40.9769 171.565C41.9429 172.701 42.5273 173.831 42.7298 174.96C42.9278 176.081 42.8618 177.193 42.5225 178.299L36.0007 174.484C35.897 173.521 35.3268 172.729 34.2855 172.118C33.2299 171.499 32.2592 171.389 31.3826 171.794C31.3167 171.823 31.2743 171.866 31.2507 171.928C31.147 172.095 31.3073 172.357 31.7219 172.71C32.1461 173.053 32.8011 173.521 33.6823 174.102C34.5588 174.689 35.4777 175.342 36.4343 176.067C37.3862 176.792 38.2249 177.569 38.9412 178.394C39.6575 179.233 40.0957 180.101 40.2606 181.008C40.3832 181.68 40.2465 182.371 39.8459 183.086C39.7328 183.287 39.6009 183.487 39.4501 183.678C38.6678 184.527 37.7443 185.146 36.6793 185.528C35.6237 185.919 34.3608 185.972 32.8906 185.681C31.4298 185.4 29.7145 184.689 27.7448 183.544Z" fill="#173154"/>
<path d="M50.7528 194.069C46.8039 192.719 44.1745 190.903 42.8551 188.614C41.6723 186.606 41.5074 184.336 42.365 181.804C43.1944 179.287 44.6834 177.584 46.8322 176.692C49.2544 175.69 52.4398 175.862 56.3887 177.207C58.7119 178.008 60.5402 178.938 61.8738 179.992C63.2169 181.036 64.1545 182.176 64.6824 183.407C65.2101 184.627 65.4175 185.886 65.3044 187.184L58.236 184.761C57.9437 183.273 56.8458 182.205 54.9373 181.556C53.3164 181.012 51.9686 181.069 50.9036 181.728C50.0366 182.276 49.4334 183.063 49.0941 184.093C48.7407 185.123 48.7454 186.129 49.1129 187.107C49.5512 188.318 50.5832 189.195 52.2042 189.739C54.1127 190.388 55.6253 190.197 56.7468 189.167L63.8153 191.589C63.1226 192.719 62.199 193.602 61.0444 194.241C59.8994 194.889 58.481 195.219 56.7846 195.233C55.0881 195.256 53.076 194.87 50.7528 194.069Z" fill="#173154"/>
<path d="M88.9131 201L82.2782 200.237C82.0143 199.765 81.854 199.198 81.8069 198.54C81.7551 198.005 81.6467 197.481 81.4865 196.957C81.3216 196.437 80.987 195.983 80.4875 195.602C79.9974 195.211 79.2246 194.944 78.1691 194.8L73.5887 194.267L73.0421 199.169L65.9925 198.348L67.8962 181.353L79.3565 182.688C82.0943 182.994 84.2809 183.452 85.916 184.061C87.5606 184.672 88.7151 185.469 89.3842 186.446C90.0483 187.414 90.2981 188.616 90.1379 190.051C90.0112 191.248 89.6341 192.221 89.0073 192.969C88.39 193.723 87.4805 194.267 86.2741 194.61C87.3391 195.211 87.9989 195.85 88.2533 196.536C88.5172 197.223 88.6397 197.963 88.6303 198.749C88.6303 199.445 88.7246 200.199 88.9131 201ZM74.0599 190.071L78.0937 190.509C79.2104 190.638 80.0964 190.69 80.7514 190.662C81.4158 190.638 81.9106 190.557 82.2405 190.414C82.5656 190.276 82.7871 190.103 82.9002 189.898C83.0133 189.699 83.0793 189.474 83.1075 189.231C83.1311 189.002 83.1122 188.773 83.0509 188.544C82.985 188.315 82.8106 188.096 82.5232 187.877C82.2452 187.663 81.7881 187.467 81.1472 187.285C80.5063 187.109 79.6252 186.957 78.5083 186.827L74.4747 186.37L74.0599 190.071Z" fill="#173154"/>
<path d="M104.059 200.165C99.8976 200.584 96.7499 200.027 94.6156 198.486C92.7301 197.141 91.6607 195.138 91.4109 192.478C91.1468 189.835 91.8072 187.661 93.3906 185.954C95.1711 184.046 98.1451 182.883 102.306 182.463C104.742 182.21 106.783 182.287 108.432 182.692C110.076 183.088 111.391 183.732 112.371 184.618C113.351 185.51 114.053 186.578 114.482 187.823L107.056 188.567C106.188 187.323 104.756 186.803 102.758 187.003C101.048 187.17 99.846 187.794 99.1584 188.872C98.5784 189.74 98.3477 190.703 98.4608 191.772C98.5594 192.869 98.9738 193.774 99.7049 194.499C100.595 195.406 101.896 195.773 103.606 195.605C105.605 195.406 106.909 194.604 107.527 193.202L114.954 192.458C114.775 193.756 114.294 194.938 113.502 196.006C112.711 197.075 111.546 197.971 110.015 198.695C108.479 199.421 106.495 199.912 104.059 200.165Z" fill="#173154"/>
<path d="M143.457 189.471L124.777 196.319L123.345 192.332C123.02 191.393 123.02 190.52 123.345 189.719C123.661 188.909 124.175 188.155 124.891 187.468C125.607 186.782 126.418 186.147 127.323 185.561C128.227 184.979 129.1 184.445 129.943 183.959C131.097 183.324 131.997 182.752 132.638 182.242C133.114 181.86 133.298 181.508 133.185 181.174C133.147 181.088 133.076 180.997 132.977 180.906C132.195 180.334 131.229 180.258 130.075 180.677C128.915 181.098 128.218 181.784 127.982 182.737L120.914 185.332C120.763 184.178 120.891 183.062 121.291 181.994C121.682 180.926 122.45 179.924 123.59 178.98C124.721 178.026 126.366 177.159 128.529 176.367C130.677 175.58 132.492 175.179 133.976 175.165C135.456 175.141 136.681 175.413 137.652 175.985C138.632 176.557 139.433 177.335 140.064 178.312C140.187 178.556 140.296 178.789 140.385 179.018C140.762 180.101 140.668 181.145 140.102 182.146C139.537 183.139 138.623 184.068 137.369 184.931C136.111 185.799 134.848 186.562 133.581 187.22C132.939 187.578 132.365 187.907 131.865 188.212C131.361 188.518 130.98 188.799 130.715 189.051C130.451 189.309 130.348 189.538 130.414 189.738L142.025 185.484L143.457 189.471Z" fill="#173154"/>
<path d="M155.881 182.951C152.762 184.81 150.024 185.43 147.663 184.82C145.59 184.277 143.889 182.855 142.555 180.566C141.226 178.277 140.816 176.084 141.33 173.985C141.947 171.597 143.814 169.474 146.928 167.615C150.028 165.76 152.753 165.144 155.09 165.764C157.172 166.298 158.883 167.71 160.217 169.999C161.546 172.288 161.95 174.491 161.423 176.598C160.829 178.978 158.982 181.096 155.881 182.951ZM153.581 179.021C154.684 178.363 155.175 177.447 155.052 176.274C154.977 175.512 154.656 174.644 154.091 173.661C153.534 172.698 152.941 171.982 152.3 171.524C151.358 170.891 150.331 170.904 149.228 171.563C148.097 172.24 147.587 173.141 147.7 174.271C147.786 175.063 148.106 175.94 148.662 176.903C149.228 177.872 149.821 178.578 150.453 179.021C151.405 179.699 152.45 179.699 153.581 179.021Z" fill="#173154"/>
<path d="M181.978 162.29L167.031 175.529L164.278 172.344C163.629 171.595 163.299 170.789 163.299 169.921C163.299 169.043 163.516 168.157 163.939 167.25C164.368 166.335 164.901 165.447 165.541 164.579C166.173 163.702 166.79 162.877 167.408 162.1C168.237 161.098 168.859 160.24 169.274 159.525C169.585 158.991 169.636 158.6 169.425 158.342C169.349 158.266 169.245 158.204 169.122 158.152C168.19 157.913 167.261 158.199 166.333 159.01C165.419 159.826 165.014 160.722 165.127 161.7L159.472 166.716C158.92 165.7 158.638 164.618 158.624 163.473C158.6 162.329 158.954 161.108 159.679 159.811C160.396 158.504 161.617 157.083 163.337 155.557C165.061 154.032 166.606 152.992 167.991 152.429C169.373 151.871 170.617 151.68 171.724 151.857C172.841 152.024 173.863 152.448 174.796 153.134C174.994 153.316 175.178 153.492 175.343 153.669C176.083 154.537 176.37 155.538 176.21 156.682C176.046 157.818 175.532 159.019 174.664 160.288C173.807 161.561 172.912 162.744 171.969 163.836C171.488 164.398 171.069 164.914 170.706 165.381C170.353 165.838 170.103 166.239 169.952 166.583C169.801 166.916 169.792 167.164 169.933 167.326L179.226 159.105L181.978 162.29Z" fill="#173154"/>
<path d="M196.072 144.741L191.698 150.406L188.399 147.793L181.161 157.158L177.881 154.565L178.372 139.877L182.744 134.212L189.493 139.533L191.189 137.339L194.469 139.934L192.773 142.128L196.072 144.741ZM185.119 145.199L182.424 143.081L182.292 148.861L185.119 145.199Z" fill="#173154"/>
</svg>
