<svg width="100" height="100" viewBox="0 0 100 100" fill="none" xmlns="http://www.w3.org/2000/svg">
<rect y="-0.000854492" width="100" height="100" rx="15" fill="#D4E9F5"/>
<path fill-rule="evenodd" clip-rule="evenodd" d="M49.7428 7.99915C75 7.99915 92 24.9986 92 49.9986C92 74.9986 74 91.9986 50 91.9986C26 91.9986 8 77.9986 8 49.9986C8 21.9986 26.7428 7.99915 49.7428 7.99915ZM18.5 65.4986C18.5 54.4986 20.5 42.4986 25.5 33.4986C25.5 33.4986 31.5 29.9986 39.5 29.4986L41.5 33.4986C46.5 32.9986 52.5 32.9986 57.5 33.4986L59.5 29.4986C67.5 29.9986 73.5 33.4986 73.5 33.4986C77.5 42.4986 80.5 54.4986 80.5 65.4986C80.5 65.4986 71.5 70.4986 62.5 72.4986C61 69.9986 60.5 67.4986 60.5 67.4986L66.5 65.4986L65.5 64.4986C58.5 68.4986 40.5 68.4986 33.5 64.4986L32.5 65.4986L38.5 67.4986C38.5 67.4986 37.7 70.4986 36.5 72.4986C27.5 70.4986 18.5 65.4986 18.5 65.4986Z" fill="#5865F2"/>
<path d="M39.5 46.4986C42 46.4986 45 48.4986 45 52.4986C45 56.4986 42 58.4986 39.5 58.4986C37 58.4986 34 56.4986 34 52.4986C34 48.4986 37 46.4986 39.5 46.4986Z" fill="#5865F2"/>
<path d="M59.5 46.4986C62 46.4986 65 48.4986 65 52.4986C65 56.4986 62 58.4986 59.5 58.4986C57 58.4986 54 56.4986 54 52.4986C54 48.4986 57 46.4986 59.5 46.4986Z" fill="#5865F2"/>
<path fill-rule="evenodd" clip-rule="evenodd" d="M25.5 33.4986C20.5 42.4986 18.5 54.4986 18.5 65.4986C18.5 65.4986 27.5 70.4986 36.5 72.4986C37.7 70.4986 38.5 67.4986 38.5 67.4986L32.5 65.4986L33.5 64.4986C40.5 68.4986 58.5 68.4986 65.5 64.4986L66.5 65.4986L60.5 67.4986C60.5 67.4986 61 69.9986 62.5 72.4986C71.5 70.4986 80.5 65.4986 80.5 65.4986C80.5 54.4986 77.5 42.4986 73.5 33.4986C73.5 33.4986 67.5 29.9986 59.5 29.4986L57.5 33.4986C52.5 32.9986 46.5 32.9986 41.5 33.4986L39.5 29.4986C31.5 29.9986 25.5 33.4986 25.5 33.4986ZM65 52.4986C65 48.4986 62 46.4986 59.5 46.4986C57 46.4986 54 48.4986 54 52.4986C54 56.4986 57 58.4986 59.5 58.4986C62 58.4986 65 56.4986 65 52.4986ZM45 52.4986C45 48.4986 42 46.4986 39.5 46.4986C37 46.4986 34 48.4986 34 52.4986C34 56.4986 37 58.4986 39.5 58.4986C42 58.4986 45 56.4986 45 52.4986Z" fill="#F5F1CE"/>
</svg>
