<svg width="200" height="200" viewBox="0 0 200 200" fill="none" xmlns="http://www.w3.org/2000/svg">
<rect y="-0.000671387" width="200" height="200" rx="30" fill="#D4E9F5"/>
<path fill-rule="evenodd" clip-rule="evenodd" d="M99.4857 15.9993C150 15.9993 184 49.9982 184 99.9982C184 149.998 148 183.998 100 183.998C52 183.998 16 155.998 16 99.9982C16 43.9982 53.4857 15.9993 99.4857 15.9993ZM37 130.998C37 108.998 41 84.9982 51 66.9982C51 66.9982 63 59.9982 79 58.9982L83 66.9982C93 65.9982 105 65.9982 115 66.9982L119 58.9982C135 59.9982 147 66.9982 147 66.9982C155 84.9982 161 108.998 161 130.998C161 130.998 143 140.998 125 144.998C122 139.998 121 134.998 121 134.998L133 130.998L131 128.998C117 136.998 81 136.998 67 128.998L65 130.998L77 134.998C77 134.998 75.4 140.998 73 144.998C55 140.998 37 130.998 37 130.998Z" fill="#5865F2"/>
<path d="M79 92.9982C84 92.9982 90 96.9982 90 104.998C90 112.998 84 116.998 79 116.998C74 116.998 68 112.998 68 104.998C68 96.9982 74 92.9982 79 92.9982Z" fill="#5865F2"/>
<path d="M119 92.9982C124 92.9982 130 96.9982 130 104.998C130 112.998 124 116.998 119 116.998C114 116.998 108 112.998 108 104.998C108 96.9982 114 92.9982 119 92.9982Z" fill="#5865F2"/>
<path fill-rule="evenodd" clip-rule="evenodd" d="M51 66.9982C41 84.9982 37 108.998 37 130.998C37 130.998 55 140.998 73 144.998C75.4 140.998 77 134.998 77 134.998L65 130.998L67 128.998C81 136.998 117 136.998 131 128.998L133 130.998L121 134.998C121 134.998 122 139.998 125 144.998C143 140.998 161 130.998 161 130.998C161 108.998 155 84.9982 147 66.9982C147 66.9982 135 59.9982 119 58.9982L115 66.9982C105 65.9982 93 65.9982 83 66.9982L79 58.9982C63 59.9982 51 66.9982 51 66.9982ZM130 104.998C130 96.9982 124 92.9982 119 92.9982C114 92.9982 108 96.9982 108 104.998C108 112.998 114 116.998 119 116.998C124 116.998 130 112.998 130 104.998ZM90 104.998C90 96.9982 84 92.9982 79 92.9982C74 92.9982 68 96.9982 68 104.998C68 112.998 74 116.998 79 116.998C84 116.998 90 112.998 90 104.998Z" fill="#F5F1CE"/>
</svg>
