<svg width="200" height="200" viewBox="0 0 200 200" fill="none" xmlns="http://www.w3.org/2000/svg">
<rect y="-0.000671387" width="200" height="200" rx="30" fill="#D4E9F5"/>
<path d="M86 183.176C90.4867 183.722 95.1566 183.999 100 183.999C104.843 183.999 109.513 183.704 114 183.129V127.999H138L142 99.9993H114V81.9993C114 73.9993 120 67.9993 128 67.9993H142V43.9993C142 43.9993 130 41.9993 112 41.9993C98 41.9993 86 53.9993 86 67.9993V99.9993H58V127.999H86V183.176Z" fill="#F5F1CE"/>
<path d="M184 99.9993C184 49.9993 152 15.9993 100 15.9993C48 15.9993 16 47.9993 16 99.9993C16 147.156 42.3165 177.865 86 183.176V127.999H58V99.9993H86V67.9993C86 53.9993 98 41.9993 112 41.9993C130 41.9993 142 43.9993 142 43.9993V67.9993H128C120 67.9993 114 73.9993 114 81.9993V99.9993H142L138 127.999H114V183.129C157.684 177.527 184 145.342 184 99.9993Z" fill="#3F79EB"/>
</svg>
