<svg width="100" height="100" viewBox="0 0 100 100" fill="none" xmlns="http://www.w3.org/2000/svg">
<rect y="-0.000854492" width="100" height="100" rx="15" fill="#D4E9F5"/>
<path d="M43 91.5876C45.2433 91.8603 47.5783 91.9991 50 91.9991C52.4217 91.9991 54.7567 91.8517 57 91.564V63.9991H69L71 49.9991H57V40.9991C57 36.9991 60 33.9991 64 33.9991H71V21.9991C71 21.9991 65 20.9991 56 20.9991C49 20.9991 43 26.9991 43 33.9991V49.9991H29V63.9991H43V91.5876Z" fill="#F5F1CE"/>
<path d="M92 49.9991C92 24.9991 76 7.99915 50 7.99915C24 7.99915 8 23.9991 8 49.9991C8 73.5774 21.1582 88.9318 43 91.5876V63.9991H29V49.9991H43V33.9991C43 26.9991 49 20.9991 56 20.9991C65 20.9991 71 21.9991 71 21.9991V33.9991H64C60 33.9991 57 36.9991 57 40.9991V49.9991H71L69 63.9991H57V91.564C78.8418 88.7629 92 72.6706 92 49.9991Z" fill="#3F79EB"/>
</svg>
