<svg width="200" height="200" viewBox="0 0 200 200" fill="none" xmlns="http://www.w3.org/2000/svg">
<rect width="200" height="200" rx="30" fill="#D4E9F5"/>
<path d="M100 16C49.1579 16 16 49.1579 16 100C16 143.172 38.3147 173.594 77.5301 181.789V170.737C77.5301 170.05 77.5112 163.783 77.5301 163C64.6316 165.211 52.5527 162.724 49.1579 150.842C46.9474 143.105 45.8421 140.895 41.4211 136.474C35.7853 130.838 28.1579 128.737 31.4737 126.526C35.3754 123.925 45.5965 126.526 52.4737 135.368C60.2105 145.316 58.0439 149.962 66.8421 150.842C72.3684 151.395 78.4504 149.737 79.0543 146.421C80.1214 140.562 81.8471 135.301 84.5263 133.158C66.8421 131.317 46.9474 119.895 46.9474 93.3684C46.9474 82.5391 49.8947 72.815 55.7895 65.0987C56.6737 62.9566 56.1348 59.7265 55.7895 58C54.6842 52.4737 53.5789 48.0526 55.7895 38.1053C64.6316 38.1053 74.2105 43.2632 77.8947 45.8421C79 46.5789 81.8737 48.1204 84.5263 48.3917C89.2406 47.4464 94.3985 46.9474 100 46.9474C105.601 46.9474 110.759 47.4464 115.474 48.3917C118.126 48.3917 121 46.692 122.105 45.8421C127.263 42.5263 135.368 38.1053 144.211 38.1053C146.421 48.0526 145.592 52.4737 144.211 58C143.842 59.4737 143.326 62.9566 144.211 65.0987C150.105 72.815 153.053 82.5391 153.053 93.3684C153.053 119.895 133.158 131.317 115.474 133.158C121 137.579 122.47 155.263 122.47 164.105V181.789C125.406 181.176 128.247 180.438 130.991 179.579C164.902 168.967 184 139.94 184 100C184 49.1579 150.842 16 100 16Z" fill="black"/>
<path d="M82.3158 182.665C87.8991 183.547 93.7985 184 100 184C106.201 184 112.101 183.547 117.684 182.665C119.306 182.409 120.902 182.117 122.47 181.789V164.105C122.47 155.263 121 137.579 115.474 133.158C133.158 131.317 153.053 119.895 153.053 93.3684C153.053 82.5391 150.105 72.815 144.211 65.0987C143.326 62.9566 143.842 59.4737 144.211 58C145.592 52.4737 146.421 48.0526 144.211 38.1053C135.368 38.1053 127.263 42.5263 122.105 45.8421C121 46.692 118.126 48.3917 115.474 48.3917C110.759 47.4464 105.601 46.9474 100 46.9474C94.3985 46.9474 89.2406 47.4464 84.5263 48.3917C81.8737 48.1204 79 46.5789 77.8947 45.8421C74.2105 43.2632 64.6316 38.1053 55.7895 38.1053C53.5789 48.0526 54.6842 52.4737 55.7895 58C56.1348 59.7265 56.6737 62.9566 55.7895 65.0987C49.8947 72.815 46.9474 82.5391 46.9474 93.3684C46.9474 119.895 66.8421 131.317 84.5263 133.158C81.8471 135.301 80.1214 140.562 79.0543 146.421C78.4504 149.737 72.3684 151.395 66.8421 150.842C58.0439 149.962 60.2105 145.316 52.4737 135.368C45.5965 126.526 35.3754 123.925 31.4737 126.526C28.1579 128.737 35.7853 130.838 41.4211 136.474C45.8421 140.895 46.9474 143.105 49.1579 150.842C52.5527 162.724 64.6316 165.211 77.5301 163C77.5112 163.783 77.5301 170.05 77.5301 170.737V181.789C79.0984 182.117 80.6938 182.409 82.3158 182.665Z" fill="#F5F1CE"/>
</svg>
