<svg width="100" height="100" viewBox="0 0 100 100" fill="none" xmlns="http://www.w3.org/2000/svg">
<rect width="100" height="100" rx="15" fill="#D4E9F5"/>
<path d="M50 8C24.5789 8 8 24.5789 8 50C8 71.5862 19.1573 86.7968 38.7651 90.8947V85.3684C38.7651 85.0249 38.7556 81.8916 38.7651 81.5C32.3158 82.6053 26.2763 81.3619 24.5789 75.421C23.4737 71.5526 22.9211 70.4474 20.7105 68.2368C17.8926 65.419 14.0789 64.3684 15.7368 63.2632C17.6877 61.9626 22.7982 63.2632 26.2368 67.6842C30.1053 72.6579 29.0219 74.9811 33.4211 75.421C36.1842 75.6974 39.2252 74.8684 39.5271 73.2105C40.0607 70.2809 40.9236 67.6506 42.2632 66.5789C33.4211 65.6585 23.4737 59.9474 23.4737 46.6842C23.4737 41.2695 24.9474 36.4075 27.8947 32.5493C28.3368 31.4783 28.0674 29.8633 27.8947 29C27.3421 26.2368 26.7895 24.0263 27.8947 19.0526C32.3158 19.0526 37.1053 21.6316 38.9474 22.9211C39.5 23.2895 40.9368 24.0602 42.2632 24.1959C44.6203 23.7232 47.1993 23.4737 50 23.4737C52.8007 23.4737 55.3797 23.7232 57.7368 24.1959C59.0632 24.1959 60.5 23.346 61.0526 22.9211C63.6316 21.2632 67.6842 19.0526 72.1053 19.0526C73.2105 24.0263 72.7961 26.2368 72.1053 29C71.9211 29.7368 71.6632 31.4783 72.1053 32.5493C75.0526 36.4075 76.5263 41.2695 76.5263 46.6842C76.5263 59.9474 66.579 65.6585 57.7368 66.5789C60.5 68.7895 61.2349 77.6316 61.2349 82.0526V90.8947C62.7029 90.5879 64.1235 90.2188 65.4956 89.7895C82.4508 84.4836 92 69.9701 92 50C92 24.5789 75.4211 8 50 8Z" fill="black"/>
<path d="M41.1579 91.3328C43.9495 91.7735 46.8993 92 50 92C53.1007 92 56.0505 91.7735 58.8421 91.3328C59.6531 91.2047 60.4508 91.0586 61.2349 90.8947V82.0526C61.2349 77.6316 60.5 68.7895 57.7368 66.5789C66.579 65.6585 76.5263 59.9474 76.5263 46.6842C76.5263 41.2695 75.0526 36.4075 72.1053 32.5493C71.6632 31.4783 71.9211 29.7368 72.1053 29C72.7961 26.2368 73.2105 24.0263 72.1053 19.0526C67.6842 19.0526 63.6316 21.2632 61.0526 22.9211C60.5 23.346 59.0632 24.1959 57.7368 24.1959C55.3797 23.7232 52.8007 23.4737 50 23.4737C47.1993 23.4737 44.6203 23.7232 42.2632 24.1959C40.9368 24.0602 39.5 23.2895 38.9474 22.9211C37.1053 21.6316 32.3158 19.0526 27.8947 19.0526C26.7895 24.0263 27.3421 26.2368 27.8947 29C28.0674 29.8633 28.3368 31.4783 27.8947 32.5493C24.9474 36.4075 23.4737 41.2695 23.4737 46.6842C23.4737 59.9474 33.4211 65.6585 42.2632 66.5789C40.9236 67.6506 40.0607 70.2809 39.5271 73.2105C39.2252 74.8684 36.1842 75.6974 33.4211 75.421C29.0219 74.9811 30.1053 72.6579 26.2368 67.6842C22.7982 63.2632 17.6877 61.9626 15.7368 63.2632C14.0789 64.3684 17.8926 65.419 20.7105 68.2368C22.9211 70.4474 23.4737 71.5526 24.5789 75.421C26.2763 81.3619 32.3158 82.6053 38.7651 81.5C38.7556 81.8916 38.7651 85.0249 38.7651 85.3684V90.8947C39.5492 91.0586 40.3469 91.2047 41.1579 91.3328Z" fill="#F5F1CE"/>
</svg>
