<svg width="200" height="200" viewBox="0 0 200 200" fill="none" xmlns="http://www.w3.org/2000/svg">
<rect width="200" height="200" rx="30" fill="#D4E9F5"/>
<path d="M146 100.557V159H174.737C183.579 159 188 154.547 188 145.642V75.5095L146 100.557Z" fill="#67AD5B"/>
<path d="M188 56.5849C188 47.6793 181.368 41 172.526 41C168.105 41 162.579 43.2264 157.053 46.566L146 53.5146V100.557L188 75.5095V56.5849Z" fill="#F2C24F"/>
<path d="M104 125.604L146 100.557V53.5146L104 79.9623L62 53.5146V100.557L104 125.604Z" fill="#D3483E"/>
<path d="M35.4737 41C26.6316 41 20 47.6793 20 56.5849L20 75.5095L62 100.557V53.5146L50.9474 46.566C45.4211 43.2264 39.8947 41 35.4737 41Z" fill="#B63831"/>
<path d="M20 145.641C20 154.547 24.4211 159 33.2632 159H62L62 100.557L20 75.5095V145.641Z" fill="#4286DE"/>
<path d="M157.053 46.566C162.579 43.2264 168.105 41 172.526 41H35.4737C39.8947 41 45.4211 43.2264 50.9474 46.566L62 53.5146L104 79.9623L146 53.5146L157.053 46.566Z" fill="#F5F1CE"/>
<path d="M62 100.557L62 159H146V100.557L104 125.604L62 100.557Z" fill="#F5F1CE"/>
</svg>
