<svg width="100" height="100" viewBox="0 0 100 100" fill="none" xmlns="http://www.w3.org/2000/svg">
<rect width="100" height="100" rx="15" fill="#D4E9F5"/>
<path d="M71 50.7783V80H85.3684C89.7895 80 92 77.7737 92 73.3208V38.2547L71 50.7783Z" fill="#67AD5B"/>
<path d="M92 28.7925C92 24.3396 88.6842 21 84.2632 21C82.0526 21 79.2895 22.1132 76.5263 23.783L71 27.2573V50.7783L92 38.2547V28.7925Z" fill="#F2C24F"/>
<path d="M50 63.3019L71 50.7783V27.2573L50 40.4812L29 27.2573V50.7783L50 63.3019Z" fill="#D3483E"/>
<path d="M15.7368 21C11.3158 21 8 24.3396 8 28.7925L8 38.2547L29 50.7783V27.2573L23.4737 23.783C20.7105 22.1132 17.9474 21 15.7368 21Z" fill="#B63831"/>
<path d="M8 73.3207C8 77.7736 10.2105 80 14.6316 80H29L29 50.7783L8 38.2547V73.3207Z" fill="#4286DE"/>
<path d="M76.5263 23.783C79.2895 22.1132 82.0526 21 84.2632 21H15.7368C17.9474 21 20.7105 22.1132 23.4737 23.783L29 27.2573L50 40.4812L71 27.2573L76.5263 23.783Z" fill="#F5F1CE"/>
<path d="M29 50.7783L29 80H71V50.7783L50 63.3019L29 50.7783Z" fill="#F5F1CE"/>
</svg>
