<svg width="100" height="100" viewBox="0 0 100 100" fill="none" xmlns="http://www.w3.org/2000/svg">
<rect width="100" height="100" rx="15" fill="#D4E9F5"/>
<path fill-rule="evenodd" clip-rule="evenodd" d="M76.9445 31.9841C76.9445 24.9888 74.9445 22.9901 67.9445 22.9901H31.9445C24.9445 22.9901 22.9445 24.9888 22.9445 31.9841V67.9603C22.9445 74.9557 24.9445 76.9544 31.9445 76.9544H67.9445C74.9445 76.9544 76.9445 74.9557 76.9445 67.9603V31.9841ZM71.9445 31.9841C71.9445 29.4858 70.4445 27.9868 67.9445 27.9868C65.4445 27.9868 63.9445 29.4858 63.9445 31.9841C63.9445 34.4825 65.4445 35.9815 67.9445 35.9815C70.4445 35.9815 71.9445 34.4825 71.9445 31.9841ZM68.9445 49.9722C68.9445 60.965 60.9445 68.9597 49.9445 68.9597C38.9445 68.9597 30.9445 60.965 30.9445 49.9722C30.9445 38.9795 38.9445 30.9848 49.9445 30.9848C60.9445 30.9848 68.9445 38.9795 68.9445 49.9722Z" fill="url(#paint0_radial_20_26)"/>
<path fill-rule="evenodd" clip-rule="evenodd" d="M76.9445 31.9841C76.9445 24.9888 74.9445 22.9901 67.9445 22.9901H31.9445C24.9445 22.9901 22.9445 24.9888 22.9445 31.9841V67.9603C22.9445 74.9557 24.9445 76.9544 31.9445 76.9544H67.9445C74.9445 76.9544 76.9445 74.9557 76.9445 67.9603V31.9841ZM71.9445 31.9841C71.9445 29.4858 70.4445 27.9868 67.9445 27.9868C65.4445 27.9868 63.9445 29.4858 63.9445 31.9841C63.9445 34.4825 65.4445 35.9815 67.9445 35.9815C70.4445 35.9815 71.9445 34.4825 71.9445 31.9841ZM68.9445 49.9722C68.9445 60.965 60.9445 68.9597 49.9445 68.9597C38.9445 68.9597 30.9445 60.965 30.9445 49.9722C30.9445 38.9795 38.9445 30.9848 49.9445 30.9848C60.9445 30.9848 68.9445 38.9795 68.9445 49.9722Z" fill="url(#paint1_radial_20_26)"/>
<path fill-rule="evenodd" clip-rule="evenodd" d="M8 82.9504C8 87.9471 11.9444 92 16.9444 92H82.9444C87.9444 92 92 87.9471 92 82.9504V16.9941C92 11.9974 87.9444 8 82.9444 8H16.9444C11.9444 8 8 11.9974 8 16.9941L8 82.9504ZM18.9445 27.9868C18.9445 22.9901 22.9445 18.9927 27.9445 18.9927H71.9445C76.9445 18.9927 80.9445 22.9901 80.9445 27.9868V71.9577C80.9445 76.9544 76.9445 80.9518 71.9445 80.9518H27.9445C22.9445 80.9518 18.9445 76.9544 18.9445 71.9577V27.9868Z" fill="url(#paint2_radial_20_26)"/>
<path fill-rule="evenodd" clip-rule="evenodd" d="M8 82.9504C8 87.9471 11.9444 92 16.9444 92H82.9444C87.9444 92 92 87.9471 92 82.9504V16.9941C92 11.9974 87.9444 8 82.9444 8H16.9444C11.9444 8 8 11.9974 8 16.9941L8 82.9504ZM18.9445 27.9868C18.9445 22.9901 22.9445 18.9927 27.9445 18.9927H71.9445C76.9445 18.9927 80.9445 22.9901 80.9445 27.9868V71.9577C80.9445 76.9544 76.9445 80.9518 71.9445 80.9518H27.9445C22.9445 80.9518 18.9445 76.9544 18.9445 71.9577V27.9868Z" fill="url(#paint3_radial_20_26)"/>
<path d="M49.9445 36.9808C41.9445 36.9808 36.9445 41.9775 36.9445 49.9722C36.9445 57.967 41.9445 62.9636 49.9445 62.9636C57.9445 62.9636 62.9445 57.967 62.9445 49.9722C62.9445 41.9775 57.9445 36.9808 49.9445 36.9808Z" fill="url(#paint4_radial_20_26)"/>
<path d="M49.9445 36.9808C41.9445 36.9808 36.9445 41.9775 36.9445 49.9722C36.9445 57.967 41.9445 62.9636 49.9445 62.9636C57.9445 62.9636 62.9445 57.967 62.9445 49.9722C62.9445 41.9775 57.9445 36.9808 49.9445 36.9808Z" fill="url(#paint5_radial_20_26)"/>
<path fill-rule="evenodd" clip-rule="evenodd" d="M49.9445 68.9597C60.9445 68.9597 68.9445 60.965 68.9445 49.9722C68.9445 38.9795 60.9445 30.9848 49.9445 30.9848C38.9445 30.9848 30.9445 38.9795 30.9445 49.9722C30.9445 60.965 38.9445 68.9597 49.9445 68.9597ZM36.9445 49.9722C36.9445 41.9775 41.9445 36.9808 49.9445 36.9808C57.9445 36.9808 62.9445 41.9775 62.9445 49.9722C62.9445 57.967 57.9445 62.9636 49.9445 62.9636C41.9445 62.9636 36.9445 57.967 36.9445 49.9722Z" fill="#F5F1CE"/>
<path d="M67.9445 27.9868C70.4445 27.9868 71.9445 29.4858 71.9445 31.9841C71.9445 34.4825 70.4445 35.9815 67.9445 35.9815C65.4445 35.9815 63.9445 34.4825 63.9445 31.9841C63.9445 29.4858 65.4445 27.9868 67.9445 27.9868Z" fill="#F5F1CE"/>
<path fill-rule="evenodd" clip-rule="evenodd" d="M27.9445 18.9927C22.9445 18.9927 18.9445 22.9901 18.9445 27.9868V71.9577C18.9445 76.9544 22.9445 80.9518 27.9445 80.9518H71.9445C76.9445 80.9518 80.9445 76.9544 80.9445 71.9577V27.9868C80.9445 22.9901 76.9445 18.9927 71.9445 18.9927H27.9445ZM67.9445 22.9901C74.9445 22.9901 76.9445 24.9888 76.9445 31.9841V67.9603C76.9445 74.9557 74.9445 76.9544 67.9445 76.9544H31.9445C24.9445 76.9544 22.9445 74.9557 22.9445 67.9603V31.9841C22.9445 24.9888 24.9445 22.9901 31.9445 22.9901H67.9445Z" fill="#F5F1CE"/>
<defs>
<radialGradient id="paint0_radial_20_26" cx="0" cy="0" r="1" gradientUnits="userSpaceOnUse" gradientTransform="translate(14.4445 -5.49108) rotate(81.0894) scale(109.753 109.749)">
<stop stop-color="#8122E8"/>
<stop offset="0.309662" stop-color="#EA39D4"/>
<stop offset="0.47391" stop-color="#EA39D4"/>
<stop offset="0.590839" stop-color="#EA434D"/>
<stop offset="0.747688" stop-color="#ED9B39"/>
<stop offset="0.853188" stop-color="#F7CE4B"/>
</radialGradient>
<radialGradient id="paint1_radial_20_26" cx="0" cy="0" r="1" gradientUnits="userSpaceOnUse" gradientTransform="translate(84.9445 54.4693) rotate(-37.0243) scale(66.3844 66.3285)">
<stop stop-color="#EB3970"/>
<stop offset="1" stop-color="#EA39D4" stop-opacity="0.1"/>
</radialGradient>
<radialGradient id="paint2_radial_20_26" cx="0" cy="0" r="1" gradientUnits="userSpaceOnUse" gradientTransform="translate(14.4445 -5.49108) rotate(81.0894) scale(109.753 109.749)">
<stop stop-color="#8122E8"/>
<stop offset="0.309662" stop-color="#EA39D4"/>
<stop offset="0.47391" stop-color="#EA39D4"/>
<stop offset="0.590839" stop-color="#EA434D"/>
<stop offset="0.747688" stop-color="#ED9B39"/>
<stop offset="0.853188" stop-color="#F7CE4B"/>
</radialGradient>
<radialGradient id="paint3_radial_20_26" cx="0" cy="0" r="1" gradientUnits="userSpaceOnUse" gradientTransform="translate(84.9445 54.4693) rotate(-37.0243) scale(66.3844 66.3285)">
<stop stop-color="#EB3970"/>
<stop offset="1" stop-color="#EA39D4" stop-opacity="0.1"/>
</radialGradient>
<radialGradient id="paint4_radial_20_26" cx="0" cy="0" r="1" gradientUnits="userSpaceOnUse" gradientTransform="translate(14.4445 -5.49108) rotate(81.0894) scale(109.753 109.749)">
<stop stop-color="#8122E8"/>
<stop offset="0.309662" stop-color="#EA39D4"/>
<stop offset="0.47391" stop-color="#EA39D4"/>
<stop offset="0.590839" stop-color="#EA434D"/>
<stop offset="0.747688" stop-color="#ED9B39"/>
<stop offset="0.853188" stop-color="#F7CE4B"/>
</radialGradient>
<radialGradient id="paint5_radial_20_26" cx="0" cy="0" r="1" gradientUnits="userSpaceOnUse" gradientTransform="translate(84.9445 54.4693) rotate(-37.0243) scale(66.3844 66.3285)">
<stop stop-color="#EB3970"/>
<stop offset="1" stop-color="#EA39D4" stop-opacity="0.1"/>
</radialGradient>
</defs>
</svg>
