<svg width="200" height="200" viewBox="0 0 200 200" fill="none" xmlns="http://www.w3.org/2000/svg">
<rect width="200" height="200" rx="30" fill="#D4E9F5"/>
<path fill-rule="evenodd" clip-rule="evenodd" d="M153.889 63.9683C153.889 49.9775 149.889 45.9802 135.889 45.9802H63.8889C49.8889 45.9802 45.8889 49.9775 45.8889 63.9683V135.921C45.8889 149.911 49.8889 153.909 63.8889 153.909H135.889C149.889 153.909 153.889 149.911 153.889 135.921V63.9683ZM143.889 63.9683C143.889 58.9716 140.889 55.9736 135.889 55.9736C130.889 55.9736 127.889 58.9716 127.889 63.9683C127.889 68.965 130.889 71.963 135.889 71.963C140.889 71.963 143.889 68.965 143.889 63.9683ZM137.889 99.9445C137.889 121.93 121.889 137.919 99.8889 137.919C77.8889 137.919 61.8889 121.93 61.8889 99.9445C61.8889 77.959 77.8889 61.9696 99.8889 61.9696C121.889 61.9696 137.889 77.959 137.889 99.9445Z" fill="url(#paint0_radial_22_30)"/>
<path fill-rule="evenodd" clip-rule="evenodd" d="M153.889 63.9683C153.889 49.9775 149.889 45.9802 135.889 45.9802H63.8889C49.8889 45.9802 45.8889 49.9775 45.8889 63.9683V135.921C45.8889 149.911 49.8889 153.909 63.8889 153.909H135.889C149.889 153.909 153.889 149.911 153.889 135.921V63.9683ZM143.889 63.9683C143.889 58.9716 140.889 55.9736 135.889 55.9736C130.889 55.9736 127.889 58.9716 127.889 63.9683C127.889 68.965 130.889 71.963 135.889 71.963C140.889 71.963 143.889 68.965 143.889 63.9683ZM137.889 99.9445C137.889 121.93 121.889 137.919 99.8889 137.919C77.8889 137.919 61.8889 121.93 61.8889 99.9445C61.8889 77.959 77.8889 61.9696 99.8889 61.9696C121.889 61.9696 137.889 77.959 137.889 99.9445Z" fill="url(#paint1_radial_22_30)"/>
<path fill-rule="evenodd" clip-rule="evenodd" d="M16 165.901C16 175.894 23.8889 184 33.8889 184H165.889C175.889 184 184 175.894 184 165.901V33.9881C184 23.9947 175.889 16 165.889 16H33.8889C23.8889 16 16 23.9947 16 33.9881L16 165.901ZM37.8889 55.9736C37.8889 45.9802 45.8889 37.9855 55.8889 37.9855H143.889C153.889 37.9855 161.889 45.9802 161.889 55.9736V143.915C161.889 153.909 153.889 161.904 143.889 161.904H55.8889C45.8889 161.904 37.8889 153.909 37.8889 143.915V55.9736Z" fill="url(#paint2_radial_22_30)"/>
<path fill-rule="evenodd" clip-rule="evenodd" d="M16 165.901C16 175.894 23.8889 184 33.8889 184H165.889C175.889 184 184 175.894 184 165.901V33.9881C184 23.9947 175.889 16 165.889 16H33.8889C23.8889 16 16 23.9947 16 33.9881L16 165.901ZM37.8889 55.9736C37.8889 45.9802 45.8889 37.9855 55.8889 37.9855H143.889C153.889 37.9855 161.889 45.9802 161.889 55.9736V143.915C161.889 153.909 153.889 161.904 143.889 161.904H55.8889C45.8889 161.904 37.8889 153.909 37.8889 143.915V55.9736Z" fill="url(#paint3_radial_22_30)"/>
<path d="M99.8889 73.9617C83.8889 73.9617 73.8889 83.9551 73.8889 99.9445C73.8889 115.934 83.8889 125.927 99.8889 125.927C115.889 125.927 125.889 115.934 125.889 99.9445C125.889 83.9551 115.889 73.9617 99.8889 73.9617Z" fill="url(#paint4_radial_22_30)"/>
<path d="M99.8889 73.9617C83.8889 73.9617 73.8889 83.9551 73.8889 99.9445C73.8889 115.934 83.8889 125.927 99.8889 125.927C115.889 125.927 125.889 115.934 125.889 99.9445C125.889 83.9551 115.889 73.9617 99.8889 73.9617Z" fill="url(#paint5_radial_22_30)"/>
<path fill-rule="evenodd" clip-rule="evenodd" d="M99.8889 137.919C121.889 137.919 137.889 121.93 137.889 99.9445C137.889 77.959 121.889 61.9696 99.8889 61.9696C77.8889 61.9696 61.8889 77.959 61.8889 99.9445C61.8889 121.93 77.8889 137.919 99.8889 137.919ZM73.8889 99.9445C73.8889 83.9551 83.8889 73.9617 99.8889 73.9617C115.889 73.9617 125.889 83.9551 125.889 99.9445C125.889 115.934 115.889 125.927 99.8889 125.927C83.8889 125.927 73.8889 115.934 73.8889 99.9445Z" fill="#F5F1CE"/>
<path d="M135.889 55.9736C140.889 55.9736 143.889 58.9716 143.889 63.9683C143.889 68.965 140.889 71.963 135.889 71.963C130.889 71.963 127.889 68.965 127.889 63.9683C127.889 58.9716 130.889 55.9736 135.889 55.9736Z" fill="#F5F1CE"/>
<path fill-rule="evenodd" clip-rule="evenodd" d="M55.8889 37.9855C45.8889 37.9855 37.8889 45.9802 37.8889 55.9736V143.915C37.8889 153.909 45.8889 161.904 55.8889 161.904H143.889C153.889 161.904 161.889 153.909 161.889 143.915V55.9736C161.889 45.9802 153.889 37.9855 143.889 37.9855H55.8889ZM135.889 45.9802C149.889 45.9802 153.889 49.9775 153.889 63.9683V135.921C153.889 149.911 149.889 153.909 135.889 153.909H63.8889C49.8889 153.909 45.8889 149.911 45.8889 135.921V63.9683C45.8889 49.9775 49.8889 45.9802 63.8889 45.9802H135.889Z" fill="#F5F1CE"/>
<defs>
<radialGradient id="paint0_radial_22_30" cx="0" cy="0" r="1" gradientUnits="userSpaceOnUse" gradientTransform="translate(28.8889 -10.9822) rotate(81.0894) scale(219.506 219.499)">
<stop stop-color="#8122E8"/>
<stop offset="0.309662" stop-color="#EA39D4"/>
<stop offset="0.47391" stop-color="#EA39D4"/>
<stop offset="0.590839" stop-color="#EA434D"/>
<stop offset="0.747688" stop-color="#ED9B39"/>
<stop offset="0.853188" stop-color="#F7CE4B"/>
</radialGradient>
<radialGradient id="paint1_radial_22_30" cx="0" cy="0" r="1" gradientUnits="userSpaceOnUse" gradientTransform="translate(169.889 108.939) rotate(-37.0243) scale(132.769 132.657)">
<stop stop-color="#EB3970"/>
<stop offset="1" stop-color="#EA39D4" stop-opacity="0.1"/>
</radialGradient>
<radialGradient id="paint2_radial_22_30" cx="0" cy="0" r="1" gradientUnits="userSpaceOnUse" gradientTransform="translate(28.8889 -10.9822) rotate(81.0894) scale(219.506 219.499)">
<stop stop-color="#8122E8"/>
<stop offset="0.309662" stop-color="#EA39D4"/>
<stop offset="0.47391" stop-color="#EA39D4"/>
<stop offset="0.590839" stop-color="#EA434D"/>
<stop offset="0.747688" stop-color="#ED9B39"/>
<stop offset="0.853188" stop-color="#F7CE4B"/>
</radialGradient>
<radialGradient id="paint3_radial_22_30" cx="0" cy="0" r="1" gradientUnits="userSpaceOnUse" gradientTransform="translate(169.889 108.939) rotate(-37.0243) scale(132.769 132.657)">
<stop stop-color="#EB3970"/>
<stop offset="1" stop-color="#EA39D4" stop-opacity="0.1"/>
</radialGradient>
<radialGradient id="paint4_radial_22_30" cx="0" cy="0" r="1" gradientUnits="userSpaceOnUse" gradientTransform="translate(28.8889 -10.9822) rotate(81.0894) scale(219.506 219.499)">
<stop stop-color="#8122E8"/>
<stop offset="0.309662" stop-color="#EA39D4"/>
<stop offset="0.47391" stop-color="#EA39D4"/>
<stop offset="0.590839" stop-color="#EA434D"/>
<stop offset="0.747688" stop-color="#ED9B39"/>
<stop offset="0.853188" stop-color="#F7CE4B"/>
</radialGradient>
<radialGradient id="paint5_radial_22_30" cx="0" cy="0" r="1" gradientUnits="userSpaceOnUse" gradientTransform="translate(169.889 108.939) rotate(-37.0243) scale(132.769 132.657)">
<stop stop-color="#EB3970"/>
<stop offset="1" stop-color="#EA39D4" stop-opacity="0.1"/>
</radialGradient>
</defs>
</svg>
