<svg width="100" height="100" viewBox="0 0 100 100" fill="none" xmlns="http://www.w3.org/2000/svg">
<rect width="100" height="100" rx="15" fill="#D4E9F5"/>
<path fill-rule="evenodd" clip-rule="evenodd" d="M8 82.9504C8 87.9471 11.9444 92 16.9444 92H82.9444C87.9444 92 92 87.9471 92 82.9504V16.9941C92 11.9974 87.9444 8 82.9444 8H16.9444C11.9444 8 8 11.9974 8 16.9941L8 82.9504ZM23.6825 75.7726V35.9894H33.3333V75.7726H23.6825ZM46.6032 75.7726H38.1587V53.4699V35.9894H46.6032V39.2571C49.1111 37.0364 52.0318 35.9894 57.4603 35.9894C63.8942 35.9894 76.7619 36.11 76.7619 53.4699V75.7726H68.3175V54.0727C68.3175 50.456 66.5079 44.4283 57.4603 44.4283C48.4127 44.4283 46.6032 51.0588 46.6032 54.0727V75.7726ZM28.5079 32.3728C25.4921 32.3728 23.6825 30.5644 23.6825 27.5506C23.6825 24.5367 25.4921 22.7284 28.5079 22.7284C31.5238 22.7284 33.3333 24.5367 33.3333 27.5506C33.3333 30.5644 31.5238 32.3728 28.5079 32.3728Z" fill="#346DBE"/>
<path d="M38.1587 75.7726H46.6032V54.0727C46.6032 51.0588 48.4127 44.4283 57.4603 44.4283C66.5079 44.4283 68.3175 50.456 68.3175 54.0727V75.7726H76.7619V53.4699C76.7619 36.11 63.8942 35.9894 57.4603 35.9894C52.0318 35.9894 49.1111 37.0364 46.6032 39.2571V35.9894H38.1587V53.4699V75.7726Z" fill="#F5F1CE"/>
<path d="M23.6825 35.9894V75.7726H33.3333V35.9894H23.6825Z" fill="#F5F1CE"/>
<path d="M23.6825 27.5506C23.6825 30.5644 25.4921 32.3728 28.5079 32.3728C31.5238 32.3728 33.3333 30.5644 33.3333 27.5506C33.3333 24.5367 31.5238 22.7284 28.5079 22.7284C25.4921 22.7284 23.6825 24.5367 23.6825 27.5506Z" fill="#F5F1CE"/>
</svg>
