<svg width="100" height="100" viewBox="0 0 100 100" fill="none" xmlns="http://www.w3.org/2000/svg">
<rect x="-0.000427246" y="-0.000854492" width="100" height="100" rx="15" fill="#D4E9F5"/>
<path d="M66.9999 69L73.9999 62L61.9999 50H79.9999V40H61.9999L73.9999 28.0001L66.9999 21.0001L54.9999 33.0001L54.9999 15.0001H44.9999V33.0001L33 21.0001L26 28.0001L37.9999 40H20V50H37.9999L26 62L33 69L49.9999 52L66.9999 69Z" fill="#2EC17F"/>
<path d="M44.9999 62H54.9999V85H44.9999V62Z" fill="#2EC17F"/>
<path fill-rule="evenodd" clip-rule="evenodd" d="M50 92C71 92 91.9999 75 92 50C92 25 71 8 50 8C29 8 8.00002 25 8 50C7.99998 75 29 92 50 92ZM73.9999 62L66.9999 69L49.9999 52L33 69L26 62L37.9999 50H20V40H37.9999L26 28.0001L33 21.0001L44.9999 33.0001V15.0001H54.9999L54.9999 33.0001L66.9999 21.0001L73.9999 28.0001L61.9999 40H79.9999V50H61.9999L73.9999 62ZM54.9999 62H44.9999V85H54.9999V62Z" fill="black"/>
</svg>
