<svg width="200" height="200" viewBox="0 0 200 200" fill="none" xmlns="http://www.w3.org/2000/svg">
<rect width="200" height="200" rx="30" fill="#D4E9F5"/>
<path fill-rule="evenodd" clip-rule="evenodd" d="M16 165.901C16 175.894 23.8889 184 33.8889 184H165.889C175.889 184 184 175.894 184 165.901V33.9881C184 23.9947 175.889 16 165.889 16H33.8889C23.8889 16 16 23.9947 16 33.9881L16 165.901ZM47.3651 151.545V71.9789H66.6667V151.545H47.3651ZM93.2064 151.545H76.3175V106.94V71.9789H93.2064V78.5142C98.2222 74.0727 104.064 71.9789 114.921 71.9789C127.788 71.9789 153.524 72.22 153.524 106.94V151.545H136.635V108.145C136.635 100.912 133.016 88.8566 114.921 88.8566C96.8254 88.8566 93.2064 102.118 93.2064 108.145V151.545ZM57.0159 64.7455C50.9841 64.7455 47.3651 61.1289 47.3651 55.1011C47.3651 49.0734 50.9841 45.4567 57.0159 45.4567C63.0476 45.4567 66.6667 49.0734 66.6667 55.1011C66.6667 61.1289 63.0476 64.7455 57.0159 64.7455Z" fill="#346DBE"/>
<path d="M76.3175 151.545H93.2064V108.145C93.2064 102.118 96.8254 88.8566 114.921 88.8566C133.016 88.8566 136.635 100.912 136.635 108.145V151.545H153.524V106.94C153.524 72.22 127.788 71.9789 114.921 71.9789C104.064 71.9789 98.2222 74.0727 93.2064 78.5142V71.9789H76.3175V106.94V151.545Z" fill="#F5F1CE"/>
<path d="M47.3651 71.9789V151.545H66.6667V71.9789H47.3651Z" fill="#F5F1CE"/>
<path d="M47.3651 55.1011C47.3651 61.1289 50.9841 64.7455 57.0159 64.7455C63.0476 64.7455 66.6667 61.1289 66.6667 55.1011C66.6667 49.0734 63.0476 45.4567 57.0159 45.4567C50.9841 45.4567 47.3651 49.0734 47.3651 55.1011Z" fill="#F5F1CE"/>
</svg>
