<svg width="200" height="200" viewBox="0 0 200 200" fill="none" xmlns="http://www.w3.org/2000/svg">
<rect width="200" height="200" rx="30" fill="#D4E9F5"/>
<path d="M134.001 138.002L148.001 124.002L124.001 100.002H160.001V80.0018H124.001L148.001 56.0019L134.001 42.0019L110.001 66.0019L110.001 30.002H90.0009V66.0019L66.0009 42.0019L52.0009 56.0019L76.0009 80.0018H40.001V100.002H76.0009L52.0009 124.002L66.0009 138.002L100.001 104.002L134.001 138.002Z" fill="#2EC17F"/>
<path d="M90.0009 124.002H110.001V170.002H90.0009V124.002Z" fill="#2EC17F"/>
<path fill-rule="evenodd" clip-rule="evenodd" d="M100.001 184.002C142.001 184.002 184.001 150.002 184.001 100.002C184.001 50.0017 142.001 16.0017 100.001 16.0017C58.001 16.0017 16.001 50.0017 16.001 100.002C16.0009 150.002 58.0009 184.002 100.001 184.002ZM148.001 124.002L134.001 138.002L100.001 104.002L66.0009 138.002L52.0009 124.002L76.0009 100.002H40.001V80.0018H76.0009L52.0009 56.0019L66.0009 42.0019L90.0009 66.0019V30.002H110.001L110.001 66.0019L134.001 42.0019L148.001 56.0019L124.001 80.0018H160.001V100.002H124.001L148.001 124.002ZM110.001 124.002H90.0009V170.002H110.001V124.002Z" fill="black"/>
</svg>
