<svg width="504" height="204" viewBox="0 0 504 204" fill="none" xmlns="http://www.w3.org/2000/svg">
<path d="M43.5424 42.6177C44.82 42.2525 46.092 43.2118 46.092 44.5407V51.5556C65.4172 41.8889 91.184 35.4444 120.172 29L109.437 4.83635C108.166 1.97497 105.149 0.305752 102.049 0.748732L20.1886 12.4481C18.5044 12.6888 17.3572 14.2804 17.6614 15.9543L23.1513 46.1612C23.3627 47.3246 24.5318 48.0516 25.6687 47.7266L43.5424 42.6177Z" fill="#283963"/>
<path d="M17.6614 164.49C17.3572 166.164 18.5044 167.756 20.1886 167.996L102.049 179.696C105.149 180.139 108.163 178.477 109.434 175.615C112.122 169.565 116.786 159.067 120.172 151.444C91.184 145 65.4172 138.556 46.092 128.889V135.904C46.092 137.233 44.82 138.192 43.5424 137.827L25.6687 132.718C24.5318 132.393 23.3627 133.12 23.1513 134.283L17.6614 164.49Z" fill="#283963"/>
<path d="M309.748 203C335.184 203 352.585 200.99 358.778 200.145C360.231 199.947 361.282 198.703 361.282 197.237V190.111C361.282 190.111 355.011 191.665 345.822 192.614C345.732 192.624 345.65 192.633 345.57 192.642C345.502 192.65 345.436 192.658 345.366 192.666C345.306 192.672 345.245 192.679 345.178 192.685C341.305 193.066 336.933 193.333 332.294 193.333C332.294 193.333 330.899 193.333 329.718 193.333C329.48 193.333 329.284 193.333 329.074 193.333C323.719 193.333 315.34 193.333 312.969 193.333C312.556 193.333 312.325 193.333 312.325 193.333H296.865V180.444C296.865 180.444 306.036 180.444 312.325 180.444C312.542 180.444 312.757 180.444 312.969 180.444C318.905 180.444 323.002 180.444 329.074 180.444C329.284 180.444 329.48 180.444 329.718 180.444C330.899 180.444 332.294 180.444 332.294 180.444C336.933 180.444 341.305 180.177 345.178 179.796C345.307 179.784 345.418 179.771 345.529 179.758C345.623 179.747 345.716 179.736 345.822 179.726C355.011 178.776 361.282 177.222 361.282 177.222V174C322.632 177.222 290.423 177.026 254.994 174L257.66 195.339C257.989 197.973 260.011 200.066 262.644 200.397C270.084 201.333 286.585 203 309.748 203Z" fill="#283963"/>
<path fill-rule="evenodd" clip-rule="evenodd" d="M361.282 190.111V177.222C361.282 177.222 355.011 178.776 345.822 179.726V192.614C355.011 191.665 361.282 190.111 361.282 190.111ZM345.178 192.685C341.305 193.066 336.933 193.333 332.294 193.333H329.718C329.718 188.3 329.718 185.478 329.718 180.444H332.294C336.933 180.444 341.305 180.177 345.178 179.796V192.685ZM312.969 193.333H329.074V180.444H312.969V193.333ZM312.325 180.444H296.865V193.333H312.325C312.325 190.817 312.325 189.406 312.325 186.889V180.444Z" fill="white"/>
<path d="M312.325 180.444V186.889V193.333H312.969V180.444H312.325Z" fill="#283963"/>
<path d="M329.074 180.444V193.333H329.718V180.444H329.074Z" fill="#283963"/>
<path d="M345.178 179.796V192.685L345.366 192.666L345.57 192.642L345.822 192.614V179.726C345.716 179.736 345.623 179.747 345.529 179.758C345.418 179.771 345.307 179.784 345.178 179.796Z" fill="#283963"/>
<path d="M120.172 90.2222C120.172 91.112 119.45 91.8333 118.561 91.8333H18.7154C17.8256 91.8333 17.1043 91.112 17.1043 90.2222V90.2222C17.1043 89.3324 17.8256 88.6111 18.7154 88.6111H118.561C119.45 88.6111 120.172 89.3324 120.172 90.2222V90.2222Z" fill="#283963"/>
<path d="M445 90.2222C445 62.4445 460 36.3102 460 36.3102C459.834 36.2072 459.667 36.1024 459.5 36C449.5 55.5 444.5 73.1953 444.5 90.2222C444.5 111 452 130.5 459.544 144.415C459.696 144.322 459.848 144.228 460 144.134C460 144.134 445 118 445 90.2222Z" fill="#BEC3CE"/>
<path d="M462 46L503 90.2222L483 68L462 46Z" fill="#BEC3CE"/>
<path d="M458 66L503 90.2222L480.5 77.5L458 66Z" fill="#BEC3CE"/>
<path d="M477 90.5L503 90.2222L477 90L453 90.2222L477 90.5Z" fill="#BEC3CE"/>
<path d="M503 90.2222L458 114L481.5 102L503 90.2222Z" fill="#BEC3CE"/>
<path fill-rule="evenodd" clip-rule="evenodd" d="M361.282 6.44444C396.933 10.0111 432.585 19.4973 459.5 36C449.5 55.5 444.5 73.1953 444.5 90.2222C444.5 111 452 130.5 459.544 144.415C432.623 160.935 396.953 170.431 361.282 174C322.632 177.222 290.423 177.026 254.994 174C252.198 173.761 249.302 173.52 246.305 173.27C211.311 170.355 168 162.077 120.172 151.444C91.184 145 65.4172 138.556 46.092 128.889C26.7669 119.222 10.6626 109.556 1 90.2222C10.6626 70.8889 26.7669 61.2222 46.092 51.5556C65.4172 41.8889 91.184 35.4444 120.172 29C159 20 219.564 9.66667 254.994 6.44444C290.423 3.22222 322.632 3.22222 361.282 6.44444ZM445 90.2222C445 62.4445 460 36.3102 460 36.3102C481.463 49.593 497.291 67.3768 503 90.2222L483 68L462 46L503 90.2222L480.5 77.5L458 66L503 90.2222L477 90L453 90.2222L477 90.5L503 90.2222L458 114L481.5 102L503 90.2222L462 134L483 112L503 90.2222C497.291 113.068 481.463 130.851 460 144.134C460 144.134 445 118 445 90.2222ZM17.1043 90.2222C17.1043 91.112 17.8256 91.8333 18.7154 91.8333H118.561C119.45 91.8333 120.172 91.112 120.172 90.2222V90.2222C120.172 89.3324 119.45 88.6111 118.561 88.6111H18.7154C17.8256 88.6111 17.1043 89.3324 17.1043 90.2222V90.2222Z" fill="white"/>
<path d="M503 90.2222L462 134L483 112L503 90.2222Z" fill="#BEC3CE"/>
<path d="M503 90.2222C497.291 67.3768 481.463 49.593 460 36.3102M503 90.2222C497.291 113.068 481.463 130.851 460 144.134M503 90.2222L462 46L483 68L503 90.2222ZM503 90.2222L462 134L483 112L503 90.2222ZM503 90.2222L458 114L481.5 102L503 90.2222ZM503 90.2222L458 66L480.5 77.5L503 90.2222ZM503 90.2222L477 90.5L453 90.2222L477 90L503 90.2222ZM361.282 174C322.632 177.222 290.423 177.026 254.994 174M361.282 174V177.222M361.282 174C396.953 170.431 432.623 160.935 459.544 144.415M254.994 174L257.66 195.339C257.989 197.973 260.011 200.066 262.644 200.397C270.084 201.333 286.585 203 309.748 203C335.184 203 352.585 200.99 358.778 200.145C360.231 199.947 361.282 198.703 361.282 197.237V190.111M254.994 174C252.198 173.761 249.302 173.52 246.305 173.27C211.311 170.355 168 162.077 120.172 151.444M46.092 51.5556C26.7669 61.2222 10.6626 70.8889 1 90.2222C10.6626 109.556 26.7669 119.222 46.092 128.889M46.092 51.5556V44.5407C46.092 43.2118 44.82 42.2525 43.5424 42.6177L25.6687 47.7266C24.5318 48.0516 23.3627 47.3246 23.1513 46.1612L17.6614 15.9543C17.3572 14.2804 18.5044 12.6888 20.1886 12.4481L102.049 0.748732C105.149 0.305752 108.166 1.97497 109.437 4.83635L120.172 29M46.092 51.5556C65.4172 41.8889 91.184 35.4444 120.172 29M120.172 29C159 20 219.564 9.66667 254.994 6.44444C290.423 3.22222 322.632 3.22222 361.282 6.44444C396.933 10.0111 432.585 19.4973 459.5 36M120.172 151.444C91.184 145 65.4172 138.556 46.092 128.889M120.172 151.444C116.786 159.067 112.122 169.565 109.434 175.615C108.163 178.477 105.149 180.139 102.049 179.696L20.1886 167.996C18.5044 167.756 17.3572 166.164 17.6614 164.49L23.1513 134.283C23.3627 133.12 24.5318 132.393 25.6687 132.718L43.5424 137.827C44.82 138.192 46.092 137.233 46.092 135.904V128.889M361.282 190.111V177.222M361.282 190.111C361.282 190.111 355.011 191.665 345.822 192.614M332.294 193.333C336.933 193.333 341.305 193.066 345.178 192.685M332.294 193.333C331.455 193.333 330.572 193.333 329.718 193.333M332.294 193.333C332.294 193.333 330.899 193.333 329.718 193.333M332.294 193.333H329.718M296.865 193.333V180.444M296.865 193.333C296.865 193.333 303.231 193.333 312.325 193.333M296.865 193.333H312.325M296.865 180.444C296.865 180.444 306.036 180.444 312.325 180.444M296.865 180.444C296.865 180.444 303.875 180.444 312.969 180.444M296.865 180.444H312.325M332.294 180.444C336.933 180.444 341.305 180.177 345.178 179.796M332.294 180.444C331.455 180.444 330.572 180.444 329.718 180.444M332.294 180.444C332.294 180.444 330.899 180.444 329.718 180.444M332.294 180.444H329.718M361.282 177.222C361.282 177.222 355.011 178.776 345.822 179.726M345.178 179.796C345.178 184.83 345.178 187.652 345.178 192.685M345.178 179.796C345.307 179.784 345.418 179.771 345.529 179.758C345.623 179.747 345.716 179.736 345.822 179.726M345.178 179.796V192.685M345.178 192.685C345.245 192.679 345.306 192.672 345.366 192.666M345.178 192.685L345.366 192.666M329.074 180.444C329.074 185.478 329.074 188.3 329.074 193.333M329.074 180.444C323.002 180.444 318.905 180.444 312.969 180.444M329.074 180.444C323.622 180.444 317.979 180.444 312.969 180.444M329.074 180.444C329.3 180.444 329.492 180.444 329.718 180.444M329.074 180.444C329.284 180.444 329.48 180.444 329.718 180.444M329.074 180.444H329.718M329.074 180.444H312.969M329.074 180.444V193.333M329.074 193.333C323.719 193.333 315.34 193.333 312.969 193.333M329.074 193.333C323.853 193.333 317.867 193.333 312.969 193.333M329.074 193.333C329.3 193.333 329.492 193.333 329.718 193.333M329.074 193.333C329.284 193.333 329.48 193.333 329.718 193.333M329.074 193.333H329.718M329.074 193.333H312.969M312.325 180.444C312.325 182.961 312.325 186.889 312.325 186.889M312.325 180.444C312.542 180.444 312.757 180.444 312.969 180.444M312.325 180.444H312.969M312.325 180.444V186.889M312.325 193.333C312.325 190.817 312.325 189.406 312.325 186.889M312.325 193.333C312.325 193.333 312.556 193.333 312.969 193.333M312.325 193.333C312.538 193.333 312.752 193.333 312.969 193.333M312.325 193.333H312.969M312.325 193.333V186.889M312.969 193.333V180.444M329.718 193.333C329.718 188.3 329.718 185.478 329.718 180.444M329.718 193.333V180.444M345.822 192.614V179.726M345.822 192.614C345.732 192.624 345.65 192.633 345.57 192.642M345.822 192.614L345.57 192.642M345.57 192.642C345.502 192.65 345.436 192.658 345.366 192.666M345.57 192.642L345.366 192.666M460 36.3102C460 36.3102 445 62.4445 445 90.2222C445 118 460 144.134 460 144.134M460 36.3102C459.834 36.2072 459.667 36.1024 459.5 36M460 144.134C459.848 144.228 459.696 144.322 459.544 144.415M459.5 36C449.5 55.5 444.5 73.1953 444.5 90.2222C444.5 111 452 130.5 459.544 144.415M18.7154 88.6111H118.561C119.45 88.6111 120.172 89.3324 120.172 90.2222V90.2222C120.172 91.112 119.45 91.8333 118.561 91.8333H18.7154C17.8256 91.8333 17.1043 91.112 17.1043 90.2222V90.2222C17.1043 89.3324 17.8256 88.6111 18.7154 88.6111Z" stroke="black" stroke-width="0.05"/>
</svg>
