<svg width="502" height="252" viewBox="0 0 502 252" fill="none" xmlns="http://www.w3.org/2000/svg">
<path d="M501 103.823C478.612 69.5484 399.01 1 259.706 1C112.443 1 25.8756 69.5484 1 103.823C15.5122 132.158 67.3883 182.78 170.154 201.485C196.567 206.292 226.341 208.991 259.706 208.661C298.072 208.282 331.048 204.181 359.209 197.683C450.828 176.543 491.486 130.039 501 103.823Z" fill="#8E7B9A"/>
<path d="M259.706 208.661C226.341 208.991 196.567 206.292 170.154 201.485L180.104 242.935C188.396 245.624 215.925 251 259.706 251C303.488 251 337.65 245.624 349.259 242.935L359.209 197.683C331.048 204.181 298.072 208.282 259.706 208.661Z" fill="#534F56"/>
<path d="M170.154 201.485C196.567 206.292 226.341 208.991 259.706 208.661C298.072 208.282 331.048 204.181 359.209 197.683M170.154 201.485C67.3883 182.78 15.5122 132.158 1 103.823C25.8756 69.5484 112.443 1 259.706 1C399.01 1 478.612 69.5484 501 103.823C491.486 130.039 450.828 176.543 359.209 197.683M170.154 201.485L180.104 242.935C188.396 245.624 215.925 251 259.706 251C303.488 251 337.65 245.624 349.259 242.935L359.209 197.683" stroke="black"/>
</svg>
