<svg width="700" height="237" viewBox="0 0 700 237" fill="none" xmlns="http://www.w3.org/2000/svg">
<path fill-rule="evenodd" clip-rule="evenodd" d="M366.554 1.18565e-05H397.297C409.122 3.85337e-05 413.851 10.6251 413.851 16.528V21.2503C413.851 34.2365 403.209 37.7783 403.209 37.7783L413.851 61.3898H399.662L390.203 37.7783H378.378V61.3898H366.554V1.18565e-05ZM397.297 28.3338H378.378V9.44459H397.297L402.027 14.1669V23.6115L397.297 28.3338Z" fill="#211F20"/>
<path d="M425.676 61.3898V1.18565e-05H441.047L456.419 41.3201L471.791 1.18565e-05H487.162V61.3898H475.338V18.8892L461.149 61.3898H451.689L437.5 18.8892V61.3898H425.676Z" fill="#211F20"/>
<path d="M496.622 1.18565e-05L515.541 33.056V61.3898H529.73V33.056L548.649 1.18565e-05H534.459L522.635 23.6115L510.811 1.18565e-05H496.622Z" fill="#211F20"/>
<path fill-rule="evenodd" clip-rule="evenodd" d="M319.257 1.18565e-05H333.446L354.73 61.3898H342.905L338.176 47.2229H314.527L309.797 61.3898H297.973L319.257 1.18565e-05ZM318.074 37.7783L326.351 14.1669L334.628 37.7783H318.074Z" fill="#211F20"/>
<path d="M352.365 108.613V103.89C352.365 96.807 345.27 88.543 338.176 87.3624C331.081 86.1818 323.986 86.1818 316.892 87.3624C309.797 88.543 304.595 94.4458 302.703 99.1681C297.973 110.974 297.973 125.141 302.703 136.946C304.595 141.669 309.134 147.646 316.892 148.752C325.169 149.933 329.899 149.933 338.176 148.752C346.453 147.572 352.365 139.308 352.365 132.224V127.502H340.541V129.863C340.541 134.585 338.176 136.946 333.446 138.127C328.716 139.308 323.986 139.308 319.257 138.127C314.527 136.946 312.162 129.863 312.162 122.78V113.335C312.162 106.252 314.527 99.168 319.257 97.9875C323.986 96.807 328.716 96.8069 333.446 97.9875C338.176 99.1681 340.541 101.529 340.541 106.252V108.613H352.365Z" fill="#211F20"/>
<path d="M361.824 87.3624V96.807H371.284V139.308H361.824V148.752H390.203V139.308H380.743V96.807H390.203V87.3624H361.824Z" fill="#211F20"/>
<path d="M397.297 87.3624L416.216 148.752H432.77L450.507 87.3624H437.5L424.493 132.224L411.486 87.3624H397.297Z" fill="#211F20"/>
<path d="M456.419 96.807H465.878V139.308H456.419V148.752H487.162V139.308H477.703V96.807H487.162V87.3624H456.419V96.807Z" fill="#211F20"/>
<path d="M352.365 195.975V191.253C352.365 184.169 345.27 175.905 338.176 174.725C331.081 173.544 323.986 173.544 316.892 174.725C309.797 175.905 304.595 181.808 302.703 186.53C297.973 198.336 297.973 212.503 302.703 224.309C304.595 229.031 309.134 235.008 316.892 236.115C325.169 237.295 329.899 237.295 338.176 236.115C346.453 234.934 352.365 226.67 352.365 219.587V214.864H340.541V217.225C340.541 221.948 338.176 224.309 333.446 225.489C328.716 226.67 323.986 226.67 319.257 225.489C314.527 224.309 312.162 217.225 312.162 210.142V200.697C312.162 193.614 314.527 186.53 319.257 185.35C323.986 184.169 328.716 184.169 333.446 185.35C338.176 186.53 340.541 188.892 340.541 193.614V195.975H352.365Z" fill="#211F20"/>
<path fill-rule="evenodd" clip-rule="evenodd" d="M380.743 174.725H394.932L416.216 236.115H404.392L399.662 221.948H376.014L371.284 236.115H359.459L380.743 174.725ZM379.561 212.503L387.838 188.892L396.115 212.503H379.561Z" fill="#211F20"/>
<path fill-rule="evenodd" clip-rule="evenodd" d="M425.676 174.725H456.419C468.243 174.725 472.973 185.35 472.973 191.253V195.975C472.973 208.961 462.331 212.503 462.331 212.503L472.973 236.115H458.784L449.324 212.503H437.5V236.115H425.676V174.725ZM456.419 203.059H437.5V184.169H456.419L461.149 188.892V198.336L456.419 203.059Z" fill="#211F20"/>
<path d="M484.797 174.725V236.115H529.73V226.67H496.622V210.142H525V200.697H496.622V184.169H529.73V174.725H484.797Z" fill="#211F20"/>
<path d="M539.189 174.725V236.115H584.122V226.67H551.013V210.142H579.392V200.697H551.013V184.169H584.122V174.725H539.189Z" fill="#211F20"/>
<path fill-rule="evenodd" clip-rule="evenodd" d="M595.946 174.725H626.689C638.513 174.725 643.243 185.35 643.243 191.253V195.975C643.243 208.961 632.601 212.503 632.601 212.503L643.243 236.115H629.054L619.595 212.503H607.77V236.115H595.946V174.725ZM626.689 203.059H607.77V184.169H626.689L631.419 188.892V198.336L626.689 203.059Z" fill="#211F20"/>
<path d="M652.703 217.225V221.948L655.068 229.031L659.797 233.753L666.892 236.115H685.811L692.905 233.753L697.635 229.031L700 221.948V212.503L697.635 207.781L695.27 205.42L690.541 201.878L683.446 200.697L673.986 199.517L669.257 198.336L665.709 195.975L664.527 193.614V188.892L666.892 186.531L671.622 184.169H681.081L685.811 188.892V193.614H697.635V188.892L695.27 181.808L690.541 177.086L683.446 174.725H669.257L662.162 177.086L655.068 181.808L652.703 186.531V198.336L655.068 203.059L662.162 207.781L671.622 210.142H678.716L685.811 212.503L688.176 217.225V221.948L685.811 224.309L681.081 226.67H671.622L666.892 225.489L664.527 221.948V217.225H652.703Z" fill="#211F20"/>
<path fill-rule="evenodd" clip-rule="evenodd" d="M581.757 148.752H593.581L598.311 134.585H621.959L626.689 148.752H640.878L617.23 87.3624H603.041L581.757 148.752ZM618.412 125.141H601.858L610.135 101.529L618.412 125.141Z" fill="#211F20"/>
<path d="M650.338 148.752H662.162V108.613L685.811 148.752H697.635V87.3624H685.811V127.502L662.162 87.3624H650.338V148.752Z" fill="#211F20"/>
<path d="M546.284 139.308V148.752H574.662V139.308H565.203V96.807H574.662V87.3624H546.284V96.807H555.743V139.308H546.284Z" fill="#211F20"/>
<path d="M496.622 87.3624V148.752H536.824V139.308H508.446V87.3624H496.622Z" fill="#211F20"/>
<path fill-rule="evenodd" clip-rule="evenodd" d="M0 89.7235H94.5946L124.155 1.18565e-05L153.716 89.7235H248.311L172.635 147.572L201.014 236.115L124.155 181.808L47.2973 236.115L75.6757 147.572L0 89.7235ZM111.149 110.974H66.2162L101.689 139.308L89.8649 179.447L124.155 153.474L158.446 179.447L146.622 139.308L182.095 110.974H137.162L124.155 70.8344L111.149 110.974Z" fill="#FFCC01"/>
</svg>
