<svg width="444" height="200" viewBox="0 0 444 200" fill="none" xmlns="http://www.w3.org/2000/svg">
<path d="M63.037 59.5245H87.7037C87.7037 59.5245 89.0741 67.7348 84.963 75.9451C79.4815 86.8921 71.1396 91.4932 60.2963 95.1022C52.0741 97.8388 41.11 97.8386 32.8889 95.1022C9.73425 87.3951 4.70917e-05 70.8171 1.70858e-10 48.5775C-4.70915e-05 26.3379 9.7344 9.7602 32.8889 2.05264C41.1111 -0.684339 52.0741 -0.684137 60.2963 2.05279C71.1395 5.66216 79.4815 10.263 84.963 21.21C89.0741 29.4202 87.7037 37.6305 87.7037 37.6305H63.037C63.037 37.6305 63.037 32.1569 57.5556 26.6834C52.0741 21.2099 38.3704 21.2099 32.8889 32.1569C27.4074 43.1039 27.4074 54.051 32.8889 64.998C38.3704 75.945 52.0741 75.945 57.5556 70.4715C63.037 64.998 63.037 59.5245 63.037 59.5245Z" fill="#00468C"/>
<path fill-rule="evenodd" clip-rule="evenodd" d="M98.6667 2.05264V95.1022H148C171.571 95.1022 186.37 73.2085 186.37 48.5775C186.37 23.9466 171.572 2.05252 148 2.05264H98.6667ZM126.074 70.4714V26.6834H142.519C153.222 26.6834 158.963 37.8898 158.963 48.5775C158.963 59.2652 153.222 70.4713 142.519 70.4714H126.074Z" fill="#00468C"/>
<path d="M197.333 95.1022V2.05264H238.444L252.148 56.7877L265.852 2.05264L306.963 2.05257V84.1552H276.815V40.3671L265.852 95.1022L238.444 95.1022L227.481 40.3671V95.1022L197.333 95.1022Z" fill="#00468C"/>
<path d="M276.815 116.996V193.625H306.963V116.996H276.815Z" fill="#00468C"/>
<path d="M315.185 92.3655V177.205C315.185 188.152 320.667 196.362 334.37 196.362C350.815 196.362 356.296 193.625 356.296 193.625V174.468C356.296 174.468 342.593 177.205 342.593 168.995V138.89H356.296V116.996H342.593V92.3655H315.185Z" fill="#00468C"/>
<path d="M367.259 84.1552V193.625H394.667V149.837C394.667 141.627 400.148 138.89 405.63 138.89C411.111 138.89 416.593 141.627 416.593 149.837V193.625H444V138.89C444 125.207 435.778 114.259 422.074 114.259C402.889 114.259 394.667 125.207 394.667 125.207V84.1552H367.259Z" fill="#00468C"/>
<path d="M137.037 116.996V193.625H164.444V149.837C164.444 141.627 169.926 138.89 175.407 138.89C180.889 138.89 186.37 141.627 186.37 149.837V193.625H213.778V149.837C213.778 141.627 219.259 138.89 224.741 138.89C230.222 138.89 235.704 141.627 235.704 149.837V193.625H265.852V138.89C265.852 127.943 257.63 114.259 238.444 114.259C219.259 114.259 211.037 127.943 211.037 127.943C211.037 127.943 208.296 114.259 189.111 114.259C169.926 114.259 164.444 127.943 164.444 127.943V116.996H137.037Z" fill="#00468C"/>
<path d="M126.074 130.68V125.207C126.074 119.733 120.593 106.049 98.6667 100.576C93.1852 99.2073 76.7407 99.2073 71.2593 100.576C63.037 102.628 52.0741 106.049 46.5926 122.47C44.7926 127.862 44.7654 133.417 46.5926 138.89C48.4198 144.364 51.7063 150.785 63.037 155.311C76.7407 160.784 98.6667 158.048 98.6667 168.995C98.6667 174.468 93.1852 179.942 82.2222 177.205C74 175.152 74 166.258 74 166.258H43.8519C43.8519 171.731 43.8519 193.625 76.7407 199.099C83.9138 200.293 90.1901 200.308 98.6667 199.099C117.852 196.362 128.815 185.415 128.815 166.258C128.815 147.101 112.37 138.108 98.6667 136.154C93.1852 135.372 76.7407 136.154 76.7407 127.943C76.7407 125.207 79.4815 122.47 84.963 122.47C95.9259 122.47 95.9259 130.68 95.9259 130.68H126.074Z" fill="#00468C"/>
<path d="M276.815 92.3655V108.786H306.963V92.3655H276.815Z" fill="#7AC142"/>
</svg>
