<svg width="787" height="175" viewBox="0 0 787 175" fill="none" xmlns="http://www.w3.org/2000/svg">
<path d="M267.276 74.1557C263.013 70.0498 257.329 67.748 251.398 67.8724C240.709 67.8724 232.677 76.3953 232.677 87.4689C232.677 98.5425 240.833 107.065 251.892 107.065C256.958 107.065 262.519 105.635 266.164 103.271V92.508H250.224V84.4206H274.937V107.563C269.686 112.416 260.109 115.464 251.892 115.464C236.014 115.464 223.657 103.022 223.657 87.5311C223.595 72.165 235.89 59.6605 251.151 59.5983C251.212 59.5983 251.336 59.5983 251.398 59.5983C260.109 59.5983 267.647 62.7089 273.084 67.9346L267.276 74.1557ZM301.134 91.2638V105.883H332.829V114.033H292.237V60.9047H332.829V69.0544H301.134V83.1763H327.948V91.326L301.134 91.2638ZM365.265 60.9047H374.903L392.697 103.333L410.491 60.9047H419.696L397.084 114.033H387.878L365.265 60.9047ZM440.27 91.2638V105.883H471.965V114.033H431.373V60.9047H471.965V69.0544H440.27V83.1763H467.084V91.326L440.27 91.2638ZM524.42 114.033L512.99 94.0633H497.482V114.033H488.585V60.9047H516.697C527.015 60.9047 534.676 68.059 534.676 77.5151C534.676 85.1049 529.733 91.2016 522.504 93.3168L534.676 114.033H524.42ZM525.655 77.5151C525.655 72.2272 522.257 68.9922 516.697 68.9922H497.482V85.9136H516.697C522.257 85.9136 525.655 82.7409 525.655 77.5151ZM551.728 60.9047H561.057L590.59 100.284V60.9047H599.301V114.033H590.343L560.439 74.4046V114.033H551.728V60.9047ZM615.18 87.4689C615.18 71.9783 627.598 59.4117 642.982 59.3495C658.367 59.3495 670.847 71.8539 670.909 87.3445C670.909 102.835 658.49 115.402 643.106 115.464H643.044C627.722 115.526 615.242 103.084 615.18 87.6555C615.18 87.5933 615.18 87.5311 615.18 87.4689ZM661.888 87.4689C661.888 76.3953 653.671 67.8724 643.044 67.8724C632.417 67.8724 624.2 76.3953 624.2 87.4689C624.2 98.5425 632.417 107.128 643.044 107.128C653.671 107.128 661.888 98.5425 661.888 87.4689ZM677.396 60.9047H687.034L704.828 103.333L722.621 60.9047H731.827L709.214 114.033H700.009L677.396 60.9047ZM787 114.033H777.424L771.863 100.658H746.841L741.28 114.033H732.198L754.811 60.9047H764.449L787 114.033ZM768.465 92.5702L759.383 70.5475L750.3 92.5702H768.465ZM106.206 64.6996C106.206 54.7458 112.879 45.1031 116.524 46.9072C120.664 49.0224 113.373 58.4163 106.206 64.6996ZM60.7336 68.3701C60.7336 60.3448 68.5801 45.1653 73.3374 46.7828C79.0215 48.6491 68.6419 63.9531 60.7336 68.3701ZM52.7635 125.542C49.18 125.729 46.7705 123.365 46.7705 119.508C46.7705 109.056 61.1043 99.1646 71.9164 93.8144C70.0011 108.372 65.1202 124.982 52.7635 125.542ZM118.934 91.6371C110.778 91.6371 104.476 97.6715 104.476 104.95C104.476 110.985 108.06 115.837 112.879 115.837C114.547 115.837 116.215 114.842 116.215 112.664C116.215 109.492 112.076 108.745 112.385 104.017C112.57 100.907 115.474 98.8535 118.378 98.8535C124.124 98.8535 126.842 104.515 126.842 110.3C126.595 119.259 120.046 125.48 112.385 125.48C102.252 125.48 95.8267 115.775 95.8267 105.386C95.8267 89.8951 105.897 83.7984 111.211 82.3676C111.273 82.3676 125.05 84.856 124.618 78.6971C124.432 76.022 120.478 74.9645 117.575 74.84C115.412 74.84 113.25 75.1511 111.149 75.8976C109.419 74.9022 108.183 73.347 107.566 71.4184C117.451 63.8909 124.371 56.6122 124.371 48.4003C124.371 44.0455 121.467 40.1884 115.968 40.1884C106.083 40.1884 98.6687 52.8173 98.6687 64.2019C98.6069 66.0683 98.7305 67.9346 99.163 69.8009C92.9228 74.4046 88.2891 77.2663 79.8247 82.3676C79.9483 79.8791 80.2572 77.4529 80.7515 75.0267C83.6553 71.8539 87.6095 67.1881 87.6095 63.5176C87.6095 61.8379 86.6209 60.3448 84.7056 60.3448C79.8865 60.3448 76.3031 67.6235 75.3145 72.7249C73.1521 75.3999 68.8272 78.7593 65.182 78.7593C62.2782 78.7593 61.3514 76.0843 61.1043 75.1511C70.2483 71.9783 81.5547 59.4117 81.5547 48.027C81.5547 45.6008 80.5661 40.2506 73.3992 40.2506C62.5871 40.2506 53.4431 56.4877 53.4431 69.1166C49.6125 69.1166 48.1297 65.0107 48.1297 61.8379C48.1297 58.6651 49.3036 55.5546 49.3036 54.5592C49.3036 53.5638 48.8093 52.3818 47.3883 52.3818C43.8049 52.3818 41.6424 57.2343 41.6424 62.8333C41.8896 70.6097 46.9558 75.4621 53.6903 75.8976C54.6788 80.5013 58.7565 84.856 63.8228 84.856C66.9737 84.856 70.8043 83.8607 73.461 81.4344C73.2139 83.1141 72.9667 84.6072 72.7196 86.038C62.1546 91.6371 54.4317 95.4941 47.4501 101.777C41.9514 106.879 38.8004 113.66 38.8004 119.01C38.8004 126.289 43.3724 133.07 52.7635 133.07C63.8228 133.07 72.2253 124.111 76.3031 111.731C78.2183 105.883 79.0215 97.4227 79.454 89.7085C87.0534 85.4781 94.4674 80.7501 101.511 75.6488C102.129 76.7686 102.932 77.764 103.92 78.5727C98.8541 81.2478 86.8681 88.7753 86.8681 106.443C86.8681 119.072 95.2706 133.132 111.89 133.132C125.606 133.132 134.997 121.747 134.997 110.86C135.059 100.782 129.499 91.5748 118.934 91.6371ZM160.267 112.416C160.205 112.478 160.082 112.602 159.834 112.54C159.649 112.478 159.587 112.353 159.587 112.229C161.441 106.194 162.429 99.9111 162.491 93.5656C162.429 82.9275 158.166 76.3331 152.606 76.3331C149.208 76.3331 146.86 78.7593 146.86 82.3676C146.86 88.8998 154.768 89.3974 154.768 103.706C154.768 109.554 153.594 115.091 151.617 121.187C142.72 151.484 114.362 165.544 86.6827 165.544C73.9553 165.544 64.8731 162.931 62.1546 161.687C62.031 161.562 61.9693 161.376 62.031 161.189C62.0928 161.003 62.2782 160.878 62.4017 160.94C68.3948 162.869 74.6349 163.864 80.875 163.864C91.44 163.864 97.742 159.509 97.742 154.159C97.742 150.862 95.1471 148.125 91.8107 148.125C91.749 148.125 91.749 148.125 91.6872 148.125C85.1999 148.125 84.7056 156.337 70.7425 156.337C64.7495 156.337 59.4361 155.155 53.196 153.164C23.3545 143.957 9.14427 115.588 9.20605 87.4689C9.20605 79.0704 10.5035 70.7341 13.0984 62.7711C13.222 62.6466 13.4073 62.6466 13.5309 62.7089C13.7163 62.7711 13.778 62.9577 13.778 63.0199C11.9245 69.0544 10.936 75.3377 10.8742 81.6833C10.8742 92.3214 15.1991 98.6669 20.7596 98.6669C23.9106 98.7291 26.5055 96.1785 26.5055 93.0057C26.5055 92.9435 26.5055 92.8813 26.5055 92.8813C26.5055 86.3491 18.5972 85.6026 18.5972 71.5428C18.5972 65.5084 19.7711 60.1582 21.7481 53.8749C30.8921 23.8269 59.0036 9.70494 86.6827 9.51831C99.5337 9.39389 110.778 13.3132 111.211 13.6242C111.334 13.7487 111.334 13.9353 111.273 14.0597C111.211 14.3086 111.025 14.3086 110.964 14.3086C110.84 14.3086 103.488 11.198 92.4286 11.198C82.1107 11.198 75.6234 15.5528 75.6234 21.1518C75.6234 24.3246 78.1566 26.9374 81.3693 26.9996C81.4929 26.9996 81.5547 26.9996 81.6782 26.9996C88.1655 26.9996 88.6598 18.9744 102.623 18.9744C108.616 18.9744 113.929 20.1564 120.169 22.1472C150.258 31.3544 163.912 59.9716 164.159 87.5933C164.221 95.9296 162.924 104.39 160.267 112.416ZM86.6827 4.10594C40.9628 4.04373 3.89266 41.3704 3.83088 87.4067C3.76909 133.443 40.8393 170.832 86.5591 170.832C132.279 170.894 169.411 133.567 169.411 87.5311V87.4689C169.411 41.4949 132.403 4.16815 86.6827 4.10594ZM86.6827 175C38.6768 174.876 -0.123273 135.62 0.000294327 87.2823C0.185645 39.1308 38.924 0.124422 86.6827 0C134.565 0 173.55 39.2553 173.55 87.4689C173.55 135.683 134.565 175 86.6827 175Z" fill="#005E60"/>
</svg>
