<svg width="367" height="301" viewBox="0 0 367 301" fill="none" xmlns="http://www.w3.org/2000/svg">
<path d="M170.563 300.465C253.481 300.465 320.699 233.204 320.699 150.233C320.699 67.2615 253.481 0 170.563 0C87.6444 0 20.4259 67.2615 20.4259 150.233C20.4259 233.204 87.6444 300.465 170.563 300.465Z" fill="#0B3D91"/>
<path d="M161.698 30.5407C162.628 30.5407 163.381 29.7866 163.381 28.8565C163.381 27.9263 162.628 27.1722 161.698 27.1722C160.768 27.1722 160.015 27.9263 160.015 28.8565C160.015 29.7866 160.768 30.5407 161.698 30.5407Z" fill="white"/>
<path d="M178.978 32.7862C179.908 32.7862 180.662 32.0321 180.662 31.1019C180.662 30.1718 179.908 29.4177 178.978 29.4177C178.049 29.4177 177.295 30.1718 177.295 31.1019C177.295 32.0321 178.049 32.7862 178.978 32.7862Z" fill="white"/>
<path d="M201.645 63.3269C202.574 63.3269 203.328 62.5729 203.328 61.6427C203.328 60.7126 202.574 59.9585 201.645 59.9585C200.715 59.9585 199.962 60.7126 199.962 61.6427C199.962 62.5729 200.715 63.3269 201.645 63.3269Z" fill="white"/>
<path d="M77.3162 220.521C78.2458 220.521 78.9993 219.767 78.9993 218.837C78.9993 217.907 78.2458 217.153 77.3162 217.153C76.3866 217.153 75.6331 217.907 75.6331 218.837C75.6331 219.767 76.3866 220.521 77.3162 220.521Z" fill="white"/>
<path d="M81.6924 233.995C82.622 233.995 83.3756 233.241 83.3756 232.311C83.3756 231.38 82.622 230.626 81.6924 230.626C80.7628 230.626 80.0093 231.38 80.0093 232.311C80.0093 233.241 80.7628 233.995 81.6924 233.995Z" fill="white"/>
<path d="M60.8214 222.119C61.5176 222.119 62.0819 221.555 62.0819 220.858C62.0819 220.161 61.5176 219.597 60.8214 219.597C60.1253 219.597 59.5609 220.161 59.5609 220.858C59.5609 221.555 60.1253 222.119 60.8214 222.119Z" fill="white"/>
<path d="M129.269 248.591C129.968 248.591 130.534 248.025 130.534 247.326C130.534 246.628 129.968 246.061 129.269 246.061C128.571 246.061 128.005 246.628 128.005 247.326C128.005 248.025 128.571 248.591 129.269 248.591Z" fill="white"/>
<path d="M236.624 226.274C237.32 226.274 237.885 225.709 237.885 225.012C237.885 224.316 237.32 223.751 236.624 223.751C235.928 223.751 235.364 224.316 235.364 225.012C235.364 225.709 235.928 226.274 236.624 226.274Z" fill="white"/>
<path d="M267.822 192.368C268.521 192.368 269.087 191.802 269.087 191.103C269.087 190.405 268.521 189.838 267.822 189.838C267.124 189.838 266.558 190.405 266.558 191.103C266.558 191.802 267.124 192.368 267.822 192.368Z" fill="white"/>
<path d="M114.906 72.7548C115.603 72.7548 116.167 72.1901 116.167 71.4935C116.167 70.7969 115.603 70.2322 114.906 70.2322C114.21 70.2322 113.646 70.7969 113.646 71.4935C113.646 72.1901 114.21 72.7548 114.906 72.7548Z" fill="white"/>
<path d="M149.243 47.5214C149.939 47.5214 150.503 46.9567 150.503 46.2601C150.503 45.5635 149.939 44.9988 149.243 44.9988C148.547 44.9988 147.982 45.5635 147.982 46.2601C147.982 46.9567 148.547 47.5214 149.243 47.5214Z" fill="white"/>
<path d="M145.514 45.0512C146.21 45.0512 146.774 44.4865 146.774 43.7899C146.774 43.0933 146.21 42.5286 145.514 42.5286C144.818 42.5286 144.253 43.0933 144.253 43.7899C144.253 44.4865 144.818 45.0512 145.514 45.0512Z" fill="white"/>
<path d="M142.147 42.5811C142.843 42.5811 143.408 42.0164 143.408 41.3198C143.408 40.6232 142.843 40.0585 142.147 40.0585C141.451 40.0585 140.887 40.6232 140.887 41.3198C140.887 42.0164 141.451 42.5811 142.147 42.5811Z" fill="white"/>
<path d="M120.293 79.2709C120.989 79.2709 121.553 78.7062 121.553 78.0096C121.553 77.313 120.989 76.7483 120.293 76.7483C119.596 76.7483 119.032 77.313 119.032 78.0096C119.032 78.7062 119.596 79.2709 120.293 79.2709Z" fill="white"/>
<path d="M170.869 13.6123C171.565 13.6123 172.13 13.0476 172.13 12.351C172.13 11.6544 171.565 11.0897 170.869 11.0897C170.173 11.0897 169.609 11.6544 169.609 12.351C169.609 13.0476 170.173 13.6123 170.869 13.6123Z" fill="white"/>
<path d="M179.177 49.9915C179.873 49.9915 180.437 49.4268 180.437 48.7302C180.437 48.0336 179.873 47.4689 179.177 47.4689C178.48 47.4689 177.916 48.0336 177.916 48.7302C177.916 49.4268 178.48 49.9915 179.177 49.9915Z" fill="white"/>
<path d="M166.074 42.8878C166.77 42.8878 167.335 42.3231 167.335 41.6265C167.335 40.9299 166.77 40.3652 166.074 40.3652C165.378 40.3652 164.814 40.9299 164.814 41.6265C164.814 42.3231 165.378 42.8878 166.074 42.8878Z" fill="white"/>
<path d="M143.632 52.5479C144.328 52.5479 144.893 51.9832 144.893 51.2866C144.893 50.59 144.328 50.0253 143.632 50.0253C142.936 50.0253 142.372 50.59 142.372 51.2866C142.372 51.9832 142.936 52.5479 143.632 52.5479Z" fill="white"/>
<path d="M242.601 259.595C243.297 259.595 243.862 259.03 243.862 258.334C243.862 257.637 243.297 257.072 242.601 257.072C241.905 257.072 241.341 257.637 241.341 258.334C241.341 259.03 241.905 259.595 242.601 259.595Z" fill="white"/>
<path d="M75.1843 228.635C75.8825 228.635 76.4485 228.069 76.4485 227.37C76.4485 226.672 75.8825 226.105 75.1843 226.105C74.4861 226.105 73.92 226.672 73.92 227.37C73.92 228.069 74.4861 228.635 75.1843 228.635Z" fill="white"/>
<path d="M162.932 244.916C163.631 244.916 164.197 244.35 164.197 243.651C164.197 242.952 163.631 242.386 162.932 242.386C162.234 242.386 161.668 242.952 161.668 243.651C161.668 244.35 162.234 244.916 162.932 244.916Z" fill="white"/>
<path d="M101.299 227.625C101.997 227.625 102.563 227.058 102.563 226.36C102.563 225.661 101.997 225.095 101.299 225.095C100.601 225.095 100.035 225.661 100.035 226.36C100.035 227.058 100.601 227.625 101.299 227.625Z" fill="white"/>
<path d="M112.214 245.451C112.912 245.451 113.478 244.885 113.478 244.186C113.478 243.488 112.912 242.921 112.214 242.921C111.515 242.921 110.949 243.488 110.949 244.186C110.949 244.885 111.515 245.451 112.214 245.451Z" fill="white"/>
<path d="M192.556 234.219C193.252 234.219 193.816 233.655 193.816 232.958C193.816 232.261 193.252 231.697 192.556 231.697C191.86 231.697 191.295 232.261 191.295 232.958C191.295 233.655 191.86 234.219 192.556 234.219Z" fill="white"/>
<path d="M236.849 209.207C237.545 209.207 238.109 208.642 238.109 207.945C238.109 207.249 237.545 206.684 236.849 206.684C236.153 206.684 235.588 207.249 235.588 207.945C235.588 208.642 236.153 209.207 236.849 209.207Z" fill="white"/>
<path d="M270.429 224.559C271.125 224.559 271.69 223.995 271.69 223.298C271.69 222.602 271.125 222.037 270.429 222.037C269.733 222.037 269.169 222.602 269.169 223.298C269.169 223.995 269.733 224.559 270.429 224.559Z" fill="white"/>
<path d="M281.875 231.888C282.571 231.888 283.135 231.323 283.135 230.626C283.135 229.93 282.571 229.365 281.875 229.365C281.179 229.365 280.614 229.93 280.614 230.626C280.614 231.323 281.179 231.888 281.875 231.888Z" fill="white"/>
<path d="M283.756 211.902C284.452 211.902 285.017 211.337 285.017 210.64C285.017 209.944 284.452 209.379 283.756 209.379C283.06 209.379 282.496 209.944 282.496 210.64C282.496 211.337 283.06 211.902 283.756 211.902Z" fill="white"/>
<path d="M116.784 183.607C117.48 183.607 118.045 183.042 118.045 182.345C118.045 181.649 117.48 181.084 116.784 181.084C116.088 181.084 115.524 181.649 115.524 182.345C115.524 183.042 116.088 183.607 116.784 183.607Z" fill="white"/>
<path d="M117.263 212.998C118.192 212.998 118.946 212.244 118.946 211.314C118.946 210.384 118.192 209.63 117.263 209.63C116.333 209.63 115.58 210.384 115.58 211.314C115.58 212.244 116.333 212.998 117.263 212.998Z" fill="white"/>
<path d="M127.362 234.332C128.291 234.332 129.045 233.578 129.045 232.647C129.045 231.717 128.291 230.963 127.362 230.963C126.432 230.963 125.679 231.717 125.679 232.647C125.679 233.578 126.432 234.332 127.362 234.332Z" fill="white"/>
<path d="M248.324 212.1C249.253 212.1 250.007 211.346 250.007 210.416C250.007 209.486 249.253 208.731 248.324 208.731C247.394 208.731 246.641 209.486 246.641 210.416C246.641 211.346 247.394 212.1 248.324 212.1Z" fill="white"/>
<path d="M291.861 209.63C292.791 209.63 293.545 208.876 293.545 207.946C293.545 207.015 292.791 206.261 291.861 206.261C290.932 206.261 290.178 207.015 290.178 207.946C290.178 208.876 290.932 209.63 291.861 209.63Z" fill="white"/>
<path d="M270.317 200.423C271.247 200.423 272 199.669 272 198.738C272 197.808 271.247 197.054 270.317 197.054C269.388 197.054 268.634 197.808 268.634 198.738C268.634 199.669 269.388 200.423 270.317 200.423Z" fill="white"/>
<path d="M248.324 201.321C249.253 201.321 250.007 200.567 250.007 199.637C250.007 198.706 249.253 197.952 248.324 197.952C247.394 197.952 246.641 198.706 246.641 199.637C246.641 200.567 247.394 201.321 248.324 201.321Z" fill="white"/>
<path d="M202.958 27.801L207.143 27.4005L202.965 27.1647C202.834 26.3563 202.187 25.7238 201.372 25.619L200.972 21.4496L200.732 25.6527C199.977 25.8211 199.397 26.4536 199.303 27.2396L195.024 27.6288L199.333 27.8609C199.49 28.5832 200.074 29.1484 200.807 29.2831L201.196 33.5797L201.424 29.2906C202.198 29.1596 202.812 28.5645 202.958 27.801Z" fill="white"/>
<path d="M132.318 74.4278L136.503 74.0273L132.325 73.7915C132.198 72.9831 131.547 72.3506 130.732 72.2458L130.332 68.0764L130.096 72.2795C129.337 72.4479 128.757 73.0804 128.663 73.8664L124.385 74.2556L128.693 74.4877C128.85 75.21 129.434 75.7752 130.167 75.9099L130.556 80.2066L130.788 75.9174C131.562 75.7902 132.176 75.1913 132.318 74.4278Z" fill="white"/>
<path d="M288.794 197.705L292.98 197.305L288.802 197.069C288.675 196.261 288.024 195.628 287.208 195.523L286.808 191.354L286.573 195.557C285.817 195.726 285.237 196.358 285.144 197.144L280.865 197.533L285.174 197.765C285.331 198.488 285.914 199.053 286.647 199.188L287.036 203.484L287.268 199.195C288.035 199.068 288.648 198.473 288.794 197.705Z" fill="white"/>
<path d="M118.179 262.163L122.365 261.762L118.187 261.526C118.056 260.718 117.409 260.085 116.593 259.981L116.193 255.815L115.958 260.014C115.198 260.183 114.619 260.815 114.525 261.601L110.246 261.99L114.555 262.222C114.712 262.945 115.296 263.514 116.029 263.645L116.418 267.941L116.65 263.652C117.42 263.525 118.037 262.926 118.179 262.163Z" fill="white"/>
<path d="M275.497 230.724L279.683 230.323L275.505 230.087C275.378 229.279 274.727 228.646 273.912 228.542L273.511 224.372L273.276 228.572C272.52 228.74 271.94 229.372 271.847 230.158L267.568 230.548L271.877 230.78C272.034 231.502 272.617 232.067 273.351 232.202L273.74 236.499L273.971 232.209C274.738 232.086 275.355 231.487 275.497 230.724Z" fill="white"/>
<path d="M206.167 114.247C188.711 121.036 171.685 127.095 157.318 131.594C128.125 140.741 48.2502 165.503 0 196.717L4.03955 198.289C33.4385 181.672 52.5479 176.451 70.9166 170.668C90.89 164.38 155.459 149.26 184.697 141.026C194.576 138.245 206.144 134.603 218.398 130.172C215.548 126.193 212.54 122.204 209.376 118.221C208.318 116.878 207.244 115.553 206.167 114.247ZM227.494 143.661C223.268 146.516 219.726 148.796 217.246 150.233C202.883 158.542 132.86 206.374 116.93 217.377C101 228.381 56.7856 270.15 43.7693 282.276L43.3205 287.213C85.2869 249.486 98.4529 240.182 115.135 227.483C135.781 211.763 178.492 182.682 193.008 173.363C206.885 164.455 219.4 156.262 230.632 148.766C230.449 148.459 230.266 148.152 230.082 147.841C229.237 146.453 228.373 145.06 227.494 143.661ZM293.096 74.3305C272.651 86.3222 240.428 100.795 209.167 113.075C209.915 113.992 210.659 114.917 211.4 115.848C214.893 120.25 218.188 124.681 221.289 129.116C245.863 120.059 272.827 107.903 294.222 93.1901C284.029 102.854 250.333 128.053 229.787 142.1C230.846 143.825 231.87 145.551 232.862 147.269C263.989 126.425 284.934 111.084 297.139 100.825C313.971 86.6777 352.346 55.0143 366.934 12.5719C341.346 45.1373 311.094 63.7723 293.096 74.3305Z" fill="#FC3D21"/>
<path d="M151.244 187.432C147.934 183.262 143.356 177.678 139.918 173.348C135.321 167.558 131.069 161.708 127.171 155.866C125.899 156.184 124.631 156.502 123.363 156.82C128.069 164.167 133.294 171.503 138.987 178.674C143.146 183.914 146.928 188.132 148.865 190.755C149.258 191.287 150.036 192.462 151.087 194.026C152.299 193.203 153.522 192.372 154.756 191.534C153.563 190.235 152.385 188.869 151.244 187.432ZM175.406 209.379C172.687 206.804 166.093 202.504 159.229 196.051C157.715 197.092 156.185 198.147 154.651 199.21C159.084 205.46 165.121 213.137 169.848 215.375C176.97 218.751 178.889 212.68 175.406 209.379ZM211.4 115.848C172.156 66.4221 124.216 39.2687 103.547 55.703C87.4938 68.4656 94.0842 105.766 116.212 144.948C117.357 144.555 118.49 144.17 119.612 143.788C97.2784 105.612 91.1668 70.1349 106.308 58.0946C125.335 42.9665 171.277 70.2247 209.384 118.218C217.272 128.151 224.206 138.121 230.079 147.841C252.566 185.081 259.467 218.758 243.929 232.505C239.175 236.712 224.648 238.363 205.617 229.792C205.351 230.125 205.778 231.027 206.111 231.248C222.538 237.857 238.274 240.376 246.218 234.062C265.309 218.882 250.643 165.275 211.4 115.848Z" fill="white"/>
<path d="M43.0923 121.713H68.2273L89.3227 157.531C89.3227 157.531 89.3227 131.594 89.3227 129.573C89.3227 126.429 85.3393 122.331 83.9367 121.713C85.6198 121.713 100.319 121.713 101.329 121.713C100.263 121.994 96.8408 126.148 96.8408 129.573C96.8408 131.257 96.8408 168.872 96.8408 170.668C96.8408 173.194 100.488 176.675 102.227 178.023H77.9895L56.5575 142.036C56.5575 142.036 56.5575 168.872 56.5575 170.331C56.5575 173.138 59.3066 175.833 62.168 178.135H43.6533C46.2903 177.012 48.815 173.475 49.0394 170.668C49.2638 167.861 49.0394 131.65 49.0394 130.078C49.0394 126.654 45.7292 123.847 43.0923 121.713Z" fill="white"/>
<path d="M273.01 178.023H306.449C304.597 177.573 302.521 175.384 301.399 172.465C300.277 169.545 282.548 121.713 282.548 121.713H269.835C266.229 124.311 262.365 127.05 258.24 129.936C258.228 130.041 258.217 130.146 258.198 130.247C257.645 133.615 247.696 169.673 247.09 171.454C246.248 173.924 241.928 176.675 240.189 178.135H258.198C256.403 176.114 254.944 174.149 255.281 171.903C255.618 169.658 256.627 165.166 256.627 165.166H275.254C276.096 167.412 276.724 169.429 277.05 171.342C277.442 173.644 275.086 176.226 273.01 178.023ZM258.311 157.98L264.594 137.433L272.898 157.98H258.311ZM255.479 123.764C256.403 123.083 257.331 122.398 258.255 121.713H253.373C253.86 122.163 254.664 122.87 255.479 123.764Z" fill="white"/>
<path d="M127.586 171.903C127.923 169.658 128.933 165.166 128.933 165.166H147.56C148.401 167.412 149.03 169.429 149.355 171.342C149.748 173.644 147.391 176.226 145.315 178.023H174.756C175.369 177.611 175.979 177.199 176.588 176.791C175.447 175.781 174.396 174.265 173.704 172.465C172.582 169.545 154.853 121.713 154.853 121.713H125.679C127.081 123.005 131.121 126.485 130.504 130.247C129.954 133.615 120.001 169.673 119.395 171.454C118.553 173.924 114.233 176.675 112.494 178.135H130.504C128.708 176.114 127.25 174.149 127.586 171.903ZM136.9 137.433L145.203 157.98H130.616L136.9 137.433Z" fill="white"/>
<path d="M229.282 149.664C223.791 153.324 217.997 157.146 211.893 161.135C214.631 162.464 216.812 164.133 217.021 166.289C217.41 170.339 209.279 172.296 201.929 171.454C200.459 171.286 199.015 170.9 197.639 170.384C196.113 171.368 194.572 172.36 193.008 173.363C191.419 174.385 189.489 175.642 187.286 177.094V182.907C188.744 180.044 191.935 177.48 194.411 177.349C195.477 177.293 199.18 180.717 214.44 179.875C221.846 179.467 236.153 171.566 235.929 162.472C235.794 157.097 232.989 152.905 229.282 149.664ZM187.282 163.707V169.628C188.632 168.726 189.964 167.839 191.269 166.974C189.216 165.544 187.761 164.208 187.282 163.707ZM224.064 145.947C222.643 145.105 221.203 144.368 219.823 143.717C212.641 140.348 205.123 139.731 203.552 135.183C202.445 131.976 205.572 129.008 213.202 129.12C220.833 129.232 227.902 133.78 229.809 135.408V120.924C229.248 121.485 226.787 124.311 224.535 123.843C220.215 122.945 212.866 121.773 204.45 121.822C194.8 121.878 186.496 129.341 186.216 138.776C185.823 151.969 196.371 155.562 202.318 157.64C202.931 157.853 203.631 158.081 204.39 158.325C210.094 154.612 214.605 151.752 217.246 150.229C219.019 149.207 221.341 147.74 224.064 145.947Z" fill="white"/>
</svg>
