<svg width="222" height="221" viewBox="0 0 222 221" fill="none" xmlns="http://www.w3.org/2000/svg">
<mask id="mask0_80_43" style="mask-type:luminance" maskUnits="userSpaceOnUse" x="0" y="0" width="222" height="190">
<path d="M0 0.6875H221.333V189.688H0V0.6875Z" fill="white"/>
</mask>
<g mask="url(#mask0_80_43)">
<path d="M189.141 125.135C176.88 158.286 144.969 181.99 107.609 181.99C106.615 181.99 105.63 181.948 104.646 181.917C105.109 180.76 105.75 179.661 107.214 178.38C110.766 175.271 113.656 175.938 114.99 173.271C116.323 170.604 115.875 168.828 117.432 165.495C117.734 164.844 118.198 164.135 118.719 163.406C105.583 169.115 92.4115 173.516 79.8698 176.432C79.8386 176.75 79.8073 177.063 79.7917 177.396C79.25 177.214 78.724 177.01 78.1875 176.818C73.6875 177.823 69.2709 178.63 64.974 179.234C77.7917 185.755 92.2709 189.453 107.609 189.453C145.667 189.453 178.521 166.813 193.432 134.292L189.141 125.135ZM70.6094 123.948C68.8334 122.781 68.8855 123.729 68.8855 123.729C68.1771 124.031 69.5 124.839 71.3282 125.714C73.1615 126.589 72.2761 127.172 73.3282 127.854C74.3855 128.542 76.1094 127.391 76.3282 126.229C76.5521 125.063 72.3855 125.115 70.6094 123.948ZM142.365 136.776C140.786 134.979 140.344 133.083 140.474 131.266C69.6875 178.042 -10.3125 174.297 9.65629 121.255C9.75524 121 9.81254 119.927 9.74483 119.651C9.16149 117.318 8.68754 115.016 8.30733 112.802C8.23962 112.396 7.65108 112.484 7.42712 112.932C1.28129 125.271 -1.94267 139.115 3.55733 150.911C19.7188 186.505 90.5052 174.052 147.021 139.276C145.214 138.99 143.557 138.135 142.365 136.776ZM76.3386 129.281C77.8855 130.172 77.7552 129.005 79.9584 129.281C82.1615 129.557 82.6615 129.615 82.6615 129.615C82.6615 129.615 84.5677 129.099 83.9948 128.557C82.9948 127.615 82.9948 127.615 82.9948 127.615C82.9948 127.615 81.0521 126.891 79.4948 127.229C77.9427 127.557 74.7917 128.391 76.3386 129.281ZM121.599 66.7969C124.599 65.4635 124.932 62.1302 130.427 61.1302C135.927 60.1302 138.594 59.7969 139.76 54.6302C140.927 49.4635 143.427 48.9635 143.427 44.6302C143.427 40.3021 144.094 33.1354 146.427 30.6354C148.76 28.1354 153.589 25.4688 148.594 25.8021C143.594 26.1354 146.26 25.8021 140.427 25.3021C134.594 24.8021 134.094 23.9688 136.76 23.3021C139.427 22.6354 143.26 22.9687 142.26 20.974C141.26 18.9687 140.594 15.974 135.594 17.1406C130.594 18.3073 127.49 21.6354 122.708 22.3021C117.932 22.9688 115.932 23.4688 114.432 26.3021C112.932 29.1354 108.099 28.9688 105.932 31.6354C103.766 34.3021 103.599 38.1354 107.099 37.9688C110.599 37.8021 112.599 40.1354 112.599 43.7969C112.599 47.4635 115.432 53.2969 113.099 56.1302C110.766 58.9635 109.432 62.1302 111.599 66.7969C113.766 71.4583 115.432 77.4583 117.432 75.125C119.432 72.7917 119.432 72.7917 119.432 72.7917C119.432 72.7917 118.599 68.1302 121.599 66.7969ZM45.4167 155.693C30.1302 140.026 20.6927 118.641 20.6927 95.0729C20.6927 86.6354 21.9219 78.4896 24.1771 70.7708C24.3125 71.8229 24.8438 72.9323 26.3386 74.625C29.6719 78.4063 31.0052 83.7344 29.0052 88.401C27.0052 93.0677 24.7865 96.8438 26.3386 100.401C27.8959 103.953 26.2188 105.953 29.948 107.953C33.6719 109.953 34.3386 112.396 36.1146 115.505C37.8959 118.615 37.8959 118.615 37.8959 118.615C37.8959 118.615 42.3386 121.505 42.3386 125.281C42.3386 129.057 45 130.615 49 131.057C53 131.505 53.224 130.615 56.3334 132.391C59.4427 134.167 62.3334 131.948 62.3334 135.948C62.3334 139.948 63.4427 144.167 67 142.391C70.5521 140.615 72.3282 140.781 72.5521 142.807C72.7761 144.833 74.3282 145.057 70.5521 147.276C66.7761 149.5 68.7761 148.391 67.6667 152.385C67.5417 152.828 67.4219 153.177 67.3073 153.484C77.5469 151.484 88.7604 148.109 100.385 143.276C97.1302 142.13 98.1407 143.599 94.9896 141.5C91.6615 139.281 92.7709 135.948 88.1042 135.505C83.4375 135.057 83.4375 135.057 83.4375 135.057C83.4375 135.057 83.8855 133.948 79.2188 135.281C74.5521 136.615 74.3282 136.167 71.2188 137.281C68.1094 138.391 64.3334 136.833 66.3334 134.833C68.3334 132.839 68.3334 132.839 68.3334 132.839C68.3334 132.839 69.6667 130.391 66.3334 129.505C63 128.615 60.1094 130.651 62.3334 127.854C64.5521 125.063 65.6667 121.281 62.3334 122.615C59 123.948 59.8855 126.391 57 126.839C54.1094 127.281 51.448 126.391 51.448 124.396C51.448 122.396 49.224 121.505 52.5573 118.615C55.8907 115.729 51.6667 114.396 57.8907 115.286C64.1094 116.172 65.4427 113.286 67.8855 116.839C70.3334 120.396 71.4427 123.063 71.6615 121.948C71.8855 120.839 71.2188 117.063 71.8855 114.839C72.5521 112.62 73.4427 113.729 76.7761 110.839C80.1042 107.953 77.6094 107.536 78.5209 106.12C79.4427 104.703 78.9375 102.536 81.2709 102.036C83.6042 101.536 85.4375 100.453 86.5209 99.0365C87.6042 97.6198 87.5209 96.7031 90.1042 96.7031C92.6875 96.7031 92.6875 96.7031 92.6875 96.7031C92.6875 96.7031 97.8542 96.2031 97.0209 94.7031C96.1875 93.2031 95.7709 93.5417 94.4375 93.9583C93.1042 94.375 91.3542 93.7083 92.1875 92.6198C93.0209 91.5417 93.6042 90.7083 92.1875 89.7917C90.7709 88.875 91.3542 88.625 94.6875 88.5417C98.0209 88.4583 100.271 85.7083 100.104 87.625C99.9375 89.5417 97.6042 91.7083 99.2709 92.0417C100.938 92.3698 104.349 93.3698 105.182 92.875C106.016 92.3698 106.349 91.375 104.766 91.2083C103.188 91.0417 102.438 90.7917 102.104 89.5417C101.771 88.2917 104.182 84.875 102.266 82.7917C100.354 80.7083 98.1875 82.4583 97.9375 79.5417C97.6875 76.625 98.1042 70.4583 96.8542 71.875C95.6042 73.2917 93.1042 77.2917 92.2709 75.4583C91.4375 73.625 94.0209 71.9583 92.2709 70.7917C90.5209 69.625 88.6875 66.5469 86.9375 66.9583C85.1875 67.375 84.5209 66.7969 84.4375 68.7917C84.3542 70.7917 82.8542 71.5417 82.9375 74.2917C83.0209 77.0417 84.1042 77.2917 82.1875 80.2083C80.2709 83.125 80.1042 83.7083 80.1042 83.7083C80.1042 83.7083 79.6875 87.2083 77.8542 85.7917C76.0261 84.375 76.0261 84.375 76.0261 84.375C76.0261 84.375 78.9375 80.375 76.9427 79.4583C74.9427 78.5417 73.5261 78.125 72.0261 76.2917C70.5261 74.4583 66.3594 70.875 69.5261 68.1302C72.6927 65.3802 73.8594 64.8802 75.4427 63.3802C77.0209 61.8802 77.4375 62.2969 78.0261 63.2135C78.6094 64.1302 79.4427 63.7969 82.0209 64.3802C84.6042 64.9635 84.9375 63.8802 83.5209 61.7969C82.1042 59.7135 81.5209 60.2135 83.4375 58.7135C85.3542 57.2135 88.2709 54.2135 88.1875 52.6302C88.1042 51.0469 89.9375 49.7969 90.8542 52.2135C91.7709 54.6302 94.3542 54.6302 93.4375 56.9635C92.5209 59.2969 92.8542 60.5469 90.5209 61.0469C88.1875 61.5469 86.1042 62.7969 88.4375 63.6302C90.7709 64.4635 91.2709 64.3802 91.9375 65.9635C92.6042 67.5469 94.9375 69.875 95.9375 69.0417C96.9375 68.2083 98.1875 68.5469 97.6042 66.0469C97.0209 63.5469 96.1042 59.4635 97.6875 61.2135C99.2709 62.9635 100.521 63.9635 101.521 62.5469C102.516 61.1302 103.599 61.3802 101.771 58.9635C99.9375 56.5469 96.5209 56.6302 98.1042 55.2969C99.6875 53.9635 103.021 54.1302 98.9375 50.9635C94.8542 47.7969 97.1875 45.7135 94.6042 44.0521C92.0209 42.3854 89.8542 41.3021 88.1875 42.8854C86.5209 44.4688 87.0209 40.4688 88.0209 38.0521C89.0209 35.6354 91.0209 36.0521 93.6875 35.0521C96.3542 34.0521 102.682 31.4688 104.349 28.4688C106.016 25.4688 109.599 23.9688 111.266 22.8021C112.932 21.6354 117.432 20.3073 116.266 17.974C115.099 15.6406 115.182 14.1406 111.182 14.974C107.182 15.8073 103.682 16.8073 98.8542 17.3906C94.0209 17.974 93.0209 18.5521 89.2709 20.0521C85.5209 21.5573 78.9375 21.3854 74.1927 22.8021C69.4427 24.2188 66.1094 23.9688 64.8594 26.7188C63.6094 29.4688 63.1927 30.2188 59.0261 32.8021C54.8594 35.3854 52.5313 36.1354 53.7813 38.6354C55.0313 41.1354 59.7761 45.7969 57.5261 46.3854C55.2761 46.9635 51.698 42.0521 48.5313 41.6354C45.3646 41.2188 42.0313 43.9635 40.0313 42.6354C39.7188 42.4219 39.3594 42.1406 38.9792 41.8333C54.8959 21.3646 79.7344 8.15625 107.609 8.15625C139.328 8.15625 167.12 25.2396 182.297 50.6823C179.406 51.2656 178.276 51.9688 178.979 55.2969C179.87 59.5208 182.089 61.2969 183.87 61.2969C184.906 61.2969 181.781 62.8958 179.714 64.4896C179.927 64.4792 180.141 64.4688 180.323 64.4688C182.302 64.4688 184.068 64.9115 185.583 65.6615C185.823 65.4688 186.063 65.2708 186.313 65.0729C187.974 63.7448 188.391 63.4115 188.495 63.3229C188.938 64.4531 189.354 65.5938 189.755 66.7396L196.641 63.7865C183.703 27.0781 148.688 0.6875 107.609 0.6875C55.5677 0.6875 13.224 43.0313 13.224 95.0729C13.224 117.688 21.2292 138.464 34.5417 154.734C37.8334 155.323 41.474 155.651 45.4167 155.693ZM188.708 106.646C179.75 113.104 169.594 119.948 161.646 124.891L162.536 141.38L158.365 145.036L152.297 130.344C149.854 131.615 148.281 132.203 147.974 131.849C147.667 131.5 148.458 130.021 150.036 127.76L136.24 119.839L140.411 116.177L156.677 119.198C162.62 111.964 170.729 102.781 178.281 94.75L143.146 72.2969L147.281 68.6667L173.589 76.0156C175.5 73.9948 176.047 73.5521 176.474 73.1771C178.313 71.5625 181.917 71.7031 182.682 72.5729C183.391 73.3802 183.016 76.6094 181.625 78.2656L192.026 81.1719C195.203 78.2448 197.5 76.2604 198.198 75.651C203.401 71.0833 218.464 66.1146 220.375 68.2865C222.287 70.4635 214.969 85.1406 210.203 89.3229C209.375 90.0521 207.135 92.0573 203.932 94.7552L205.464 105.422C207.287 104.255 210.537 104.302 211.245 105.109C212.01 105.979 211.682 109.573 209.844 111.188C209.417 111.563 208.906 112.047 206.651 113.682L210.537 140.714L206.401 144.349L188.708 106.646Z" fill="white"/>
</g>
<path d="M31.4039 201.152C29.2216 199.886 27.5966 198.631 26.5289 197.381C25.4716 196.142 24.8258 194.912 24.5914 193.694C24.3675 192.459 24.4508 191.235 24.8414 190.027L32.0289 194.194C32.1227 195.277 32.7581 196.157 33.9247 196.839C35.0758 197.506 36.1435 197.6 37.1331 197.131C37.2268 197.089 37.2893 197.037 37.3206 196.985C37.4456 196.777 37.2633 196.464 36.7789 196.048C36.2893 195.631 35.5289 195.095 34.4872 194.444C33.1956 193.61 31.8622 192.647 30.4872 191.548C27.4977 189.131 26.6227 186.855 27.8622 184.714C27.956 184.537 28.081 184.35 28.2372 184.152C29.081 183.225 30.0966 182.548 31.2789 182.131C32.456 181.704 33.8518 181.647 35.4664 181.964C37.0758 182.272 38.9716 183.058 41.1539 184.319C43.331 185.569 44.956 186.819 46.0289 188.069C47.0966 189.308 47.7425 190.543 47.9664 191.777C48.1852 193.001 48.1122 194.214 47.7372 195.423L40.5289 191.256C40.4143 190.204 39.7841 189.339 38.6331 188.673C37.4664 187.996 36.3935 187.876 35.4247 188.319C35.3518 188.35 35.305 188.397 35.2789 188.464C35.1643 188.647 35.3414 188.933 35.7997 189.319C36.2685 189.694 36.9925 190.204 37.9664 190.839C38.9352 191.48 39.9508 192.194 41.0081 192.985C42.0602 193.777 42.9872 194.626 43.7789 195.527C44.5706 196.444 45.055 197.392 45.2372 198.381C45.3727 199.116 45.2216 199.871 44.7789 200.652C44.6539 200.871 44.5081 201.089 44.3414 201.298C43.4768 202.225 42.456 202.902 41.2789 203.319C40.1122 203.746 38.7164 203.803 37.0914 203.485C35.4768 203.178 33.581 202.402 31.4039 201.152Z" fill="white"/>
<path d="M56.8339 212.647C52.4693 211.173 49.5631 209.189 48.1048 206.689C46.7975 204.496 46.6152 202.017 47.5631 199.251C48.4798 196.501 50.1256 194.642 52.5006 193.668C55.1777 192.574 58.6985 192.761 63.0631 194.23C65.6308 195.105 67.6516 196.121 69.1256 197.272C70.61 198.412 71.6464 199.657 72.2298 201.001C72.8131 202.334 73.0423 203.709 72.9173 205.126L65.1048 202.48C64.7818 200.855 63.5683 199.689 61.4589 198.98C59.6673 198.386 58.1777 198.449 57.0006 199.168C56.0423 199.767 55.3756 200.626 55.0006 201.751C54.61 202.876 54.6152 203.975 55.0214 205.043C55.5058 206.366 56.6464 207.324 58.4381 207.918C60.5475 208.626 62.2193 208.418 63.4589 207.293L71.2714 209.939C70.5058 211.173 69.485 212.136 68.2089 212.834C66.9433 213.543 65.3756 213.902 63.5006 213.918C61.6256 213.944 59.4016 213.522 56.8339 212.647Z" fill="white"/>
<path d="M99.0112 220.217L91.6779 219.383C91.3862 218.868 91.2091 218.248 91.157 217.529C91.0997 216.946 90.9799 216.373 90.8029 215.8C90.6206 215.232 90.2508 214.738 89.6987 214.321C89.157 213.894 88.3029 213.602 87.1362 213.446L82.0737 212.863L81.4695 218.217L73.6779 217.321L75.782 198.758L88.4487 200.217C91.4747 200.55 93.8914 201.05 95.6987 201.717C97.5164 202.383 98.7924 203.253 99.532 204.321C100.266 205.378 100.542 206.691 100.365 208.258C100.225 209.566 99.8081 210.628 99.1154 211.446C98.4331 212.269 97.4279 212.863 96.0945 213.238C97.2716 213.894 98.0008 214.592 98.282 215.342C98.5737 216.092 98.7091 216.899 98.6987 217.758C98.6987 218.519 98.8029 219.342 99.0112 220.217ZM82.5945 208.279L87.0529 208.758C88.2872 208.899 89.2664 208.956 89.9904 208.925C90.7247 208.899 91.2716 208.811 91.6362 208.654C91.9956 208.503 92.2404 208.316 92.3654 208.092C92.4904 207.873 92.5633 207.628 92.5945 207.363C92.6206 207.113 92.5997 206.863 92.532 206.613C92.4591 206.363 92.2664 206.123 91.9487 205.883C91.6414 205.649 91.1362 205.436 90.4279 205.238C89.7195 205.045 88.7456 204.878 87.5112 204.738L83.0529 204.238L82.5945 208.279Z" fill="white"/>
<path d="M115.751 219.304C111.152 219.762 107.673 219.153 105.314 217.471C103.23 216.002 102.048 213.814 101.772 210.908C101.48 208.023 102.21 205.648 103.96 203.783C105.928 201.7 109.215 200.429 113.814 199.971C116.506 199.695 118.762 199.778 120.585 200.221C122.402 200.653 123.855 201.356 124.939 202.325C126.022 203.299 126.798 204.466 127.272 205.825L119.064 206.637C118.105 205.278 116.522 204.71 114.314 204.929C112.423 205.111 111.095 205.794 110.335 206.971C109.694 207.919 109.439 208.971 109.564 210.137C109.673 211.335 110.131 212.325 110.939 213.117C111.923 214.106 113.361 214.507 115.251 214.325C117.46 214.106 118.902 213.231 119.585 211.7L127.793 210.887C127.595 212.304 127.064 213.596 126.189 214.762C125.314 215.929 124.027 216.908 122.335 217.7C120.637 218.492 118.444 219.028 115.751 219.304Z" fill="white"/>
<path d="M159.297 207.625L138.651 215.104L137.068 210.75C136.709 209.724 136.709 208.771 137.068 207.896C137.417 207.01 137.985 206.187 138.776 205.437C139.568 204.687 140.464 203.995 141.464 203.354C142.464 202.719 143.428 202.135 144.36 201.604C145.636 200.911 146.631 200.286 147.339 199.729C147.865 199.312 148.068 198.927 147.943 198.562C147.901 198.469 147.823 198.37 147.714 198.271C146.849 197.646 145.782 197.562 144.506 198.021C143.224 198.479 142.454 199.229 142.193 200.271L134.381 203.104C134.214 201.844 134.355 200.625 134.797 199.458C135.23 198.292 136.079 197.198 137.339 196.167C138.589 195.125 140.407 194.177 142.797 193.312C145.172 192.453 147.178 192.016 148.818 192C150.454 191.974 151.808 192.271 152.881 192.896C153.964 193.521 154.849 194.37 155.547 195.437C155.683 195.703 155.803 195.958 155.901 196.208C156.318 197.391 156.214 198.531 155.589 199.625C154.964 200.708 153.954 201.724 152.568 202.667C151.178 203.615 149.782 204.448 148.381 205.167C147.672 205.557 147.037 205.917 146.485 206.25C145.928 206.583 145.506 206.891 145.214 207.167C144.922 207.448 144.808 207.698 144.881 207.917L157.714 203.271L159.297 207.625Z" fill="white"/>
<path d="M173.029 200.503C169.581 202.534 166.555 203.211 163.946 202.545C161.654 201.951 159.774 200.399 158.3 197.899C156.831 195.399 156.378 193.003 156.946 190.711C157.628 188.102 159.691 185.784 163.133 183.753C166.56 181.727 169.571 181.055 172.154 181.732C174.456 182.316 176.347 183.857 177.821 186.357C179.29 188.857 179.737 191.264 179.154 193.566C178.498 196.165 176.456 198.477 173.029 200.503ZM170.487 196.211C171.706 195.493 172.248 194.493 172.112 193.211C172.029 192.378 171.675 191.43 171.05 190.357C170.435 189.305 169.779 188.524 169.071 188.024C168.029 187.331 166.894 187.347 165.675 188.066C164.425 188.805 163.862 189.79 163.987 191.024C164.081 191.889 164.435 192.847 165.05 193.899C165.675 194.956 166.331 195.727 167.029 196.211C168.081 196.951 169.237 196.951 170.487 196.211Z" fill="white"/>
<path d="M201.873 177.939L185.352 192.397L182.31 188.918C181.592 188.1 181.227 187.22 181.227 186.272C181.227 185.314 181.467 184.345 181.935 183.356C182.409 182.356 182.998 181.387 183.706 180.439C184.404 179.481 185.086 178.579 185.769 177.731C186.685 176.637 187.373 175.699 187.831 174.918C188.175 174.335 188.232 173.908 187.998 173.626C187.914 173.543 187.8 173.475 187.664 173.418C186.633 173.158 185.607 173.47 184.581 174.356C183.571 175.246 183.123 176.225 183.248 177.293L176.998 182.772C176.388 181.663 176.076 180.481 176.06 179.231C176.034 177.981 176.425 176.647 177.227 175.231C178.019 173.803 179.368 172.251 181.269 170.585C183.175 168.918 184.883 167.783 186.414 167.168C187.941 166.559 189.316 166.35 190.539 166.543C191.774 166.725 192.904 167.189 193.935 167.939C194.154 168.137 194.357 168.329 194.539 168.522C195.357 169.47 195.675 170.564 195.498 171.814C195.316 173.053 194.748 174.366 193.789 175.751C192.842 177.142 191.852 178.434 190.81 179.626C190.279 180.241 189.816 180.803 189.414 181.314C189.024 181.814 188.748 182.251 188.581 182.626C188.414 182.991 188.404 183.262 188.56 183.439L198.831 174.46L201.873 177.939Z" fill="white"/>
<path d="M217.45 158.771L212.616 164.959L208.97 162.105L200.97 172.334L197.345 169.5L197.887 153.459L202.72 147.271L210.179 153.084L212.054 150.688L215.679 153.521L213.804 155.917L217.45 158.771ZM205.345 159.271L202.366 156.959L202.22 163.271L205.345 159.271Z" fill="white"/>
</svg>
