<svg width="222" height="220" viewBox="0 0 222 220" fill="none" xmlns="http://www.w3.org/2000/svg">
<mask id="mask0_81_85" style="mask-type:luminance" maskUnits="userSpaceOnUse" x="0" y="0" width="222" height="189">
<path d="M0 0H221.333V189H0V0Z" fill="white"/>
</mask>
<g mask="url(#mask0_81_85)">
<path d="M189.141 124.448C176.88 157.599 144.969 181.302 107.609 181.302C106.615 181.302 105.63 181.26 104.646 181.229C105.109 180.073 105.75 178.974 107.214 177.693C110.766 174.583 113.656 175.25 114.99 172.583C116.323 169.917 115.875 168.141 117.432 164.807C117.734 164.156 118.198 163.448 118.719 162.719C105.583 168.427 92.4115 172.828 79.8698 175.745C79.8386 176.063 79.8073 176.375 79.7917 176.708C79.25 176.526 78.724 176.323 78.1875 176.13C73.6875 177.135 69.2709 177.943 64.974 178.547C77.7917 185.068 92.2709 188.766 107.609 188.766C145.667 188.766 178.521 166.125 193.432 133.604L189.141 124.448ZM70.6094 123.26C68.8334 122.094 68.8855 123.042 68.8855 123.042C68.1771 123.344 69.5 124.151 71.3282 125.026C73.1615 125.901 72.2761 126.484 73.3282 127.167C74.3855 127.854 76.1094 126.703 76.3282 125.542C76.5521 124.375 72.3855 124.427 70.6094 123.26ZM142.365 136.089C140.786 134.292 140.344 132.396 140.474 130.578C69.6875 177.354 -10.3125 173.609 9.65629 120.568C9.75524 120.313 9.81254 119.24 9.74483 118.964C9.16149 116.63 8.68754 114.328 8.30733 112.115C8.23962 111.708 7.65108 111.797 7.42712 112.245C1.28129 124.583 -1.94267 138.427 3.55733 150.224C19.7188 185.818 90.5052 173.365 147.021 138.589C145.214 138.302 143.557 137.448 142.365 136.089ZM76.3386 128.594C77.8855 129.484 77.7552 128.318 79.9584 128.594C82.1615 128.87 82.6615 128.927 82.6615 128.927C82.6615 128.927 84.5677 128.411 83.9948 127.87C82.9948 126.927 82.9948 126.927 82.9948 126.927C82.9948 126.927 81.0521 126.203 79.4948 126.542C77.9427 126.87 74.7917 127.703 76.3386 128.594ZM121.599 66.1094C124.599 64.776 124.932 61.4427 130.427 60.4427C135.927 59.4427 138.594 59.1094 139.76 53.9427C140.927 48.776 143.427 48.276 143.427 43.9427C143.427 39.6146 144.094 32.4479 146.427 29.9479C148.76 27.4479 153.589 24.7813 148.594 25.1146C143.594 25.4479 146.26 25.1146 140.427 24.6146C134.594 24.1146 134.094 23.2813 136.76 22.6146C139.427 21.9479 143.26 22.2812 142.26 20.2865C141.26 18.2812 140.594 15.2865 135.594 16.4531C130.594 17.6198 127.49 20.9479 122.708 21.6146C117.932 22.2813 115.932 22.7813 114.432 25.6146C112.932 28.4479 108.099 28.2813 105.932 30.9479C103.766 33.6146 103.599 37.4479 107.099 37.2813C110.599 37.1146 112.599 39.4479 112.599 43.1094C112.599 46.776 115.432 52.6094 113.099 55.4427C110.766 58.276 109.432 61.4427 111.599 66.1094C113.766 70.7708 115.432 76.7708 117.432 74.4375C119.432 72.1042 119.432 72.1042 119.432 72.1042C119.432 72.1042 118.599 67.4427 121.599 66.1094ZM45.4167 155.005C30.1302 139.339 20.6927 117.953 20.6927 94.3854C20.6927 85.9479 21.9219 77.8021 24.1771 70.0833C24.3125 71.1354 24.8438 72.2448 26.3386 73.9375C29.6719 77.7188 31.0052 83.0469 29.0052 87.7135C27.0052 92.3802 24.7865 96.1563 26.3386 99.7135C27.8959 103.266 26.2188 105.266 29.948 107.266C33.6719 109.266 34.3386 111.708 36.1146 114.818C37.8959 117.927 37.8959 117.927 37.8959 117.927C37.8959 117.927 42.3386 120.818 42.3386 124.594C42.3386 128.37 45 129.927 49 130.37C53 130.818 53.224 129.927 56.3334 131.703C59.4427 133.479 62.3334 131.26 62.3334 135.26C62.3334 139.26 63.4427 143.479 67 141.703C70.5521 139.927 72.3282 140.094 72.5521 142.12C72.7761 144.146 74.3282 144.37 70.5521 146.589C66.7761 148.813 68.7761 147.703 67.6667 151.698C67.5417 152.141 67.4219 152.49 67.3073 152.797C77.5469 150.797 88.7604 147.422 100.385 142.589C97.1302 141.443 98.1407 142.911 94.9896 140.813C91.6615 138.594 92.7709 135.26 88.1042 134.818C83.4375 134.37 83.4375 134.37 83.4375 134.37C83.4375 134.37 83.8855 133.26 79.2188 134.594C74.5521 135.927 74.3282 135.479 71.2188 136.594C68.1094 137.703 64.3334 136.146 66.3334 134.146C68.3334 132.151 68.3334 132.151 68.3334 132.151C68.3334 132.151 69.6667 129.703 66.3334 128.818C63 127.927 60.1094 129.964 62.3334 127.167C64.5521 124.375 65.6667 120.594 62.3334 121.927C59 123.26 59.8855 125.703 57 126.151C54.1094 126.594 51.448 125.703 51.448 123.708C51.448 121.708 49.224 120.818 52.5573 117.927C55.8907 115.042 51.6667 113.708 57.8907 114.599C64.1094 115.484 65.4427 112.599 67.8855 116.151C70.3334 119.708 71.4427 122.375 71.6615 121.26C71.8855 120.151 71.2188 116.375 71.8855 114.151C72.5521 111.932 73.4427 113.042 76.7761 110.151C80.1042 107.266 77.6094 106.849 78.5209 105.432C79.4427 104.016 78.9375 101.849 81.2709 101.349C83.6042 100.849 85.4375 99.7656 86.5209 98.349C87.6042 96.9323 87.5209 96.0156 90.1042 96.0156C92.6875 96.0156 92.6875 96.0156 92.6875 96.0156C92.6875 96.0156 97.8542 95.5156 97.0209 94.0156C96.1875 92.5156 95.7709 92.8542 94.4375 93.2708C93.1042 93.6875 91.3542 93.0208 92.1875 91.9323C93.0209 90.8542 93.6042 90.0208 92.1875 89.1042C90.7709 88.1875 91.3542 87.9375 94.6875 87.8542C98.0209 87.7708 100.271 85.0208 100.104 86.9375C99.9375 88.8542 97.6042 91.0208 99.2709 91.3542C100.938 91.6823 104.349 92.6823 105.182 92.1875C106.016 91.6823 106.349 90.6875 104.766 90.5208C103.188 90.3542 102.438 90.1042 102.104 88.8542C101.771 87.6042 104.182 84.1875 102.266 82.1042C100.354 80.0208 98.1875 81.7708 97.9375 78.8542C97.6875 75.9375 98.1042 69.7708 96.8542 71.1875C95.6042 72.6042 93.1042 76.6042 92.2709 74.7708C91.4375 72.9375 94.0209 71.2708 92.2709 70.1042C90.5209 68.9375 88.6875 65.8594 86.9375 66.2708C85.1875 66.6875 84.5209 66.1094 84.4375 68.1042C84.3542 70.1042 82.8542 70.8542 82.9375 73.6042C83.0209 76.3542 84.1042 76.6042 82.1875 79.5208C80.2709 82.4375 80.1042 83.0208 80.1042 83.0208C80.1042 83.0208 79.6875 86.5208 77.8542 85.1042C76.0261 83.6875 76.0261 83.6875 76.0261 83.6875C76.0261 83.6875 78.9375 79.6875 76.9427 78.7708C74.9427 77.8542 73.5261 77.4375 72.0261 75.6042C70.5261 73.7708 66.3594 70.1875 69.5261 67.4427C72.6927 64.6927 73.8594 64.1927 75.4427 62.6927C77.0209 61.1927 77.4375 61.6094 78.0261 62.526C78.6094 63.4427 79.4427 63.1094 82.0209 63.6927C84.6042 64.276 84.9375 63.1927 83.5209 61.1094C82.1042 59.026 81.5209 59.526 83.4375 58.026C85.3542 56.526 88.2709 53.526 88.1875 51.9427C88.1042 50.3594 89.9375 49.1094 90.8542 51.526C91.7709 53.9427 94.3542 53.9427 93.4375 56.276C92.5209 58.6094 92.8542 59.8594 90.5209 60.3594C88.1875 60.8594 86.1042 62.1094 88.4375 62.9427C90.7709 63.776 91.2709 63.6927 91.9375 65.276C92.6042 66.8594 94.9375 69.1875 95.9375 68.3542C96.9375 67.5208 98.1875 67.8594 97.6042 65.3594C97.0209 62.8594 96.1042 58.776 97.6875 60.526C99.2709 62.276 100.521 63.276 101.521 61.8594C102.516 60.4427 103.599 60.6927 101.771 58.276C99.9375 55.8594 96.5209 55.9427 98.1042 54.6094C99.6875 53.276 103.021 53.4427 98.9375 50.276C94.8542 47.1094 97.1875 45.026 94.6042 43.3646C92.0209 41.6979 89.8542 40.6146 88.1875 42.1979C86.5209 43.7813 87.0209 39.7813 88.0209 37.3646C89.0209 34.9479 91.0209 35.3646 93.6875 34.3646C96.3542 33.3646 102.682 30.7813 104.349 27.7813C106.016 24.7813 109.599 23.2813 111.266 22.1146C112.932 20.9479 117.432 19.6198 116.266 17.2865C115.099 14.9531 115.182 13.4531 111.182 14.2865C107.182 15.1198 103.682 16.1198 98.8542 16.7031C94.0209 17.2865 93.0209 17.8646 89.2709 19.3646C85.5209 20.8698 78.9375 20.6979 74.1927 22.1146C69.4427 23.5313 66.1094 23.2813 64.8594 26.0313C63.6094 28.7813 63.1927 29.5313 59.0261 32.1146C54.8594 34.6979 52.5313 35.4479 53.7813 37.9479C55.0313 40.4479 59.7761 45.1094 57.5261 45.6979C55.2761 46.276 51.698 41.3646 48.5313 40.9479C45.3646 40.5313 42.0313 43.276 40.0313 41.9479C39.7188 41.7344 39.3594 41.4531 38.9792 41.1458C54.8959 20.6771 79.7344 7.46875 107.609 7.46875C139.328 7.46875 167.12 24.5521 182.297 49.9948C179.406 50.5781 178.276 51.2813 178.979 54.6094C179.87 58.8333 182.089 60.6094 183.87 60.6094C184.906 60.6094 181.781 62.2083 179.714 63.8021C179.927 63.7917 180.141 63.7813 180.323 63.7813C182.302 63.7813 184.068 64.224 185.583 64.974C185.823 64.7813 186.063 64.5833 186.313 64.3854C187.974 63.0573 188.391 62.724 188.495 62.6354C188.938 63.7656 189.354 64.9063 189.755 66.0521L196.641 63.099C183.703 26.3906 148.688 0 107.609 0C55.5677 0 13.224 42.3438 13.224 94.3854C13.224 117 21.2292 137.776 34.5417 154.047C37.8334 154.635 41.474 154.964 45.4167 155.005ZM188.708 105.958C179.75 112.417 169.594 119.26 161.646 124.203L162.536 140.693L158.365 144.349L152.297 129.656C149.854 130.927 148.281 131.516 147.974 131.161C147.667 130.813 148.458 129.333 150.036 127.073L136.24 119.151L140.411 115.49L156.677 118.51C162.62 111.276 170.729 102.094 178.281 94.0625L143.146 71.6094L147.281 67.9792L173.589 75.3281C175.5 73.3073 176.047 72.8646 176.474 72.4896C178.313 70.875 181.917 71.0156 182.682 71.8854C183.391 72.6927 183.016 75.9219 181.625 77.5781L192.026 80.4844C195.203 77.5573 197.5 75.5729 198.198 74.9635C203.401 70.3958 218.464 65.4271 220.375 67.599C222.287 69.776 214.969 84.4531 210.203 88.6354C209.375 89.3646 207.135 91.3698 203.932 94.0677L205.464 104.734C207.287 103.568 210.537 103.615 211.245 104.422C212.01 105.292 211.682 108.885 209.844 110.5C209.417 110.875 208.906 111.359 206.651 112.995L210.537 140.026L206.401 143.661L188.708 105.958Z" fill="black"/>
</g>
<path d="M31.4039 200.464C29.2216 199.199 27.5966 197.944 26.5289 196.694C25.4716 195.454 24.8258 194.225 24.5914 193.006C24.3675 191.772 24.4508 190.548 24.8414 189.339L32.0289 193.506C32.1227 194.589 32.7581 195.47 33.9247 196.152C35.0758 196.819 36.1435 196.912 37.1331 196.444C37.2268 196.402 37.2893 196.35 37.3206 196.298C37.4456 196.089 37.2633 195.777 36.7789 195.36C36.2893 194.944 35.5289 194.407 34.4872 193.756C33.1956 192.923 31.8622 191.959 30.4872 190.86C27.4977 188.444 26.6227 186.168 27.8622 184.027C27.956 183.85 28.081 183.662 28.2372 183.464C29.081 182.537 30.0966 181.86 31.2789 181.444C32.456 181.017 33.8518 180.959 35.4664 181.277C37.0758 181.584 38.9716 182.371 41.1539 183.631C43.331 184.881 44.956 186.131 46.0289 187.381C47.0966 188.621 47.7425 189.855 47.9664 191.089C48.1852 192.313 48.1122 193.527 47.7372 194.735L40.5289 190.569C40.4143 189.517 39.7841 188.652 38.6331 187.985C37.4664 187.308 36.3935 187.188 35.4247 187.631C35.3518 187.662 35.305 187.709 35.2789 187.777C35.1643 187.959 35.3414 188.246 35.7997 188.631C36.2685 189.006 36.9925 189.517 37.9664 190.152C38.9352 190.793 39.9508 191.506 41.0081 192.298C42.0602 193.089 42.9872 193.938 43.7789 194.839C44.5706 195.756 45.055 196.704 45.2372 197.694C45.3727 198.428 45.2216 199.183 44.7789 199.964C44.6539 200.183 44.5081 200.402 44.3414 200.61C43.4768 201.537 42.456 202.214 41.2789 202.631C40.1122 203.058 38.7164 203.116 37.0914 202.798C35.4768 202.491 33.581 201.714 31.4039 200.464Z" fill="black"/>
<path d="M56.8339 211.959C52.4693 210.485 49.5631 208.501 48.1048 206.001C46.7975 203.808 46.6152 201.329 47.5631 198.564C48.4798 195.814 50.1256 193.954 52.5006 192.98C55.1777 191.886 58.6985 192.074 63.0631 193.543C65.6308 194.418 67.6516 195.433 69.1256 196.584C70.61 197.725 71.6464 198.97 72.2298 200.314C72.8131 201.647 73.0423 203.022 72.9173 204.439L65.1048 201.793C64.7818 200.168 63.5683 199.001 61.4589 198.293C59.6673 197.699 58.1777 197.761 57.0006 198.48C56.0423 199.079 55.3756 199.939 55.0006 201.064C54.61 202.189 54.6152 203.287 55.0214 204.355C55.5058 205.678 56.6464 206.636 58.4381 207.23C60.5475 207.939 62.2193 207.73 63.4589 206.605L71.2714 209.251C70.5058 210.485 69.485 211.449 68.2089 212.147C66.9433 212.855 65.3756 213.215 63.5006 213.23C61.6256 213.256 59.4016 212.834 56.8339 211.959Z" fill="black"/>
<path d="M99.0112 219.529L91.6779 218.696C91.3862 218.18 91.2091 217.561 91.157 216.842C91.0997 216.258 90.9799 215.686 90.8029 215.113C90.6206 214.545 90.2508 214.05 89.6987 213.633C89.157 213.206 88.3029 212.915 87.1362 212.758L82.0737 212.175L81.4695 217.529L73.6779 216.633L75.782 198.071L88.4487 199.529C91.4747 199.863 93.8914 200.363 95.6987 201.029C97.5164 201.696 98.7924 202.566 99.532 203.633C100.266 204.691 100.542 206.003 100.365 207.571C100.225 208.878 99.8081 209.941 99.1154 210.758C98.4331 211.581 97.4279 212.175 96.0945 212.55C97.2716 213.206 98.0008 213.904 98.282 214.654C98.5737 215.404 98.7091 216.212 98.6987 217.071C98.6987 217.831 98.8029 218.654 99.0112 219.529ZM82.5945 207.592L87.0529 208.071C88.2872 208.212 89.2664 208.269 89.9904 208.238C90.7247 208.212 91.2716 208.123 91.6362 207.967C91.9956 207.816 92.2404 207.628 92.3654 207.404C92.4904 207.186 92.5633 206.941 92.5945 206.675C92.6206 206.425 92.5997 206.175 92.532 205.925C92.4591 205.675 92.2664 205.436 91.9487 205.196C91.6414 204.962 91.1362 204.748 90.4279 204.55C89.7195 204.357 88.7456 204.191 87.5112 204.05L83.0529 203.55L82.5945 207.592Z" fill="black"/>
<path d="M115.751 218.617C111.152 219.075 107.673 218.466 105.314 216.783C103.23 215.314 102.048 213.127 101.772 210.221C101.48 207.335 102.21 204.96 103.96 203.096C105.928 201.012 109.215 199.742 113.814 199.283C116.506 199.007 118.762 199.091 120.585 199.533C122.402 199.966 123.855 200.669 124.939 201.637C126.022 202.611 126.798 203.778 127.272 205.137L119.064 205.95C118.105 204.591 116.522 204.023 114.314 204.242C112.423 204.424 111.095 205.106 110.335 206.283C109.694 207.231 109.439 208.283 109.564 209.45C109.673 210.648 110.131 211.637 110.939 212.429C111.923 213.419 113.361 213.82 115.251 213.637C117.46 213.419 118.902 212.544 119.585 211.012L127.793 210.2C127.595 211.617 127.064 212.908 126.189 214.075C125.314 215.242 124.027 216.221 122.335 217.012C120.637 217.804 118.444 218.341 115.751 218.617Z" fill="black"/>
<path d="M159.297 206.937L138.651 214.417L137.068 210.062C136.709 209.036 136.709 208.083 137.068 207.208C137.417 206.323 137.985 205.5 138.776 204.75C139.568 204 140.464 203.307 141.464 202.667C142.464 202.031 143.428 201.448 144.36 200.917C145.636 200.224 146.631 199.599 147.339 199.042C147.865 198.625 148.068 198.24 147.943 197.875C147.901 197.781 147.823 197.682 147.714 197.583C146.849 196.958 145.782 196.875 144.506 197.333C143.224 197.792 142.454 198.542 142.193 199.583L134.381 202.417C134.214 201.156 134.355 199.937 134.797 198.771C135.23 197.604 136.079 196.51 137.339 195.479C138.589 194.437 140.407 193.49 142.797 192.625C145.172 191.766 147.178 191.328 148.818 191.312C150.454 191.286 151.808 191.583 152.881 192.208C153.964 192.833 154.849 193.682 155.547 194.75C155.683 195.016 155.803 195.271 155.901 195.521C156.318 196.703 156.214 197.844 155.589 198.937C154.964 200.021 153.954 201.036 152.568 201.979C151.178 202.927 149.782 203.76 148.381 204.479C147.672 204.87 147.037 205.229 146.485 205.562C145.928 205.896 145.506 206.203 145.214 206.479C144.922 206.76 144.808 207.01 144.881 207.229L157.714 202.583L159.297 206.937Z" fill="black"/>
<path d="M173.029 199.816C169.581 201.847 166.555 202.524 163.946 201.857C161.654 201.264 159.774 199.711 158.3 197.211C156.831 194.711 156.378 192.316 156.946 190.024C157.628 187.415 159.691 185.097 163.133 183.066C166.56 181.04 169.571 180.368 172.154 181.045C174.456 181.628 176.347 183.17 177.821 185.67C179.29 188.17 179.737 190.576 179.154 192.878C178.498 195.477 176.456 197.79 173.029 199.816ZM170.487 195.524C171.706 194.805 172.248 193.805 172.112 192.524C172.029 191.691 171.675 190.743 171.05 189.67C170.435 188.618 169.779 187.836 169.071 187.336C168.029 186.644 166.894 186.659 165.675 187.378C164.425 188.118 163.862 189.102 163.987 190.336C164.081 191.201 164.435 192.159 165.05 193.211C165.675 194.269 166.331 195.04 167.029 195.524C168.081 196.264 169.237 196.264 170.487 195.524Z" fill="black"/>
<path d="M201.873 177.251L185.352 191.71L182.31 188.231C181.592 187.413 181.227 186.533 181.227 185.585C181.227 184.626 181.467 183.658 181.935 182.668C182.409 181.668 182.998 180.699 183.706 179.751C184.404 178.793 185.086 177.892 185.769 177.043C186.685 175.949 187.373 175.012 187.831 174.231C188.175 173.647 188.232 173.22 187.998 172.939C187.914 172.856 187.8 172.788 187.664 172.731C186.633 172.47 185.607 172.783 184.581 173.668C183.571 174.559 183.123 175.538 183.248 176.606L176.998 182.085C176.388 180.975 176.076 179.793 176.06 178.543C176.034 177.293 176.425 175.96 177.227 174.543C178.019 173.116 179.368 171.564 181.269 169.897C183.175 168.231 184.883 167.095 186.414 166.481C187.941 165.871 189.316 165.663 190.539 165.856C191.774 166.038 192.904 166.501 193.935 167.251C194.154 167.449 194.357 167.642 194.539 167.835C195.357 168.783 195.675 169.876 195.498 171.126C195.316 172.366 194.748 173.678 193.789 175.064C192.842 176.454 191.852 177.746 190.81 178.939C190.279 179.553 189.816 180.116 189.414 180.626C189.024 181.126 188.748 181.564 188.581 181.939C188.414 182.303 188.404 182.574 188.56 182.751L198.831 173.772L201.873 177.251Z" fill="black"/>
<path d="M217.45 158.084L212.616 164.271L208.97 161.417L200.97 171.646L197.345 168.813L197.887 152.771L202.72 146.584L210.179 152.396L212.054 150L215.679 152.834L213.804 155.23L217.45 158.084ZM205.345 158.584L202.366 156.271L202.22 162.584L205.345 158.584Z" fill="black"/>
</svg>
