<svg width="222" height="220" viewBox="0 0 222 220" fill="none" xmlns="http://www.w3.org/2000/svg">
<mask id="mask0_77_121" style="mask-type:luminance" maskUnits="userSpaceOnUse" x="0" y="0" width="222" height="189">
<path d="M0 0H221.333V189H0V0Z" fill="white"/>
</mask>
<g mask="url(#mask0_77_121)">
<path d="M189.141 124.448C176.88 157.599 144.969 181.302 107.609 181.302C106.615 181.302 105.63 181.26 104.646 181.229C105.109 180.073 105.75 178.974 107.214 177.693C110.766 174.583 113.656 175.25 114.99 172.583C116.323 169.917 115.875 168.141 117.432 164.807C117.734 164.156 118.198 163.448 118.719 162.719C105.583 168.427 92.4115 172.828 79.8698 175.745C79.8386 176.063 79.8073 176.375 79.7917 176.708C79.25 176.526 78.724 176.323 78.1875 176.13C73.6875 177.135 69.2709 177.943 64.974 178.547C77.7917 185.068 92.2709 188.766 107.609 188.766C145.667 188.766 178.521 166.125 193.432 133.604L189.141 124.448ZM70.6094 123.26C68.8334 122.094 68.8855 123.042 68.8855 123.042C68.1771 123.344 69.5 124.151 71.3282 125.026C73.1615 125.901 72.2761 126.484 73.3282 127.167C74.3855 127.854 76.1094 126.703 76.3282 125.542C76.5521 124.375 72.3855 124.427 70.6094 123.26ZM142.365 136.089C140.786 134.292 140.344 132.396 140.474 130.578C69.6875 177.354 -10.3125 173.609 9.65629 120.568C9.75524 120.313 9.81254 119.24 9.74483 118.964C9.16149 116.63 8.68754 114.328 8.30733 112.115C8.23962 111.708 7.65108 111.797 7.42712 112.245C1.28129 124.583 -1.94267 138.427 3.55733 150.224C19.7188 185.818 90.5052 173.365 147.021 138.589C145.214 138.302 143.557 137.448 142.365 136.089ZM76.3386 128.594C77.8855 129.484 77.7552 128.318 79.9584 128.594C82.1615 128.87 82.6615 128.927 82.6615 128.927C82.6615 128.927 84.5677 128.411 83.9948 127.87C82.9948 126.927 82.9948 126.927 82.9948 126.927C82.9948 126.927 81.0521 126.203 79.4948 126.542C77.9427 126.87 74.7917 127.703 76.3386 128.594ZM121.599 66.1094C124.599 64.776 124.932 61.4427 130.427 60.4427C135.927 59.4427 138.594 59.1094 139.76 53.9427C140.927 48.776 143.427 48.276 143.427 43.9427C143.427 39.6146 144.094 32.4479 146.427 29.9479C148.76 27.4479 153.589 24.7813 148.594 25.1146C143.594 25.4479 146.26 25.1146 140.427 24.6146C134.594 24.1146 134.094 23.2813 136.76 22.6146C139.427 21.9479 143.26 22.2812 142.26 20.2865C141.26 18.2812 140.594 15.2865 135.594 16.4531C130.594 17.6198 127.49 20.9479 122.708 21.6146C117.932 22.2813 115.932 22.7813 114.432 25.6146C112.932 28.4479 108.099 28.2813 105.932 30.9479C103.766 33.6146 103.599 37.4479 107.099 37.2813C110.599 37.1146 112.599 39.4479 112.599 43.1094C112.599 46.776 115.432 52.6094 113.099 55.4427C110.766 58.276 109.432 61.4427 111.599 66.1094C113.766 70.7708 115.432 76.7708 117.432 74.4375C119.432 72.1042 119.432 72.1042 119.432 72.1042C119.432 72.1042 118.599 67.4427 121.599 66.1094ZM45.4167 155.005C30.1302 139.339 20.6927 117.953 20.6927 94.3854C20.6927 85.9479 21.9219 77.8021 24.1771 70.0833C24.3125 71.1354 24.8438 72.2448 26.3386 73.9375C29.6719 77.7188 31.0052 83.0469 29.0052 87.7135C27.0052 92.3802 24.7865 96.1563 26.3386 99.7135C27.8959 103.266 26.2188 105.266 29.948 107.266C33.6719 109.266 34.3386 111.708 36.1146 114.818C37.8959 117.927 37.8959 117.927 37.8959 117.927C37.8959 117.927 42.3386 120.818 42.3386 124.594C42.3386 128.37 45 129.927 49 130.37C53 130.818 53.224 129.927 56.3334 131.703C59.4427 133.479 62.3334 131.26 62.3334 135.26C62.3334 139.26 63.4427 143.479 67 141.703C70.5521 139.927 72.3282 140.094 72.5521 142.12C72.7761 144.146 74.3282 144.37 70.5521 146.589C66.7761 148.813 68.7761 147.703 67.6667 151.698C67.5417 152.141 67.4219 152.49 67.3073 152.797C77.5469 150.797 88.7604 147.422 100.385 142.589C97.1302 141.443 98.1407 142.911 94.9896 140.813C91.6615 138.594 92.7709 135.26 88.1042 134.818C83.4375 134.37 83.4375 134.37 83.4375 134.37C83.4375 134.37 83.8855 133.26 79.2188 134.594C74.5521 135.927 74.3282 135.479 71.2188 136.594C68.1094 137.703 64.3334 136.146 66.3334 134.146C68.3334 132.151 68.3334 132.151 68.3334 132.151C68.3334 132.151 69.6667 129.703 66.3334 128.818C63 127.927 60.1094 129.964 62.3334 127.167C64.5521 124.375 65.6667 120.594 62.3334 121.927C59 123.26 59.8855 125.703 57 126.151C54.1094 126.594 51.448 125.703 51.448 123.708C51.448 121.708 49.224 120.818 52.5573 117.927C55.8907 115.042 51.6667 113.708 57.8907 114.599C64.1094 115.484 65.4427 112.599 67.8855 116.151C70.3334 119.708 71.4427 122.375 71.6615 121.26C71.8855 120.151 71.2188 116.375 71.8855 114.151C72.5521 111.932 73.4427 113.042 76.7761 110.151C80.1042 107.266 77.6094 106.849 78.5209 105.432C79.4427 104.016 78.9375 101.849 81.2709 101.349C83.6042 100.849 85.4375 99.7656 86.5209 98.349C87.6042 96.9323 87.5209 96.0156 90.1042 96.0156C92.6875 96.0156 92.6875 96.0156 92.6875 96.0156C92.6875 96.0156 97.8542 95.5156 97.0209 94.0156C96.1875 92.5156 95.7709 92.8542 94.4375 93.2708C93.1042 93.6875 91.3542 93.0208 92.1875 91.9323C93.0209 90.8542 93.6042 90.0208 92.1875 89.1042C90.7709 88.1875 91.3542 87.9375 94.6875 87.8542C98.0209 87.7708 100.271 85.0208 100.104 86.9375C99.9375 88.8542 97.6042 91.0208 99.2709 91.3542C100.938 91.6823 104.349 92.6823 105.182 92.1875C106.016 91.6823 106.349 90.6875 104.766 90.5208C103.188 90.3542 102.438 90.1042 102.104 88.8542C101.771 87.6042 104.182 84.1875 102.266 82.1042C100.354 80.0208 98.1875 81.7708 97.9375 78.8542C97.6875 75.9375 98.1042 69.7708 96.8542 71.1875C95.6042 72.6042 93.1042 76.6042 92.2709 74.7708C91.4375 72.9375 94.0209 71.2708 92.2709 70.1042C90.5209 68.9375 88.6875 65.8594 86.9375 66.2708C85.1875 66.6875 84.5209 66.1094 84.4375 68.1042C84.3542 70.1042 82.8542 70.8542 82.9375 73.6042C83.0209 76.3542 84.1042 76.6042 82.1875 79.5208C80.2709 82.4375 80.1042 83.0208 80.1042 83.0208C80.1042 83.0208 79.6875 86.5208 77.8542 85.1042C76.0261 83.6875 76.0261 83.6875 76.0261 83.6875C76.0261 83.6875 78.9375 79.6875 76.9427 78.7708C74.9427 77.8542 73.5261 77.4375 72.0261 75.6042C70.5261 73.7708 66.3594 70.1875 69.5261 67.4427C72.6927 64.6927 73.8594 64.1927 75.4427 62.6927C77.0209 61.1927 77.4375 61.6094 78.0261 62.526C78.6094 63.4427 79.4427 63.1094 82.0209 63.6927C84.6042 64.276 84.9375 63.1927 83.5209 61.1094C82.1042 59.026 81.5209 59.526 83.4375 58.026C85.3542 56.526 88.2709 53.526 88.1875 51.9427C88.1042 50.3594 89.9375 49.1094 90.8542 51.526C91.7709 53.9427 94.3542 53.9427 93.4375 56.276C92.5209 58.6094 92.8542 59.8594 90.5209 60.3594C88.1875 60.8594 86.1042 62.1094 88.4375 62.9427C90.7709 63.776 91.2709 63.6927 91.9375 65.276C92.6042 66.8594 94.9375 69.1875 95.9375 68.3542C96.9375 67.5208 98.1875 67.8594 97.6042 65.3594C97.0209 62.8594 96.1042 58.776 97.6875 60.526C99.2709 62.276 100.521 63.276 101.521 61.8594C102.516 60.4427 103.599 60.6927 101.771 58.276C99.9375 55.8594 96.5209 55.9427 98.1042 54.6094C99.6875 53.276 103.021 53.4427 98.9375 50.276C94.8542 47.1094 97.1875 45.026 94.6042 43.3646C92.0209 41.6979 89.8542 40.6146 88.1875 42.1979C86.5209 43.7813 87.0209 39.7813 88.0209 37.3646C89.0209 34.9479 91.0209 35.3646 93.6875 34.3646C96.3542 33.3646 102.682 30.7813 104.349 27.7813C106.016 24.7813 109.599 23.2813 111.266 22.1146C112.932 20.9479 117.432 19.6198 116.266 17.2865C115.099 14.9531 115.182 13.4531 111.182 14.2865C107.182 15.1198 103.682 16.1198 98.8542 16.7031C94.0209 17.2865 93.0209 17.8646 89.2709 19.3646C85.5209 20.8698 78.9375 20.6979 74.1927 22.1146C69.4427 23.5313 66.1094 23.2813 64.8594 26.0313C63.6094 28.7813 63.1927 29.5313 59.0261 32.1146C54.8594 34.6979 52.5313 35.4479 53.7813 37.9479C55.0313 40.4479 59.7761 45.1094 57.5261 45.6979C55.2761 46.276 51.698 41.3646 48.5313 40.9479C45.3646 40.5313 42.0313 43.276 40.0313 41.9479C39.7188 41.7344 39.3594 41.4531 38.9792 41.1458C54.8959 20.6771 79.7344 7.46875 107.609 7.46875C139.328 7.46875 167.12 24.5521 182.297 49.9948C179.406 50.5781 178.276 51.2813 178.979 54.6094C179.87 58.8333 182.089 60.6094 183.87 60.6094C184.906 60.6094 181.781 62.2083 179.714 63.8021C179.927 63.7917 180.141 63.7813 180.323 63.7813C182.302 63.7813 184.068 64.224 185.583 64.974C185.823 64.7813 186.063 64.5833 186.313 64.3854C187.974 63.0573 188.391 62.724 188.495 62.6354C188.938 63.7656 189.354 64.9063 189.755 66.0521L196.641 63.099C183.703 26.3906 148.688 0 107.609 0C55.5677 0 13.224 42.3438 13.224 94.3854C13.224 117 21.2292 137.776 34.5417 154.047C37.8334 154.635 41.474 154.964 45.4167 155.005ZM188.708 105.958C179.75 112.417 169.594 119.26 161.646 124.203L162.536 140.693L158.365 144.349L152.297 129.656C149.854 130.927 148.281 131.516 147.974 131.161C147.667 130.813 148.458 129.333 150.036 127.073L136.24 119.151L140.411 115.49L156.677 118.51C162.62 111.276 170.729 102.094 178.281 94.0625L143.146 71.6094L147.281 67.9792L173.589 75.3281C175.5 73.3073 176.047 72.8646 176.474 72.4896C178.313 70.875 181.917 71.0156 182.682 71.8854C183.391 72.6927 183.016 75.9219 181.625 77.5781L192.026 80.4844C195.203 77.5573 197.5 75.5729 198.198 74.9635C203.401 70.3958 218.464 65.4271 220.375 67.599C222.287 69.776 214.969 84.4531 210.203 88.6354C209.375 89.3646 207.135 91.3698 203.932 94.0677L205.464 104.734C207.287 103.568 210.537 103.615 211.245 104.422C212.01 105.292 211.682 108.885 209.844 110.5C209.417 110.875 208.906 111.359 206.651 112.995L210.537 140.026L206.401 143.661L188.708 105.958Z" fill="white"/>
</g>
<path d="M40.8914 205.614L21.8706 194.614L24.1831 190.614C24.7352 189.655 25.4644 189.03 26.3706 188.739C27.2716 188.447 28.2664 188.364 29.3498 188.489C30.4435 188.614 31.5581 188.859 32.6831 189.218C33.8081 189.567 34.8758 189.926 35.8914 190.301C37.2352 190.817 38.3498 191.171 39.2248 191.364C39.8914 191.504 40.3133 191.416 40.4956 191.093C40.5477 190.999 40.5789 190.874 40.5789 190.718C40.506 189.666 39.881 188.796 38.7039 188.114C37.5373 187.437 36.4644 187.322 35.4956 187.78L28.3081 183.635C29.1675 182.692 30.1831 182.01 31.3498 181.593C32.5269 181.166 33.9175 181.103 35.5164 181.405C37.1258 181.713 39.0216 182.499 41.2039 183.76C43.3966 185.025 45.0269 186.275 46.0998 187.51C47.1675 188.749 47.8133 189.984 48.0373 191.218C48.256 192.458 48.1831 193.687 47.8081 194.905C47.6831 195.166 47.5581 195.416 47.4331 195.655C46.8081 196.739 45.8758 197.39 44.6414 197.614C43.4019 197.833 41.9748 197.718 40.3498 197.26C38.7248 196.801 37.1883 196.27 35.7456 195.676C34.9956 195.369 34.3133 195.114 33.7039 194.905C33.0894 194.697 32.5841 194.572 32.1831 194.53C31.7769 194.489 31.5164 194.572 31.3914 194.78L43.2039 201.614L40.8914 205.614Z" fill="white"/>
<path d="M55.1607 211.515C51.3951 210.192 48.9315 208.317 47.7649 205.89C46.7492 203.765 46.7284 201.328 47.7024 198.578C48.6607 195.843 50.2024 193.953 52.3274 192.911C54.7544 191.76 57.8534 191.843 61.619 193.161C65.3794 194.484 67.8326 196.349 68.9732 198.765C70.0149 200.921 70.0565 203.364 69.0982 206.099C68.1242 208.849 66.5617 210.729 64.4107 211.744C62.0044 212.911 58.9211 212.833 55.1607 211.515ZM56.8065 206.807C58.1659 207.276 59.2857 207.057 60.1607 206.14C60.7544 205.531 61.2649 204.64 61.6815 203.474C62.0826 202.322 62.244 201.322 62.1607 200.474C62.0461 199.213 61.3117 198.343 59.9524 197.869C58.5878 197.401 57.4732 197.614 56.5982 198.515C55.9992 199.13 55.4992 200.01 55.0982 201.161C54.6815 202.317 54.5149 203.322 54.5982 204.182C54.7076 205.463 55.4419 206.338 56.8065 206.807Z" fill="white"/>
<path d="M91.0077 219.053L69.2993 215.74L70.0076 211.178C70.1743 210.084 70.617 209.235 71.341 208.636C72.0754 208.027 72.9764 207.584 74.0493 207.303C75.117 207.011 76.2368 206.834 77.4035 206.761C78.5806 206.693 79.716 206.646 80.7993 206.615C82.2577 206.615 83.4243 206.542 84.2993 206.386C84.9504 206.292 85.3045 206.053 85.3618 205.678C85.3722 205.568 85.367 205.443 85.341 205.303C84.867 204.344 83.9556 203.761 82.6118 203.553C81.2785 203.344 80.2472 203.636 79.5285 204.428L71.2993 203.157C71.7576 201.964 72.4556 200.964 73.4035 200.157C74.3462 199.339 75.617 198.777 77.216 198.469C78.8254 198.167 80.8827 198.209 83.3827 198.594C85.8827 198.969 87.8514 199.547 89.2993 200.323C90.742 201.089 91.7889 202.006 92.4452 203.073C93.0962 204.131 93.4712 205.297 93.5702 206.573C93.5545 206.865 93.5337 207.146 93.5077 207.407C93.3097 208.646 92.6743 209.589 91.591 210.24C90.5181 210.896 89.1431 211.313 87.466 211.49C85.7993 211.657 84.1743 211.719 82.591 211.678C81.7993 211.667 81.0754 211.672 80.4243 211.698C79.7837 211.73 79.2629 211.797 78.8618 211.907C78.4712 212.021 78.2629 212.193 78.2368 212.428L91.716 214.49L91.0077 219.053Z" fill="white"/>
<path d="M115.703 218.643L107.869 218.935L107.703 214.31L94.7234 214.789L94.5568 210.185L107.182 200.268L115.015 199.977L115.369 209.414L118.411 209.31L118.578 213.914L115.536 214.018L115.703 218.643ZM107.536 209.706L107.39 205.935L102.453 209.893L107.536 209.706Z" fill="white"/>
<path d="M139.799 214.186C137.366 214.869 135.33 215.16 133.695 215.061C132.054 214.968 130.715 214.572 129.674 213.874C128.642 213.166 127.83 212.265 127.236 211.166L135.236 208.916C136.07 209.582 137.137 209.738 138.445 209.374C139.721 209.015 140.538 208.327 140.903 207.311C140.929 207.218 140.934 207.134 140.924 207.061C140.851 206.843 140.497 206.759 139.861 206.811C139.236 206.853 138.32 207.02 137.111 207.311C135.611 207.66 133.997 207.936 132.278 208.145C128.445 208.603 126.195 207.645 125.528 205.27C125.476 205.061 125.424 204.848 125.382 204.624C125.314 203.348 125.544 202.145 126.07 201.02C126.585 199.884 127.517 198.843 128.861 197.895C130.205 196.952 132.096 196.14 134.528 195.457C136.945 194.78 138.971 194.488 140.611 194.582C142.247 194.681 143.58 195.082 144.611 195.791C145.637 196.488 146.45 197.395 147.049 198.52L139.049 200.77C138.215 200.093 137.158 199.931 135.882 200.291C134.575 200.655 133.741 201.348 133.382 202.374C133.366 202.447 133.366 202.515 133.382 202.582C133.434 202.78 133.762 202.843 134.361 202.77C134.971 202.702 135.84 202.551 136.965 202.311C138.101 202.061 139.325 201.843 140.632 201.645C141.934 201.436 143.184 201.363 144.382 201.416C145.59 201.473 146.611 201.78 147.445 202.332C148.07 202.765 148.497 203.41 148.736 204.27C148.804 204.509 148.861 204.77 148.903 205.061C148.971 206.311 148.747 207.509 148.236 208.645C147.721 209.77 146.788 210.806 145.445 211.749C144.096 212.697 142.215 213.509 139.799 214.186Z" fill="white"/>
<path d="M165.774 203.992C161.66 206.09 158.196 206.794 155.378 206.096C152.92 205.486 151.024 203.882 149.691 201.283C148.373 198.7 148.186 196.221 149.128 193.846C150.212 191.169 152.811 188.778 156.92 186.679C159.321 185.445 161.446 184.7 163.295 184.45C165.154 184.2 166.764 184.335 168.128 184.846C169.503 185.361 170.649 186.158 171.566 187.242L164.232 190.992C162.842 190.075 161.16 190.127 159.191 191.137C157.509 192.002 156.524 193.111 156.232 194.471C155.967 195.596 156.107 196.679 156.649 197.721C157.191 198.794 157.988 199.549 159.045 199.992C160.321 200.549 161.8 200.398 163.482 199.533C165.451 198.523 166.482 197.179 166.566 195.512L173.899 191.762C174.243 193.169 174.222 194.57 173.837 195.971C173.446 197.377 172.607 198.757 171.316 200.117C170.024 201.465 168.175 202.757 165.774 203.992Z" fill="white"/>
<path d="M200.6 179.039L194.87 183.706C194.297 183.57 193.735 183.263 193.183 182.789C192.735 182.43 192.245 182.117 191.704 181.852C191.172 181.576 190.563 181.487 189.87 181.581C189.172 181.68 188.37 182.091 187.454 182.81L183.495 186.06L186.912 190.227L180.85 195.185L169.016 180.727L178.891 172.643C181.251 170.716 183.297 169.341 185.037 168.518C186.787 167.685 188.292 167.372 189.558 167.581C190.834 167.789 191.975 168.508 192.975 169.727C193.808 170.742 194.277 171.784 194.391 172.852C194.501 173.909 194.214 175.049 193.537 176.268C194.839 175.867 195.86 175.831 196.6 176.164C197.334 176.487 198.001 176.951 198.6 177.56C199.152 178.102 199.818 178.596 200.6 179.039ZM180.579 182.477L184.037 179.622C184.995 178.831 185.714 178.164 186.204 177.622C186.704 177.081 187.021 176.633 187.162 176.268C187.313 175.909 187.35 175.602 187.266 175.352C187.193 175.102 187.079 174.883 186.912 174.685C186.756 174.492 186.563 174.331 186.329 174.206C186.089 174.081 185.777 174.055 185.391 174.122C185.016 174.18 184.506 174.393 183.87 174.768C183.245 175.133 182.454 175.706 181.495 176.497L178.016 179.352L180.579 182.477Z" fill="white"/>
<path d="M211.598 166.426C208.723 170.024 205.868 172.087 203.035 172.613C200.525 173.087 198.118 172.415 195.827 170.592C193.566 168.79 192.379 166.603 192.264 164.03C192.139 161.155 193.514 157.92 196.389 154.321C198.087 152.196 199.723 150.634 201.306 149.634C202.889 148.623 204.4 148.071 205.848 147.988C207.306 147.894 208.681 148.144 209.973 148.738L204.848 155.196C203.207 154.936 201.697 155.676 200.306 157.426C199.139 158.899 198.702 160.321 198.993 161.696C199.217 162.811 199.785 163.733 200.702 164.467C201.65 165.217 202.686 165.582 203.827 165.551C205.228 165.524 206.514 164.774 207.681 163.301C209.066 161.551 209.452 159.905 208.827 158.363L213.952 151.905C214.837 153.045 215.394 154.332 215.618 155.759C215.853 157.191 215.665 158.795 215.056 160.571C214.441 162.353 213.29 164.301 211.598 166.426Z" fill="white"/>
</svg>
