<svg width="700" height="175" viewBox="0 0 700 175" fill="none" xmlns="http://www.w3.org/2000/svg">
<path d="M19.6817 73.5029C17.3236 72.3544 14.9655 96.4725 17.3236 107.957C17.693 109.756 46.8001 134.372 46.8001 134.372L53.8745 157.342H91.6044C93.9626 157.342 92.7835 160.788 97.4997 160.788C102.216 160.788 101.037 157.342 103.395 157.342H145.841L154.095 134.372C154.095 134.372 182.245 109.106 182.392 107.957C182.982 103.363 184.161 83.8392 180.034 73.5029C179.43 71.9891 125.797 129.779 125.797 129.779C125.797 129.779 175.711 62.0181 175.318 60.8696C171.781 50.5332 162.348 41.3454 161.169 41.3454C159.99 41.3454 115.186 125.185 115.186 125.185C115.186 125.185 153.273 33.654 152.916 33.306C149.968 30.4348 141.125 24.8359 134.051 21.8212C133.476 21.5761 106.932 122.888 106.932 122.888C106.932 122.888 123.989 18.7775 123.439 18.3757C118.723 14.9303 106.343 13.2075 104.574 13.7818C103.783 14.0386 98.6788 121.739 98.6788 121.739C98.6788 121.739 95.1416 16.0788 93.9626 14.9303C92.7835 13.7818 79.8138 14.356 76.2766 16.0788C74.7852 16.8051 91.6044 121.739 91.6044 121.739C91.6044 121.739 65.8043 21.2469 64.486 21.2469C62.1279 21.2469 51.5164 25.2666 45.621 33.306C44.3856 34.9908 82.1719 122.888 82.1719 122.888C82.1719 122.888 39.1362 41.3454 37.3676 41.3454C36.1886 41.3454 26.7561 49.3847 23.2189 63.1665C22.9259 64.3079 72.7395 128.63 72.7395 128.63C72.7395 128.63 22.0398 74.6514 19.6817 73.5029Z" fill="#FFFE03"/>
<path fill-rule="evenodd" clip-rule="evenodd" d="M44.442 169.975H88.6568C92.194 169.975 92.7835 173.804 95.1416 174.569C96.9102 175.144 98.0893 175.144 99.8578 174.569C102.216 173.804 102.806 169.975 106.343 169.975H152.916L162.348 143.56C162.348 143.56 191.825 117.145 194.183 112.551C196.541 107.957 197.72 90.7301 195.362 76.9483C193.004 63.1665 180.624 41.9196 170.602 31.009C160.58 20.0984 136.409 0 99.8578 0C63.3069 0 43.8525 14.356 25.577 32.1575C7.30155 49.959 4.35395 68.3347 1.99578 76.9483C-0.362379 85.5619 -0.951869 109.68 1.99578 112.551C4.94344 115.422 35.0095 143.56 35.0095 143.56L44.442 169.975ZM17.3236 107.957C14.9655 96.4725 17.3236 72.3544 19.6817 73.5029C22.0398 74.6514 72.7395 128.63 72.7395 128.63C72.7395 128.63 22.9259 64.3079 23.2189 63.1665C26.7561 49.3847 36.1886 41.3454 37.3676 41.3454C39.1362 41.3454 82.1719 122.888 82.1719 122.888C82.1719 122.888 44.3856 34.9908 45.621 33.306C51.5164 25.2666 62.1279 21.2469 64.486 21.2469C65.8043 21.2469 91.6044 121.739 91.6044 121.739C91.6044 121.739 74.7852 16.8051 76.2766 16.0788C79.8138 14.356 92.7835 13.7818 93.9626 14.9303C95.1416 16.0788 98.6788 121.739 98.6788 121.739C98.6788 121.739 103.783 14.0386 104.574 13.7818C106.343 13.2075 118.723 14.9303 123.439 18.3757C123.989 18.7775 106.932 122.888 106.932 122.888C106.932 122.888 133.476 21.5761 134.051 21.8212C141.125 24.8359 149.968 30.4348 152.916 33.306C153.273 33.654 115.186 125.185 115.186 125.185C115.186 125.185 159.99 41.3454 161.169 41.3454C162.348 41.3454 171.781 50.5332 175.318 60.8696C175.711 62.0181 125.797 129.779 125.797 129.779C125.797 129.779 179.43 71.9891 180.034 73.5029C184.161 83.8392 182.982 103.363 182.392 107.957C182.245 109.106 154.095 134.372 154.095 134.372L145.841 157.342H103.395C101.037 157.342 102.216 160.788 97.4997 160.788C92.7835 160.788 93.9626 157.342 91.6044 157.342H53.8745L46.8001 134.372C46.8001 134.372 17.693 109.756 17.3236 107.957Z" fill="#FE0200"/>
<path d="M348.64 40.1969V168.827H386.37L386.37 114.274C386.37 112.551 389.279 106.338 394.623 103.363C398.75 101.066 406.414 101.066 409.951 102.215C415.587 104.045 420.562 110.254 420.562 114.274V168.827H459.472L459.472 104.512C459.472 99.918 455.645 90.1559 451.218 86.1362C445.193 80.6657 439.228 76.3325 431.174 74.6514C424.421 73.2417 419.174 73.9084 412.309 74.6514C401.698 75.7998 387.549 84.9877 387.549 84.9877V40.1969H348.64Z" fill="#FE0200"/>
<path fill-rule="evenodd" clip-rule="evenodd" d="M510.171 132.075H586.81C586.81 132.075 587.387 124.344 586.81 119.442C585.514 108.437 583.373 101.622 576.199 93.0271C569.511 85.0158 563.719 81.7306 553.796 78.0968C545.08 74.9047 539.527 74.6514 530.215 74.6514C520.903 74.6514 515.356 74.9206 506.634 78.0968C496.105 81.9309 489.998 85.566 483.053 94.1756C475.225 103.879 472.321 111.697 472.441 124.036C472.508 130.897 473.299 134.918 475.978 141.263C479.482 149.559 483.167 153.766 490.127 159.639C497.6 165.944 503.024 168.476 512.529 171.124C519.668 173.112 523.97 173.48 531.394 173.421C538.362 173.365 542.33 172.809 549.08 171.124L549.552 171.006C559.062 168.633 565.144 167.115 572.661 160.788C579.426 155.093 584.452 148.154 585.631 142.412H550.259C546.722 147.006 540.237 151.6 531.394 151.6C525.499 151.6 521.152 150.05 517.246 147.006C511.35 142.412 510.171 136.669 510.171 132.075ZM550.259 113.7H510.171C510.171 113.7 511.35 95.324 530.215 95.324C549.08 95.324 550.259 113.7 550.259 113.7Z" fill="#FE0200"/>
<path d="M600.959 40.1969V168.827H639.868V40.1969H600.959Z" fill="#FE0200"/>
<path d="M661.091 40.1969V168.827H700V40.1969H661.091Z" fill="#FE0200"/>
<path d="M211.869 127.482C211.869 127.482 210.69 140.799 221.301 153.897C228.106 162.295 237.808 166.677 244.882 168.827C250.664 170.584 260.21 171.124 260.21 171.124C260.21 171.124 277.778 172.599 287.329 171.124C307.472 168.012 322.7 161.362 330.364 147.006C337.165 134.266 336.899 122.825 329.775 110.254C321.214 95.1487 301.477 90.7301 289.687 89.5816C277.896 88.4331 264.337 86.7104 257.852 81.5423C251.367 76.3741 253.136 70.6317 256.673 67.7605C260.21 64.8893 266.695 63.4798 277.896 65.4635C284.381 66.612 288.508 71.7802 290.866 80.3938H329.775C329.775 67.7605 324.017 56.6148 317.395 51.6817C307.373 44.2166 300.888 37.7821 280.254 36.7514C257.263 35.603 246.061 38.4742 234.271 44.7908C222.48 51.1075 216.585 61.4438 214.227 66.612C211.869 71.7802 211.869 82.6907 214.227 90.7301C216.585 98.7695 224.387 103.529 233.092 109.106C243.677 115.886 250.867 117.09 263.747 119.442C273.18 121.165 279.075 120.591 288.508 124.036C294.992 126.405 297.307 131.799 293.813 137.244C290.866 141.838 287 142 281 142.5C276.983 142.835 271 143 266.105 142.412C254.399 141.005 250.778 127.482 250.778 127.482H211.869Z" fill="#FE0200"/>
</svg>
