<svg width="744" height="175" viewBox="0 0 744 175" fill="none" xmlns="http://www.w3.org/2000/svg">
<path d="M214.697 41.1625V88.3291C214.697 93.3247 212.153 94.1056 209.695 94.8899V96.5598H231.469V94.8899C229.022 94.0986 226.47 93.3386 226.47 88.3291V41.1625C226.47 38.3213 227.352 37.6276 231.082 37.6276C241.279 37.6276 246.278 37.8298 249.903 43.4912L251.176 42.7138L247.062 30.6276H194.008L189.891 42.7138L191.166 43.4912C195.58 37.903 199.01 37.6276 210.089 37.6276C213.812 37.6346 214.697 38.3213 214.697 41.1625ZM239.504 47.9255C242.736 48.8075 244.409 49.5918 244.409 54.4898V88.3256C244.409 93.3212 242.746 94.1021 239.504 94.8864V96.5598H280.588L285.291 84.7629L284.008 83.8844C279.891 89.3087 275.575 90.5498 269.893 90.5498H259.298C255.969 90.5498 255.185 90.4766 255.185 87.2101V73.0985H268.024C273.023 73.0985 273.804 74.2872 274.599 77.226H276.551V63.1143H274.599C273.804 66.0601 273.023 67.3395 268.024 67.3395H255.188V55.4728C255.188 53.0186 255.973 52.2134 259.302 52.2134C259.302 52.2134 267.543 52.2134 268.324 52.2134C274.104 52.2134 277.151 53.7019 281.56 58.3837L282.833 57.5122L278.719 46.2347H239.504V47.9255ZM292.343 53.7159L304.9 71.4461L293.026 88.3117C289.404 93.4014 287.25 94.0812 283.907 94.8725V96.5388H302.934V94.8725C299.305 94.1857 297.736 92.8053 300.187 88.9985L308.497 76.0302L317.247 88.6359C320.483 93.248 317.045 94.503 314.1 94.9074V96.5807H348.511V94.9074C345.08 94.3217 343.512 93.1399 345.272 88.4442L347.514 82.5806H368.113L370.274 88.4442C371.651 92.2789 371.156 94.3217 367.133 94.9074V96.5807H388.315V94.9074C385.864 94.1195 383.608 92.0871 382.535 89.2181L366.161 46.2661H354.984L339.297 86.2898C337.627 90.4173 336.111 92.4044 334.441 93.5304C333.151 92.7146 331.959 91.4317 330.373 89.239L316.585 69.6577L327.73 53.9146C330.672 49.6929 333.13 48.8179 336.069 47.9255V46.2522H318.119V47.9255C321.839 48.2183 322.923 50.2856 320.765 53.4997L312.991 65.0142L305.966 54.4689C303.024 50.1566 305.175 48.3891 308.417 47.8802V46.2173H284.597V47.8802C287.926 48.8075 289.599 49.787 292.343 53.7159ZM358.028 54.9813L366.084 76.9471H349.661L358.028 54.9813ZM392.937 96.5598C392.937 95.7615 393.722 94.0951 394.694 94.0951C396.939 95.1828 400.777 97.4278 407.83 97.4278C419.7 97.4278 428.025 91.5538 428.025 81.5522C428.025 72.1398 422.827 68.3086 412.825 66.0601L403.706 63.9963C398.511 62.8215 396.845 61.319 396.845 58.1188C396.845 54.3922 399.78 51.9414 406.257 51.9414C413.505 51.9414 419.198 55.3787 423.315 60.1198L424.594 59.2378L420.871 46.2835H418.515C418.515 47.3677 418.03 48.539 417.043 48.539C414.879 47.3607 411.549 45.5061 405.867 45.5061C395.67 45.5061 387.732 50.791 387.732 60.4022C387.732 67.7369 392.146 72.3455 401.753 74.5103L410.381 76.4695C416.161 77.714 418.222 79.7952 418.222 83.4312C418.222 88.4267 414.209 91.0762 407.634 91.0762C398.417 91.0762 392.54 86.241 387.732 80.6842L386.45 81.5661L390.473 96.5702L392.937 96.5598Z" fill="black"/>
<path d="M209.288 109.887C212.331 110.765 214.775 111.553 214.775 116.455V165.891C214.775 170.886 212.328 171.674 209.288 172.452V174.118H232.038V172.452C228.998 171.667 226.544 170.897 226.544 165.891V116.455C226.544 111.539 228.998 110.759 232.038 109.887V108.217H209.288V109.887ZM271.741 125.477C274.68 126.355 276.353 127.143 276.353 132.045V152.64H276.06L250.765 123.803H235.967V125.477C238.909 126.725 240.872 127.722 240.872 132.041V165.873C240.872 170.576 239.205 171.66 235.967 172.434V174.108H252.731V172.434C250.082 171.65 247.537 170.58 247.537 165.873V136.657H247.83L281.265 174.798H283.022V132.041C283.022 127.136 285.48 126.348 287.442 125.477V123.8H271.755L271.741 125.477ZM315.572 143.618L306.452 141.561C301.254 140.383 299.584 138.881 299.584 135.677C299.584 131.968 302.53 129.493 308.99 129.493C316.251 129.493 321.944 132.933 326.058 137.671L327.337 136.789L323.617 123.835H321.257C321.257 124.919 320.769 126.094 319.79 126.094C317.628 124.915 314.303 123.061 308.617 123.061C298.406 123.061 290.447 128.346 290.447 137.957C290.447 145.288 294.864 149.9 304.472 152.069L313.086 154.028C318.873 155.272 320.94 157.357 320.94 160.989C320.94 165.985 316.935 168.606 310.346 168.606C301.15 168.606 295.216 163.803 290.44 158.235L289.161 159.11L293.18 174.09H295.631C295.631 173.295 296.419 171.646 297.395 171.646C299.64 172.734 303.475 174.979 310.531 174.979C322.39 174.979 330.722 169.115 330.722 159.114C330.767 149.698 325.57 145.867 315.572 143.618ZM333.71 123.807L329.683 136.761L330.966 137.64C336.356 130.476 337.83 129.792 344.984 129.792C347.441 129.792 348.219 129.991 348.219 133.028V165.88C348.219 170.872 346.751 171.653 342.735 172.441V174.111H364.31V172.441C360.382 171.65 358.813 170.914 358.813 165.88V133.028C358.813 129.991 359.601 129.792 362.058 129.792C369.226 129.792 371.108 130.451 376.466 137.64L377.749 136.761L373.73 123.807H333.71ZM421.06 159.208C418.024 154.307 414.897 152.142 411.268 151.26V150.967C419.889 149.59 424.804 145.086 424.804 137.723C424.804 127.955 416.964 123.793 404.32 123.793H378.534V125.47C381.797 126.345 383.449 127.136 383.449 132.034V165.873C383.449 170.869 381.783 171.646 378.534 172.434V174.104H399.607V172.434C396.567 171.643 394.507 170.872 394.507 165.873V153.317H399.705C405.784 153.317 406.663 155.764 410.588 164.005C413.83 170.771 418.142 174.979 426.272 174.979C430.403 174.979 432.062 174.181 433.725 173.309V171.932C427.143 170.97 424.982 165.584 421.06 159.208ZM403.128 147.446H394.493V134.105C394.493 130.866 395.291 129.991 397.756 129.991H403.334C409.413 129.991 412.955 132.348 412.955 138.225C412.927 144.406 408.908 147.446 403.128 147.446ZM465.675 125.477C468.216 126.076 470.674 127.143 470.674 132.045V156.851C470.674 165.093 467.54 168.725 458.229 168.725C448.328 168.725 444.79 165.093 444.79 156.851V132.045C444.79 127.143 446.648 126.062 449.705 125.477V123.807H429.12V125.477C432.153 125.968 434.116 127.143 434.116 132.045V157.643C434.116 171.064 445.78 175 456.772 175C469.025 175 477.744 170.869 477.744 156.834V132.031C477.744 127.126 479.236 126.163 482.269 125.459V123.796H465.696L465.675 125.477ZM517.841 156.464L503.318 123.807H485.288V125.477C488.526 126.355 490.193 127.143 490.193 132.045V165.877C490.193 170.28 488.328 171.448 485.288 172.438V174.111H501.271V172.438C497.939 171.566 496.471 170.28 496.471 165.877V134.307L514.602 174.899H515.983L533.629 134.307V165.877C533.629 170.872 531.475 171.74 529.028 172.438V174.111H549.609V172.438C546.378 171.65 544.708 170.883 544.708 165.877V132.045C544.708 127.143 546.378 126.352 549.609 125.477V123.807H531.869L517.841 156.464ZM583.926 168.129H573.336C570.003 168.129 569.219 168.056 569.219 164.803V150.692H582.068C587.06 150.692 587.855 151.859 588.632 154.805H590.592V140.697H588.632C587.855 143.636 587.071 144.915 582.068 144.915H569.219V133.052C569.219 130.601 570.003 129.806 573.336 129.806C573.336 129.806 581.57 129.806 582.358 129.806C588.138 129.806 591.174 131.285 595.601 135.963L596.867 135.081L592.732 123.803H553.514V125.48C556.763 126.355 558.422 127.147 558.422 132.045V165.884C558.422 170.879 556.759 171.664 553.514 172.441V174.114H594.597L599.307 162.318L598.024 161.439C593.921 166.86 589.605 168.129 583.926 168.129ZM636.28 125.477C639.215 126.355 640.896 127.143 640.896 132.045V152.64H640.586L615.298 123.803H600.485V125.477C603.434 126.725 605.397 127.722 605.397 132.041V165.873C605.397 170.576 603.724 171.66 600.485 172.434V174.108H617.253V172.434C614.569 171.65 612.059 170.58 612.059 165.873V136.657H612.348L645.78 174.798H647.565V132.041C647.565 127.136 650.015 126.348 651.971 125.477V123.8H636.291L636.28 125.477ZM656.573 123.807L652.557 136.761L653.833 137.64C659.226 130.476 660.7 129.792 667.854 129.792C670.304 129.792 671.092 129.991 671.092 133.028V165.88C671.092 170.872 669.624 171.653 665.609 172.441V174.111H687.187V172.441C683.255 171.65 681.69 170.914 681.69 165.88V133.028C681.69 129.991 682.488 129.792 684.953 129.792C692.113 129.792 693.992 130.451 699.354 137.64L700.63 136.761L696.614 123.807H656.573ZM728.344 143.618L719.231 141.561C714.041 140.383 712.378 138.881 712.378 135.677C712.378 131.968 715.31 129.493 721.773 129.493C729.024 129.493 734.717 132.933 738.844 137.671L740.078 136.789L736.386 123.835H734.002C734.002 124.919 733.493 126.094 732.527 126.094C730.369 124.915 727.037 123.061 721.33 123.061C711.116 123.061 703.157 128.346 703.157 137.957C703.157 145.288 707.574 149.9 717.175 152.069L725.789 154.028C731.53 155.272 733.643 157.357 733.643 160.989C733.643 165.985 729.644 168.606 723.042 168.606C713.842 168.606 707.916 163.803 703.136 158.235L701.86 159.11L705.841 174.09H708.306C708.306 173.295 709.101 171.646 710.08 171.646C712.329 172.734 716.181 174.979 723.199 174.979C735.013 174.979 743.386 169.115 743.386 159.114C743.543 149.698 738.342 145.867 728.344 143.618Z" fill="black"/>
<path d="M156.264 50.3436V30.4038H124.17L120.122 50.5292H131.664L127.968 69.0776H116.421L112.424 89.1519C112.112 90.5156 111.88 91.4989 111.74 92.4451C110.792 98.6047 113.479 98.2939 122.12 98.2939L118.169 118.039H103.062C88.7815 118.039 77.1649 117.918 80.1818 103.303C80.6606 101.072 81.2323 98.818 81.6367 96.6566L87.0336 69.0961H75.9284L79.6333 50.5477H90.7338L94.7734 30.4223H84.3933V0H45.9689V61.7908H0C1.13888 77.8114 15.3447 80.1444 20.5277 91.5267C24.0978 99.37 27.2169 113.197 37.6388 113.289C45.6203 113.387 45.6203 102.983 55.8981 102.983C66.1619 102.983 70.7174 122.441 79.8471 138.461C86.6897 151.04 98.0552 159.482 108.356 160.205C116.812 160.79 120.903 157.923 120.903 157.923C118.62 153.341 117.477 148.772 117.477 141.898C117.477 131.597 125.467 121.304 134.592 114.444C147.139 105.298 160.828 101.833 165.389 100.72V68.6601C165.389 68.6601 156.264 63.7899 156.264 50.3436ZM103.917 98.2429L117.416 30.3759H101.862L88.3817 98.2429H103.917ZM121.586 8.91937H106.027L103.052 23.887H118.602L121.586 8.91937Z" fill="#CC0000"/>
</svg>
