<svg width="163" height="58" viewBox="0 0 163 58" fill="none" xmlns="http://www.w3.org/2000/svg">
<path d="M22 33L1 54M22 33L1 12M22 33H42" stroke="black"/>
<path d="M47.0002 35.5C46.5002 37 47.0002 40.5 47.0002 40.5C47.0002 40.5 49.9495 38.1133 50.4143 36.6133" stroke="#351E10" stroke-width="0.75"/>
<path d="M47.061 37.6994C48.4417 37.6994 49.561 38.8187 49.561 40.1994C49.561 41.5801 48.4417 42.6994 47.061 42.6994C45.6803 42.6994 44.561 41.5801 44.561 40.1994C44.561 38.8187 45.6803 37.6994 47.061 37.6994Z" fill="#E3DFDA" stroke="black"/>
<path d="M120.856 45C120.856 45.2347 123.172 51.01 123.172 51.01C123.172 51.01 125.074 45.5722 125.019 44.9216" stroke="#351E10" stroke-width="0.75"/>
<path d="M123.226 48.7714C124.607 48.7714 125.726 49.8907 125.726 51.2714C125.726 52.6521 124.607 53.7714 123.226 53.7714C121.846 53.7714 120.726 52.6521 120.726 51.2714C120.726 49.8907 121.846 48.7714 123.226 48.7714Z" fill="#E3DFDA" stroke="black"/>
<path d="M158.5 51C158.5 45.4 159 35.3333 159.5 31H160.5C161 35.3333 161.5 45.4 161.5 51C161.5 56.6 160.667 57.5 160 57.5C159.334 57.5 158.5 56.6 158.5 51Z" fill="#141414"/>
<path d="M158.5 7C158.5 12.6 159 22.6667 159.5 27H160.5C161 22.6667 161.5 12.6 161.5 7C161.5 1.4 160.667 0.5 160 0.5C159.334 0.5 158.5 1.4 158.5 7Z" fill="#141414"/>
<path d="M158 31C157.5 30.5 157 30 157 29C157 28 157.5 27.5 158 27C158.5 26.5 159.5 26.5 160.5 27C161.5 27.5 163 28 163 29C163 30 161.5 30.5 160.5 31C159.5 31.5 158.5 31.5 158 31Z" fill="#836446"/>
<path d="M149.208 40.1345C153.104 38.9499 157 37.7653 157 33.0269V29.0003C146.5 28.0003 121.8 26.2002 107 27.0002C92.2002 27.8002 56.244 31.3513 40.1158 33.0269C49.5796 36.4798 50.7678 36.7875 55.7415 38.0755C57.5931 38.555 59.9694 39.1704 63.4927 40.1345C76.4799 43.6883 118.071 45.5164 125.831 44.8729C137.954 43.8677 143.531 42.0093 147.322 40.7457C147.999 40.5203 148.618 40.3138 149.208 40.1345Z" fill="#E3DFDA"/>
<path d="M39.1751 16.1664C35.7433 23.7738 34.147 27.9642 40.1158 33.0269C56.244 31.3513 92.2002 27.8002 107 27.0002C121.8 26.2002 146.5 28.0003 157 29.0003C157 26.0003 155 24.5002 153 23.0002C150.47 21.1029 148.5 21.0003 144 20.5003C141.419 20.2134 109.299 18.5003 108 18.5003C106.961 18.5003 106.433 21.8156 106 23.0002L94.0002 24.0002L90.0002 19.0003C90.0002 19.0003 72.3619 22.1614 60.7366 22.1614C57.2771 22.1614 53.9269 17.4701 51.8843 15.5259C50.044 13.7743 47.683 12.7323 45.0776 12.7323C43.0156 12.7323 40.2 13.8945 39.1751 16.1664Z" fill="#D18E4E"/>
<path d="M108 18.5C107.101 19.2664 106.857 19.6582 106 23L101.5 23.375L94.0002 24L90.0002 19C91.5002 18.3333 95.0002 16.9 97.0002 16.5C99.0002 16.1 101.167 16 102 16C103.334 16 106.41 16.9883 108 18.5Z" fill="#86ADC4"/>
<path d="M101.5 23.375L102 16M101.5 23.375L106 23C106.857 19.6582 107.101 19.2664 108 18.5C106.41 16.9883 103.334 16 102 16M101.5 23.375L94.0002 24L90.0002 19C91.5002 18.3333 95.0002 16.9 97.0002 16.5C99.0002 16.1 101.167 16 102 16" stroke="#351E10" stroke-width="0.2"/>
<path d="M139 23L138.516 13.794" stroke="#351E10" stroke-width="0.5"/>
<path d="M110 15V38.791C110.808 38.791 130.193 14.7884 131 14.7884V36.1333C130.193 36.1333 110.808 15 110 15Z" stroke="#351E10" stroke-width="0.5"/>
<path d="M125.152 42C135.131 42 144 40.0731 144 39.1096C144 39.1096 137 39.8 130 40.5C123 41.2 93.0002 42 93.0002 42H125.152Z" fill="#F3AC68"/>
<path d="M144 39.1096C144 37.1826 130.649 35.3581 124.044 36.2192C118.5 36.9418 115.729 37.5439 111.848 38.387C107.968 39.23 102.979 40.3139 93.0002 42C93.0002 42 123 41.2 130 40.5C137 39.8 144 39.1096 144 39.1096Z" fill="#F0A35A"/>
<path d="M125.152 15C135.131 15 144 13.0731 144 12.1096C144 12.1096 137 12.8 130 13.5C123 14.2 93.0002 15 93.0002 15H125.152Z" fill="#F3AC68"/>
<path d="M144 12.1096C144 10.1826 130.649 8.3581 124.044 9.21916C118.5 9.94177 115.729 10.5439 111.848 11.387C107.968 12.23 102.979 13.3139 93.0002 15C93.0002 15 123 14.2 130 13.5C137 12.8 144 12.1096 144 12.1096Z" fill="#E2954B"/>
</svg>
