<svg width="162" height="57" viewBox="0 0 162 57" fill="none" xmlns="http://www.w3.org/2000/svg">
<path d="M46.0003 35C45.5003 36.5 46.0003 40 46.0003 40C46.0003 40 48.9495 37.6133 49.4143 36.1133" stroke="#351E10" stroke-width="0.75"/>
<path d="M46.0611 37.1994C47.4418 37.1994 48.5611 38.3187 48.5611 39.6994C48.5611 41.0801 47.4418 42.1994 46.0611 42.1994C44.6804 42.1994 43.5611 41.0801 43.5611 39.6994C43.5611 38.3187 44.6804 37.1994 46.0611 37.1994Z" fill="#E3DFDA" stroke="black"/>
<path d="M119.856 44.5C119.856 44.7347 122.172 50.51 122.172 50.51C122.172 50.51 124.074 45.0722 124.019 44.4216" stroke="#351E10" stroke-width="0.75"/>
<path d="M122.226 48.2714C123.607 48.2714 124.726 49.3907 124.726 50.7714C124.726 52.1521 123.607 53.2714 122.226 53.2714C120.846 53.2714 119.726 52.1521 119.726 50.7714C119.726 49.3907 120.846 48.2714 122.226 48.2714Z" fill="#E3DFDA" stroke="black"/>
<path d="M157.5 50.5C157.5 44.9 158 34.8333 158.5 30.5H159.5C160 34.8333 160.5 44.9 160.5 50.5C160.5 56.1 159.667 57 159 57C158.334 57 157.5 56.1 157.5 50.5Z" fill="#141414"/>
<path d="M157.5 6.5C157.5 12.1 158 22.1667 158.5 26.5H159.5C160 22.1667 160.5 12.1 160.5 6.5C160.5 0.9 159.667 0 159 0C158.334 0 157.5 0.9 157.5 6.5Z" fill="#141414"/>
<path d="M157 30.5C156.5 30 156 29.5 156 28.5C156 27.5 156.5 27 157 26.5C157.5 26 158.5 26 159.5 26.5C160.5 27 162 27.5 162 28.5C162 29.5 160.5 30 159.5 30.5C158.5 31 157.5 31 157 30.5Z" fill="#836446"/>
<path d="M148.208 39.6345C152.104 38.4499 156 37.2653 156 32.5269V28.5003C145.5 27.5003 120.8 25.7002 106 26.5002C91.2002 27.3002 55.244 30.8513 39.1158 32.5269C48.5796 35.9798 49.7678 36.2875 54.7415 37.5755C56.5931 38.055 58.9694 38.6704 62.4927 39.6345C75.4799 43.1883 117.071 45.0164 124.831 44.3729C136.954 43.3677 142.531 41.5093 146.322 40.2457C146.999 40.0203 147.618 39.8138 148.208 39.6345Z" fill="#E3DFDA"/>
<path d="M38.1751 15.6664C34.7433 23.2738 33.147 27.4642 39.1158 32.5269C55.244 30.8513 91.2002 27.3002 106 26.5002C120.8 25.7002 145.5 27.5003 156 28.5003C156 25.5003 154 24.0002 152 22.5002C149.47 20.6029 147.5 20.5002 143 20.0002C140.419 19.7134 108.299 18.0003 107 18.0003C105.961 18.0003 105.433 21.3156 105 22.5002L93.0002 23.5002L89.0002 18.5003C89.0002 18.5003 71.3619 21.6614 59.7366 21.6614C56.2771 21.6614 52.9269 16.9701 50.8843 15.0259C49.044 13.2743 46.683 12.2323 44.0776 12.2323C42.0156 12.2323 39.2 13.3945 38.1751 15.6664Z" fill="#D18E4E"/>
<path d="M107 18C106.101 18.7664 105.857 19.1582 105 22.5L100.5 22.875L93.0002 23.5L89.0002 18.5C90.5002 17.8333 94.0002 16.4 96.0002 16C98.0002 15.6 100.167 15.5 101 15.5C102.334 15.5 105.41 16.4883 107 18Z" fill="#86ADC4"/>
<path d="M100.5 22.875L101 15.5M100.5 22.875L105 22.5C105.857 19.1582 106.101 18.7664 107 18C105.41 16.4883 102.334 15.5 101 15.5M100.5 22.875L93.0002 23.5L89.0002 18.5C90.5002 17.8333 94.0002 16.4 96.0002 16C98.0002 15.6 100.167 15.5 101 15.5" stroke="#351E10" stroke-width="0.2"/>
<path d="M138 22.5L137.516 13.294" stroke="#351E10" stroke-width="0.5"/>
<path d="M109 14.5V38.291C109.808 38.291 129.193 14.2884 130 14.2884V35.6333C129.193 35.6333 109.808 14.5 109 14.5Z" stroke="#351E10" stroke-width="0.5"/>
<path d="M124.152 41.5C134.131 41.5 143 39.5731 143 38.6096C143 38.6096 136 39.3 129 40C122 40.7 92.0002 41.5 92.0002 41.5H124.152Z" fill="#F3AC68"/>
<path d="M143 38.6096C143 36.6826 129.649 34.8581 123.044 35.7192C117.5 36.4418 114.729 37.0439 110.848 37.887C106.968 38.73 101.979 39.8139 92.0002 41.5C92.0002 41.5 122 40.7 129 40C136 39.3 143 38.6096 143 38.6096Z" fill="#F0A35A"/>
<path d="M124.152 14.5C134.131 14.5 143 12.5731 143 11.6096C143 11.6096 136 12.3 129 13C122 13.7 92.0002 14.5 92.0002 14.5H124.152Z" fill="#F3AC68"/>
<path d="M143 11.6096C143 9.68264 129.649 7.8581 123.044 8.71916C117.5 9.44177 114.729 10.0439 110.848 10.887C106.968 11.73 101.979 12.8139 92.0002 14.5C92.0002 14.5 122 13.7 129 13C136 12.3 143 11.6096 143 11.6096Z" fill="#E2954B"/>
</svg>
