<svg width="200" height="200" viewBox="0 0 200 200" fill="none" xmlns="http://www.w3.org/2000/svg">
<rect width="200" height="200" rx="100" fill="#D4E9F5"/>
<path fill-rule="evenodd" clip-rule="evenodd" d="M99.5347 25C145.238 25 176 55.7611 176 100.999C176 146.238 143.429 177 100 177C56.5714 177 24 151.666 24 100.999C24 50.3324 57.9156 25 99.5347 25ZM43 129.047C43 109.142 46.619 87.428 55.6667 71.1421C55.6667 71.1421 66.5238 64.8088 81 63.904L84.619 71.1421C93.6667 70.2374 104.524 70.2374 113.571 71.1421L117.19 63.904C131.667 64.8088 142.524 71.1421 142.524 71.1421C149.762 87.428 155.19 109.142 155.19 129.047C155.19 129.047 138.905 138.095 122.619 141.714C119.905 137.19 119 132.666 119 132.666L129.857 129.047L128.048 127.238C115.381 134.476 82.8095 134.476 70.1429 127.238L68.3333 129.047L79.1905 132.666C79.1905 132.666 77.7429 138.095 75.5714 141.714C59.2857 138.095 43 129.047 43 129.047Z" fill="#5865F2"/>
<path d="M81 94.6661C85.5238 94.6661 90.9524 98.2852 90.9524 105.523C90.9524 112.761 85.5238 116.381 81 116.381C76.4762 116.381 71.0476 112.761 71.0476 105.523C71.0476 98.2852 76.4762 94.6661 81 94.6661Z" fill="#5865F2"/>
<path d="M117.19 94.6661C121.714 94.6661 127.143 98.2852 127.143 105.523C127.143 112.761 121.714 116.381 117.19 116.381C112.667 116.381 107.238 112.761 107.238 105.523C107.238 98.2852 112.667 94.6661 117.19 94.6661Z" fill="#5865F2"/>
<path fill-rule="evenodd" clip-rule="evenodd" d="M55.6667 71.1421C46.619 87.428 43 109.142 43 129.047C43 129.047 59.2857 138.095 75.5714 141.714C77.7429 138.095 79.1905 132.666 79.1905 132.666L68.3333 129.047L70.1429 127.238C82.8095 134.476 115.381 134.476 128.048 127.238L129.857 129.047L119 132.666C119 132.666 119.905 137.19 122.619 141.714C138.905 138.095 155.19 129.047 155.19 129.047C155.19 109.142 149.762 87.428 142.524 71.1421C142.524 71.1421 131.667 64.8088 117.19 63.904L113.571 71.1421C104.524 70.2374 93.6667 70.2374 84.619 71.1421L81 63.904C66.5238 64.8088 55.6667 71.1421 55.6667 71.1421ZM127.143 105.523C127.143 98.2852 121.714 94.6661 117.19 94.6661C112.667 94.6661 107.238 98.2852 107.238 105.523C107.238 112.761 112.667 116.381 117.19 116.381C121.714 116.381 127.143 112.761 127.143 105.523ZM90.9524 105.523C90.9524 98.2852 85.5238 94.6661 81 94.6661C76.4762 94.6661 71.0476 98.2852 71.0476 105.523C71.0476 112.761 76.4762 116.381 81 116.381C85.5238 116.381 90.9524 112.761 90.9524 105.523Z" fill="#F5F1CE"/>
<path fill-rule="evenodd" clip-rule="evenodd" d="M99.5347 25C145.238 25 176 55.7611 176 100.999C176 146.238 143.429 177 100 177C56.5714 177 24 151.666 24 100.999C24 50.3324 57.9156 25 99.5347 25ZM43 129.047C43 109.142 46.619 87.428 55.6667 71.1421C55.6667 71.1421 66.5238 64.8088 81 63.904L84.619 71.1421C93.6667 70.2374 104.524 70.2374 113.571 71.1421L117.19 63.904C131.667 64.8088 142.524 71.1421 142.524 71.1421C149.762 87.428 155.19 109.142 155.19 129.047C155.19 129.047 138.905 138.095 122.619 141.714C119.905 137.19 119 132.666 119 132.666L129.857 129.047L128.048 127.238C115.381 134.476 82.8095 134.476 70.1429 127.238L68.3333 129.047L79.1905 132.666C79.1905 132.666 77.7429 138.095 75.5714 141.714C59.2857 138.095 43 129.047 43 129.047Z"/>
<path d="M81 94.6661C85.5238 94.6661 90.9524 98.2852 90.9524 105.523C90.9524 112.761 85.5238 116.381 81 116.381C76.4762 116.381 71.0476 112.761 71.0476 105.523C71.0476 98.2852 76.4762 94.6661 81 94.6661Z"/>
<path d="M117.19 94.6661C121.714 94.6661 127.143 98.2852 127.143 105.523C127.143 112.761 121.714 116.381 117.19 116.381C112.667 116.381 107.238 112.761 107.238 105.523C107.238 98.2852 112.667 94.6661 117.19 94.6661Z"/>
<path fill-rule="evenodd" clip-rule="evenodd" d="M55.6667 71.1421C46.619 87.428 43 109.142 43 129.047C43 129.047 59.2857 138.095 75.5714 141.714C77.7429 138.095 79.1905 132.666 79.1905 132.666L68.3333 129.047L70.1429 127.238C82.8095 134.476 115.381 134.476 128.048 127.238L129.857 129.047L119 132.666C119 132.666 119.905 137.19 122.619 141.714C138.905 138.095 155.19 129.047 155.19 129.047C155.19 109.142 149.762 87.428 142.524 71.1421C142.524 71.1421 131.667 64.8088 117.19 63.904L113.571 71.1421C104.524 70.2374 93.6667 70.2374 84.619 71.1421L81 63.904C66.5238 64.8088 55.6667 71.1421 55.6667 71.1421ZM127.143 105.523C127.143 98.2852 121.714 94.6661 117.19 94.6661C112.667 94.6661 107.238 98.2852 107.238 105.523C107.238 112.761 112.667 116.381 117.19 116.381C121.714 116.381 127.143 112.761 127.143 105.523ZM90.9524 105.523C90.9524 98.2852 85.5238 94.6661 81 94.6661C76.4762 94.6661 71.0476 98.2852 71.0476 105.523C71.0476 112.761 76.4762 116.381 81 116.381C85.5238 116.381 90.9524 112.761 90.9524 105.523Z"/>
</svg>
