<svg width="100" height="100" viewBox="0 0 100 100" fill="none" xmlns="http://www.w3.org/2000/svg">
<rect width="100" height="100" rx="15" fill="#D4E9F5"/>
<path fill-rule="evenodd" clip-rule="evenodd" d="M49.7428 8C75 8 92 24.9994 92 49.9994C92 74.9994 74 91.9994 50 91.9994C26 91.9994 8 77.9994 8 49.9994C8 21.9994 26.7428 8 49.7428 8ZM18.5 65.4994C18.5 54.4994 20.5 42.4994 25.5 33.4994C25.5 33.4994 31.5 29.9994 39.5 29.4994L41.5 33.4994C46.5 32.9994 52.5 32.9994 57.5 33.4994L59.5 29.4994C67.5 29.9994 73.5 33.4994 73.5 33.4994C77.5 42.4994 80.5 54.4994 80.5 65.4994C80.5 65.4994 71.5 70.4994 62.5 72.4994C61 69.9994 60.5 67.4994 60.5 67.4994L66.5 65.4994L65.5 64.4994C58.5 68.4994 40.5 68.4994 33.5 64.4994L32.5 65.4994L38.5 67.4994C38.5 67.4994 37.7 70.4994 36.5 72.4994C27.5 70.4994 18.5 65.4994 18.5 65.4994Z" fill="#5865F2"/>
<path d="M39.5 46.4994C42 46.4994 45 48.4994 45 52.4994C45 56.4994 42 58.4994 39.5 58.4994C37 58.4994 34 56.4994 34 52.4994C34 48.4994 37 46.4994 39.5 46.4994Z" fill="#5865F2"/>
<path d="M59.5 46.4994C62 46.4994 65 48.4994 65 52.4994C65 56.4994 62 58.4994 59.5 58.4994C57 58.4994 54 56.4994 54 52.4994C54 48.4994 57 46.4994 59.5 46.4994Z" fill="#5865F2"/>
<path fill-rule="evenodd" clip-rule="evenodd" d="M25.5 33.4994C20.5 42.4994 18.5 54.4994 18.5 65.4994C18.5 65.4994 27.5 70.4994 36.5 72.4994C37.7 70.4994 38.5 67.4994 38.5 67.4994L32.5 65.4994L33.5 64.4994C40.5 68.4994 58.5 68.4994 65.5 64.4994L66.5 65.4994L60.5 67.4994C60.5 67.4994 61 69.9994 62.5 72.4994C71.5 70.4994 80.5 65.4994 80.5 65.4994C80.5 54.4994 77.5 42.4994 73.5 33.4994C73.5 33.4994 67.5 29.9994 59.5 29.4994L57.5 33.4994C52.5 32.9994 46.5 32.9994 41.5 33.4994L39.5 29.4994C31.5 29.9994 25.5 33.4994 25.5 33.4994ZM65 52.4994C65 48.4994 62 46.4994 59.5 46.4994C57 46.4994 54 48.4994 54 52.4994C54 56.4994 57 58.4994 59.5 58.4994C62 58.4994 65 56.4994 65 52.4994ZM45 52.4994C45 48.4994 42 46.4994 39.5 46.4994C37 46.4994 34 48.4994 34 52.4994C34 56.4994 37 58.4994 39.5 58.4994C42 58.4994 45 56.4994 45 52.4994Z" fill="#F5F1CE"/>
<path fill-rule="evenodd" clip-rule="evenodd" d="M49.7428 8C75 8 92 24.9994 92 49.9994C92 74.9994 74 91.9994 50 91.9994C26 91.9994 8 77.9994 8 49.9994C8 21.9994 26.7428 8 49.7428 8ZM18.5 65.4994C18.5 54.4994 20.5 42.4994 25.5 33.4994C25.5 33.4994 31.5 29.9994 39.5 29.4994L41.5 33.4994C46.5 32.9994 52.5 32.9994 57.5 33.4994L59.5 29.4994C67.5 29.9994 73.5 33.4994 73.5 33.4994C77.5 42.4994 80.5 54.4994 80.5 65.4994C80.5 65.4994 71.5 70.4994 62.5 72.4994C61 69.9994 60.5 67.4994 60.5 67.4994L66.5 65.4994L65.5 64.4994C58.5 68.4994 40.5 68.4994 33.5 64.4994L32.5 65.4994L38.5 67.4994C38.5 67.4994 37.7 70.4994 36.5 72.4994C27.5 70.4994 18.5 65.4994 18.5 65.4994Z"/>
<path d="M39.5 46.4994C42 46.4994 45 48.4994 45 52.4994C45 56.4994 42 58.4994 39.5 58.4994C37 58.4994 34 56.4994 34 52.4994C34 48.4994 37 46.4994 39.5 46.4994Z"/>
<path d="M59.5 46.4994C62 46.4994 65 48.4994 65 52.4994C65 56.4994 62 58.4994 59.5 58.4994C57 58.4994 54 56.4994 54 52.4994C54 48.4994 57 46.4994 59.5 46.4994Z"/>
<path fill-rule="evenodd" clip-rule="evenodd" d="M25.5 33.4994C20.5 42.4994 18.5 54.4994 18.5 65.4994C18.5 65.4994 27.5 70.4994 36.5 72.4994C37.7 70.4994 38.5 67.4994 38.5 67.4994L32.5 65.4994L33.5 64.4994C40.5 68.4994 58.5 68.4994 65.5 64.4994L66.5 65.4994L60.5 67.4994C60.5 67.4994 61 69.9994 62.5 72.4994C71.5 70.4994 80.5 65.4994 80.5 65.4994C80.5 54.4994 77.5 42.4994 73.5 33.4994C73.5 33.4994 67.5 29.9994 59.5 29.4994L57.5 33.4994C52.5 32.9994 46.5 32.9994 41.5 33.4994L39.5 29.4994C31.5 29.9994 25.5 33.4994 25.5 33.4994ZM65 52.4994C65 48.4994 62 46.4994 59.5 46.4994C57 46.4994 54 48.4994 54 52.4994C54 56.4994 57 58.4994 59.5 58.4994C62 58.4994 65 56.4994 65 52.4994ZM45 52.4994C45 48.4994 42 46.4994 39.5 46.4994C37 46.4994 34 48.4994 34 52.4994C34 56.4994 37 58.4994 39.5 58.4994C42 58.4994 45 56.4994 45 52.4994Z"/>
</svg>
