<svg width="200" height="200" viewBox="0 0 200 200" fill="none" xmlns="http://www.w3.org/2000/svg">
<rect width="200" height="200" rx="100" fill="#D4E9F5"/>
<path d="M87.3333 176.255C91.3927 176.749 95.6179 177 100 177C104.382 177 108.607 176.733 112.667 176.213V126.333H134.381L138 101H112.667V84.7143C112.667 77.4762 118.095 72.0476 125.333 72.0476H138V50.3333C138 50.3333 127.143 48.5238 110.857 48.5238C98.1905 48.5238 87.3333 59.381 87.3333 72.0476V101H62V126.333H87.3333V176.255Z" fill="#F5F1CE"/>
<path d="M176 101C176 55.7619 147.048 25 100 25C52.9524 25 24 53.9524 24 101C24 143.665 47.8102 171.45 87.3333 176.255V126.333H62V101H87.3333V72.0476C87.3333 59.381 98.1905 48.5238 110.857 48.5238C127.143 48.5238 138 50.3333 138 50.3333V72.0476H125.333C118.095 72.0476 112.667 77.4762 112.667 84.7143V101H138L134.381 126.333H112.667V176.213C152.19 171.144 176 142.025 176 101Z" fill="#3F79EB"/>
</svg>
