<svg width="100" height="100" viewBox="0 0 100 100" fill="none" xmlns="http://www.w3.org/2000/svg">
<rect width="100" height="100" rx="50" fill="#D4E9F5"/>
<path d="M43.6667 88.6276C45.6964 88.8744 47.8089 89 50 89C52.1911 89 54.3036 88.8666 56.3333 88.6063V63.6667H67.1905L69 51H56.3333V42.8571C56.3333 39.2381 59.0476 36.5238 62.6667 36.5238H69V25.6667C69 25.6667 63.5714 24.7619 55.4286 24.7619C49.0952 24.7619 43.6667 30.1905 43.6667 36.5238V51H31V63.6667H43.6667V88.6276Z" fill="#F5F1CE"/>
<path d="M88 51C88 28.381 73.5238 13 50 13C26.4762 13 12 27.4762 12 51C12 72.3327 23.9051 86.2248 43.6667 88.6276V63.6667H31V51H43.6667V36.5238C43.6667 30.1905 49.0952 24.7619 55.4286 24.7619C63.5714 24.7619 69 25.6667 69 25.6667V36.5238H62.6667C59.0476 36.5238 56.3333 39.2381 56.3333 42.8571V51H69L67.1905 63.6667H56.3333V88.6063C76.0949 86.072 88 71.5123 88 51Z" fill="#3F79EB"/>
</svg>
