<svg width="200" height="200" viewBox="0 0 200 200" fill="none" xmlns="http://www.w3.org/2000/svg">
<rect width="200" height="200" rx="100" fill="#D4E9F5"/>
<path d="M100 24C54 24 24 54 24 100C24 139.061 44.1894 166.585 79.6701 174V164C79.6701 163.378 79.653 157.709 79.6701 157C68 159 57.0715 156.75 54 146C52 139 51 137 47 133C41.901 127.901 35 126 38 124C41.5301 121.647 50.7778 124 57 132C64 141 62.0397 145.204 70 146C75 146.5 80.5027 145 81.0491 142C82.0146 136.699 83.576 131.939 86 130C70 128.334 52 118 52 94C52 84.202 54.6667 75.4041 60 68.4226C60.8 66.4845 60.3124 63.5621 60 62C59 57 58 53 60 44C68 44 76.6667 48.6667 80 51C81 51.6667 83.6 53.0614 86 53.3068C90.2654 52.4515 94.932 52 100 52C105.068 52 109.735 52.4515 114 53.3068C116.4 53.3068 119 51.7689 120 51C124.667 48 132 44 140 44C142 53 141.25 57 140 62C139.667 63.3333 139.2 66.4845 140 68.4226C145.333 75.4041 148 84.202 148 94C148 118 130 128.334 114 130C119 134 120.33 150 120.33 158V174C122.986 173.445 125.557 172.777 128.04 172C158.72 162.399 176 136.136 176 100C176 54 146 24 100 24Z" fill="black"/>
<path d="M84 174.793C89.0515 175.59 94.3891 176 100 176C105.611 176 110.948 175.59 116 174.793C117.468 174.561 118.911 174.297 120.33 174V158C120.33 150 119 134 114 130C130 128.334 148 118 148 94C148 84.202 145.333 75.4041 140 68.4226C139.2 66.4845 139.667 63.3333 140 62C141.25 57 142 53 140 44C132 44 124.667 48 120 51C119 51.7689 116.4 53.3068 114 53.3068C109.735 52.4515 105.068 52 100 52C94.932 52 90.2654 52.4515 86 53.3068C83.6 53.0614 81 51.6667 80 51C76.6667 48.6667 68 44 60 44C58 53 59 57 60 62C60.3124 63.5621 60.8 66.4845 60 68.4226C54.6667 75.4041 52 84.202 52 94C52 118 70 128.334 86 130C83.576 131.939 82.0146 136.699 81.0491 142C80.5027 145 75 146.5 70 146C62.0397 145.204 64 141 57 132C50.7778 124 41.5301 121.647 38 124C35 126 41.901 127.901 47 133C51 137 52 139 54 146C57.0715 156.75 68 159 79.6701 157C79.653 157.709 79.6701 163.378 79.6701 164V174C81.0891 174.297 82.5325 174.561 84 174.793Z" fill="#F5F1CE"/>
</svg>
