
<svg width="100" height="100" viewBox="0 0 100 100" fill="none" xmlns="http://www.w3.org/2000/svg">
<rect width="100" height="100" rx="50" fill="#D4E9F5"/>
<path d="M50 12C27 12 12 27 12 50C12 69.5304 22.0947 83.2924 39.8351 87V82C39.8351 81.6892 39.8265 78.8543 39.8351 78.5C34 79.5 28.5357 78.3751 27 73C26 69.5 25.5 68.5 23.5 66.5C20.9505 63.9505 17.5 63 19 62C20.765 60.8233 25.3889 62 28.5 66C32 70.5 31.0199 72.602 35 73C37.5 73.25 40.2514 72.5 40.5245 71C41.0073 68.3494 41.788 65.9696 43 65C35 64.1672 26 59 26 47C26 42.101 27.3333 37.702 30 34.2113C30.4 33.2423 30.1562 31.781 30 31C29.5 28.5 29 26.5 30 22C34 22 38.3333 24.3333 40 25.5C40.5 25.8333 41.8 26.5307 43 26.6534C45.1327 26.2257 47.466 26 50 26C52.534 26 54.8673 26.2257 57 26.6534C58.2 26.6534 59.5 25.8845 60 25.5C62.3333 24 66 22 70 22C71 26.5 70.625 28.5 70 31C69.8333 31.6667 69.6 33.2423 70 34.2113C72.6667 37.702 74 42.101 74 47C74 59 65 64.1672 57 65C59.5 67 60.1649 75 60.1649 79V87C61.4931 86.7224 62.7784 86.3885 64.0198 86C79.3602 81.1994 88 68.0682 88 50C88 27 73 12 50 12Z" fill="black"/>
<path d="M42 87.3963C44.5258 87.7951 47.1946 88 50 88C52.8054 88 55.4742 87.7951 58 87.3963C58.7338 87.2805 59.4555 87.1483 60.1649 87V79C60.1649 75 59.5 67 57 65C65 64.1672 74 59 74 47C74 42.101 72.6667 37.702 70 34.2113C69.6 33.2423 69.8333 31.6667 70 31C70.625 28.5 71 26.5 70 22C66 22 62.3333 24 60 25.5C59.5 25.8845 58.2 26.6534 57 26.6534C54.8673 26.2257 52.534 26 50 26C47.466 26 45.1327 26.2257 43 26.6534C41.8 26.5307 40.5 25.8333 40 25.5C38.3333 24.3333 34 22 30 22C29 26.5 29.5 28.5 30 31C30.1562 31.781 30.4 33.2423 30 34.2113C27.3333 37.702 26 42.101 26 47C26 59 35 64.1672 43 65C41.788 65.9696 41.0073 68.3494 40.5245 71C40.2514 72.5 37.5 73.25 35 73C31.0199 72.602 32 70.5 28.5 66C25.3889 62 20.765 60.8233 19 62C17.5 63 20.9505 63.9505 23.5 66.5C25.5 68.5 26 69.5 27 73C28.5357 78.3751 34 79.5 39.8351 78.5C39.8265 78.8543 39.8351 81.6892 39.8351 82V87C40.5445 87.1483 41.2662 87.2805 42 87.3963Z" fill="#F5F1CE"/>
</svg>
