<svg width="100" height="100" viewBox="0 0 100 100" fill="none" xmlns="http://www.w3.org/2000/svg">
<rect width="100" height="100" rx="50" fill="#D4E9F5"/>
<path d="M66.75 51.2264V75H78.5526C82.1842 75 84 73.1887 84 69.5661V41.0378L66.75 51.2264Z" fill="#67AD5B"/>
<path d="M84 33.3396C84 29.717 81.2763 27 77.6447 27C75.8289 27 73.5592 27.9057 71.2895 29.2642L66.75 32.0907V51.2264L84 41.0378V33.3396Z" fill="#F2C24F"/>
<path d="M49.5 61.4151L66.75 51.2264V32.0907L49.5 42.8491L32.25 32.0907V51.2264L49.5 61.4151Z" fill="#D3483E"/>
<path d="M21.3553 27C17.7237 27 15 29.717 15 33.3396L15 41.0378L32.25 51.2264V32.0907L27.7105 29.2642C25.4408 27.9057 23.1711 27 21.3553 27Z" fill="#B63831"/>
<path d="M15 69.566C15 73.1887 16.8158 75 20.4474 75H32.25L32.25 51.2264L15 41.0378V69.566Z" fill="#4286DE"/>
<path d="M71.2895 29.2642C73.5592 27.9057 75.8289 27 77.6447 27H21.3553C23.1711 27 25.4408 27.9057 27.7105 29.2642L32.25 32.0907L49.5 42.8491L66.75 32.0907L71.2895 29.2642Z" fill="#F5F1CE"/>
<path d="M32.25 51.2264L32.25 75H66.75V51.2264L49.5 61.4151L32.25 51.2264Z" fill="#F5F1CE"/>
</svg>
