<svg width="200" height="200" viewBox="0 0 200 200" fill="none" xmlns="http://www.w3.org/2000/svg">
<rect width="200" height="200" rx="100" fill="#D4E9F5"/>
<path d="M133.75 99.9482V147H157.184C164.395 147 168 143.415 168 136.245V79.7831L133.75 99.9482Z" fill="#67AD5B"/>
<path d="M168 64.5472C168 57.3774 162.592 52 155.382 52C151.776 52 147.27 53.7925 142.763 56.4811L133.75 62.0753V99.9482L168 79.7831V64.5472Z" fill="#F2C24F"/>
<path d="M99.5 120.113L133.75 99.9482V62.0753L99.5 83.368L65.25 62.0753V99.9482L99.5 120.113Z" fill="#D3483E"/>
<path d="M43.6184 52C36.4079 52 31 57.3774 31 64.5472L31 79.7831L65.25 99.9482V62.0753L56.2368 56.4811C51.7303 53.7925 47.2237 52 43.6184 52Z" fill="#B63831"/>
<path d="M31 136.245C31 143.415 34.6053 147 41.8158 147H65.25L65.25 99.9482L31 79.7831V136.245Z" fill="#4286DE"/>
<path d="M142.763 56.4811C147.27 53.7925 151.776 52 155.382 52H43.6184C47.2237 52 51.7303 53.7925 56.2368 56.4811L65.25 62.0753L99.5 83.368L133.75 62.0753L142.763 56.4811Z" fill="#F5F1CE"/>
<path d="M65.25 99.9482L65.25 147H133.75V99.9482L99.5 120.113L65.25 99.9482Z" fill="#F5F1CE"/>
</svg>
