<svg width="100" height="100" viewBox="0 0 100 100" fill="none" xmlns="http://www.w3.org/2000/svg">
<rect width="100" height="100" rx="50" fill="#D4E9F5"/>
<path fill-rule="evenodd" clip-rule="evenodd" d="M71.8122 35.4157C71.8122 29.7528 70.1931 28.1348 64.5265 28.1348H35.3836C29.7169 28.1348 28.0979 29.7528 28.0979 35.4157V64.5393C28.0979 70.2022 29.7169 71.8202 35.3836 71.8202H64.5265C70.1931 71.8202 71.8122 70.2022 71.8122 64.5393V35.4157ZM67.7646 35.4157C67.7646 33.3933 66.5503 32.1798 64.5265 32.1798C62.5027 32.1798 61.2884 33.3933 61.2884 35.4157C61.2884 37.4382 62.5027 38.6517 64.5265 38.6517C66.5503 38.6517 67.7646 37.4382 67.7646 35.4157ZM65.336 49.9775C65.336 58.8764 58.8598 65.3483 49.955 65.3483C41.0503 65.3483 34.5741 58.8764 34.5741 49.9775C34.5741 41.0787 41.0503 34.6067 49.955 34.6067C58.8598 34.6067 65.336 41.0787 65.336 49.9775Z" fill="url(#paint0_radial_22_33)"/>
<path fill-rule="evenodd" clip-rule="evenodd" d="M71.8122 35.4157C71.8122 29.7528 70.1931 28.1348 64.5265 28.1348H35.3836C29.7169 28.1348 28.0979 29.7528 28.0979 35.4157V64.5393C28.0979 70.2022 29.7169 71.8202 35.3836 71.8202H64.5265C70.1931 71.8202 71.8122 70.2022 71.8122 64.5393V35.4157ZM67.7646 35.4157C67.7646 33.3933 66.5503 32.1798 64.5265 32.1798C62.5027 32.1798 61.2884 33.3933 61.2884 35.4157C61.2884 37.4382 62.5027 38.6517 64.5265 38.6517C66.5503 38.6517 67.7646 37.4382 67.7646 35.4157ZM65.336 49.9775C65.336 58.8764 58.8598 65.3483 49.955 65.3483C41.0503 65.3483 34.5741 58.8764 34.5741 49.9775C34.5741 41.0787 41.0503 34.6067 49.955 34.6067C58.8598 34.6067 65.336 41.0787 65.336 49.9775Z" fill="url(#paint1_radial_22_33)"/>
<path fill-rule="evenodd" clip-rule="evenodd" d="M16 76.6742C16 80.7191 19.1931 84 23.2407 84H76.6693C80.7169 84 84 80.7191 84 76.6742V23.2809C84 19.236 80.7169 16 76.6693 16H23.2407C19.1931 16 16 19.236 16 23.2809L16 76.6742ZM24.8598 32.1798C24.8598 28.1348 28.0979 24.8989 32.1455 24.8989H67.7646C71.8122 24.8989 75.0503 28.1348 75.0503 32.1798V67.7753C75.0503 71.8202 71.8122 75.0562 67.7646 75.0562H32.1455C28.0979 75.0562 24.8598 71.8202 24.8598 67.7753V32.1798Z" fill="url(#paint2_radial_22_33)"/>
<path fill-rule="evenodd" clip-rule="evenodd" d="M16 76.6742C16 80.7191 19.1931 84 23.2407 84H76.6693C80.7169 84 84 80.7191 84 76.6742V23.2809C84 19.236 80.7169 16 76.6693 16H23.2407C19.1931 16 16 19.236 16 23.2809L16 76.6742ZM24.8598 32.1798C24.8598 28.1348 28.0979 24.8989 32.1455 24.8989H67.7646C71.8122 24.8989 75.0503 28.1348 75.0503 32.1798V67.7753C75.0503 71.8202 71.8122 75.0562 67.7646 75.0562H32.1455C28.0979 75.0562 24.8598 71.8202 24.8598 67.7753V32.1798Z" fill="url(#paint3_radial_22_33)"/>
<path d="M49.955 39.4607C43.4788 39.4607 39.4312 43.5056 39.4312 49.9775C39.4312 56.4494 43.4788 60.4944 49.955 60.4944C56.4312 60.4944 60.4789 56.4494 60.4789 49.9775C60.4789 43.5056 56.4312 39.4607 49.955 39.4607Z" fill="url(#paint4_radial_22_33)"/>
<path d="M49.955 39.4607C43.4788 39.4607 39.4312 43.5056 39.4312 49.9775C39.4312 56.4494 43.4788 60.4944 49.955 60.4944C56.4312 60.4944 60.4789 56.4494 60.4789 49.9775C60.4789 43.5056 56.4312 39.4607 49.955 39.4607Z" fill="url(#paint5_radial_22_33)"/>
<path fill-rule="evenodd" clip-rule="evenodd" d="M49.955 65.3483C58.8598 65.3483 65.336 58.8764 65.336 49.9775C65.336 41.0787 58.8598 34.6067 49.955 34.6067C41.0503 34.6067 34.5741 41.0787 34.5741 49.9775C34.5741 58.8764 41.0503 65.3483 49.955 65.3483ZM39.4312 49.9775C39.4312 43.5056 43.4788 39.4607 49.955 39.4607C56.4312 39.4607 60.4789 43.5056 60.4789 49.9775C60.4789 56.4494 56.4312 60.4944 49.955 60.4944C43.4788 60.4944 39.4312 56.4494 39.4312 49.9775Z" fill="#F5F1CE"/>
<path d="M64.5265 32.1798C66.5503 32.1798 67.7646 33.3933 67.7646 35.4157C67.7646 37.4382 66.5503 38.6517 64.5265 38.6517C62.5027 38.6517 61.2884 37.4382 61.2884 35.4157C61.2884 33.3933 62.5027 32.1798 64.5265 32.1798Z" fill="#F5F1CE"/>
<path fill-rule="evenodd" clip-rule="evenodd" d="M32.1455 24.8989C28.0979 24.8989 24.8598 28.1348 24.8598 32.1798V67.7753C24.8598 71.8202 28.0979 75.0562 32.1455 75.0562H67.7646C71.8122 75.0562 75.0503 71.8202 75.0503 67.7753V32.1798C75.0503 28.1348 71.8122 24.8989 67.7646 24.8989H32.1455ZM64.5265 28.1348C70.1931 28.1348 71.8122 29.7528 71.8122 35.4157V64.5393C71.8122 70.2022 70.1931 71.8202 64.5265 71.8202H35.3836C29.7169 71.8202 28.0979 70.2022 28.0979 64.5393V35.4157C28.0979 29.7528 29.7169 28.1348 35.3836 28.1348H64.5265Z" fill="#F5F1CE"/>
<defs>
<radialGradient id="paint0_radial_22_33" cx="0" cy="0" r="1" gradientUnits="userSpaceOnUse" gradientTransform="translate(21.2169 5.07865) rotate(81.0894) scale(88.8476 88.8447)">
<stop stop-color="#8122E8"/>
<stop offset="0.309662" stop-color="#EA39D4"/>
<stop offset="0.47391" stop-color="#EA39D4"/>
<stop offset="0.590839" stop-color="#EA434D"/>
<stop offset="0.747688" stop-color="#ED9B39"/>
<stop offset="0.853188" stop-color="#F7CE4B"/>
</radialGradient>
<radialGradient id="paint1_radial_22_33" cx="0" cy="0" r="1" gradientUnits="userSpaceOnUse" gradientTransform="translate(78.2884 53.618) rotate(-37.0243) scale(53.7397 53.6945)">
<stop stop-color="#EB3970"/>
<stop offset="1" stop-color="#EA39D4" stop-opacity="0.1"/>
</radialGradient>
<radialGradient id="paint2_radial_22_33" cx="0" cy="0" r="1" gradientUnits="userSpaceOnUse" gradientTransform="translate(21.2169 5.07865) rotate(81.0894) scale(88.8476 88.8447)">
<stop stop-color="#8122E8"/>
<stop offset="0.309662" stop-color="#EA39D4"/>
<stop offset="0.47391" stop-color="#EA39D4"/>
<stop offset="0.590839" stop-color="#EA434D"/>
<stop offset="0.747688" stop-color="#ED9B39"/>
<stop offset="0.853188" stop-color="#F7CE4B"/>
</radialGradient>
<radialGradient id="paint3_radial_22_33" cx="0" cy="0" r="1" gradientUnits="userSpaceOnUse" gradientTransform="translate(78.2884 53.618) rotate(-37.0243) scale(53.7397 53.6945)">
<stop stop-color="#EB3970"/>
<stop offset="1" stop-color="#EA39D4" stop-opacity="0.1"/>
</radialGradient>
<radialGradient id="paint4_radial_22_33" cx="0" cy="0" r="1" gradientUnits="userSpaceOnUse" gradientTransform="translate(21.2169 5.07865) rotate(81.0894) scale(88.8476 88.8447)">
<stop stop-color="#8122E8"/>
<stop offset="0.309662" stop-color="#EA39D4"/>
<stop offset="0.47391" stop-color="#EA39D4"/>
<stop offset="0.590839" stop-color="#EA434D"/>
<stop offset="0.747688" stop-color="#ED9B39"/>
<stop offset="0.853188" stop-color="#F7CE4B"/>
</radialGradient>
<radialGradient id="paint5_radial_22_33" cx="0" cy="0" r="1" gradientUnits="userSpaceOnUse" gradientTransform="translate(78.2884 53.618) rotate(-37.0243) scale(53.7397 53.6945)">
<stop stop-color="#EB3970"/>
<stop offset="1" stop-color="#EA39D4" stop-opacity="0.1"/>
</radialGradient>
</defs>
</svg>
