<svg width="200" height="200" viewBox="0 0 200 200" fill="none" xmlns="http://www.w3.org/2000/svg">
<rect width="200" height="200" rx="100" fill="#D4E9F5"/>
<path fill-rule="evenodd" clip-rule="evenodd" d="M143.624 70.8315C143.624 59.5056 140.386 56.2697 129.053 56.2697H70.7672C59.4339 56.2697 56.1958 59.5056 56.1958 70.8315V129.079C56.1958 140.404 59.4339 143.64 70.7672 143.64H129.053C140.386 143.64 143.624 140.404 143.624 129.079V70.8315ZM135.529 70.8315C135.529 66.7865 133.101 64.3596 129.053 64.3596C125.005 64.3596 122.577 66.7865 122.577 70.8315C122.577 74.8764 125.005 77.3034 129.053 77.3034C133.101 77.3034 135.529 74.8764 135.529 70.8315ZM130.672 99.9551C130.672 117.753 117.72 130.697 99.9101 130.697C82.1006 130.697 69.1482 117.753 69.1482 99.9551C69.1482 82.1573 82.1006 69.2135 99.9101 69.2135C117.72 69.2135 130.672 82.1573 130.672 99.9551Z" fill="url(#paint0_radial_22_36)"/>
<path fill-rule="evenodd" clip-rule="evenodd" d="M143.624 70.8315C143.624 59.5056 140.386 56.2697 129.053 56.2697H70.7672C59.4339 56.2697 56.1958 59.5056 56.1958 70.8315V129.079C56.1958 140.404 59.4339 143.64 70.7672 143.64H129.053C140.386 143.64 143.624 140.404 143.624 129.079V70.8315ZM135.529 70.8315C135.529 66.7865 133.101 64.3596 129.053 64.3596C125.005 64.3596 122.577 66.7865 122.577 70.8315C122.577 74.8764 125.005 77.3034 129.053 77.3034C133.101 77.3034 135.529 74.8764 135.529 70.8315ZM130.672 99.9551C130.672 117.753 117.72 130.697 99.9101 130.697C82.1006 130.697 69.1482 117.753 69.1482 99.9551C69.1482 82.1573 82.1006 69.2135 99.9101 69.2135C117.72 69.2135 130.672 82.1573 130.672 99.9551Z" fill="url(#paint1_radial_22_36)"/>
<path fill-rule="evenodd" clip-rule="evenodd" d="M32 153.348C32 161.438 38.3862 168 46.4815 168H153.339C161.434 168 168 161.438 168 153.348V46.5618C168 38.4719 161.434 32 153.339 32H46.4815C38.3862 32 32 38.4719 32 46.5618L32 153.348ZM49.7196 64.3596C49.7196 56.2697 56.1958 49.7978 64.291 49.7978H135.529C143.624 49.7978 150.101 56.2697 150.101 64.3596V135.551C150.101 143.64 143.624 150.112 135.529 150.112H64.291C56.1958 150.112 49.7196 143.64 49.7196 135.551V64.3596Z" fill="url(#paint2_radial_22_36)"/>
<path fill-rule="evenodd" clip-rule="evenodd" d="M32 153.348C32 161.438 38.3862 168 46.4815 168H153.339C161.434 168 168 161.438 168 153.348V46.5618C168 38.4719 161.434 32 153.339 32H46.4815C38.3862 32 32 38.4719 32 46.5618L32 153.348ZM49.7196 64.3596C49.7196 56.2697 56.1958 49.7978 64.291 49.7978H135.529C143.624 49.7978 150.101 56.2697 150.101 64.3596V135.551C150.101 143.64 143.624 150.112 135.529 150.112H64.291C56.1958 150.112 49.7196 143.64 49.7196 135.551V64.3596Z" fill="url(#paint3_radial_22_36)"/>
<path d="M99.9101 78.9213C86.9577 78.9213 78.8625 87.0112 78.8625 99.9551C78.8625 112.899 86.9577 120.989 99.9101 120.989C112.862 120.989 120.958 112.899 120.958 99.9551C120.958 87.0112 112.862 78.9213 99.9101 78.9213Z" fill="url(#paint4_radial_22_36)"/>
<path d="M99.9101 78.9213C86.9577 78.9213 78.8625 87.0112 78.8625 99.9551C78.8625 112.899 86.9577 120.989 99.9101 120.989C112.862 120.989 120.958 112.899 120.958 99.9551C120.958 87.0112 112.862 78.9213 99.9101 78.9213Z" fill="url(#paint5_radial_22_36)"/>
<path fill-rule="evenodd" clip-rule="evenodd" d="M99.9101 130.697C117.72 130.697 130.672 117.753 130.672 99.9551C130.672 82.1573 117.72 69.2135 99.9101 69.2135C82.1006 69.2135 69.1482 82.1573 69.1482 99.9551C69.1482 117.753 82.1006 130.697 99.9101 130.697ZM78.8625 99.9551C78.8625 87.0112 86.9577 78.9213 99.9101 78.9213C112.862 78.9213 120.958 87.0112 120.958 99.9551C120.958 112.899 112.862 120.989 99.9101 120.989C86.9577 120.989 78.8625 112.899 78.8625 99.9551Z" fill="#F5F1CE"/>
<path d="M129.053 64.3596C133.101 64.3596 135.529 66.7865 135.529 70.8315C135.529 74.8764 133.101 77.3034 129.053 77.3034C125.005 77.3034 122.577 74.8764 122.577 70.8315C122.577 66.7865 125.005 64.3596 129.053 64.3596Z" fill="#F5F1CE"/>
<path fill-rule="evenodd" clip-rule="evenodd" d="M64.291 49.7978C56.1958 49.7978 49.7196 56.2697 49.7196 64.3596V135.551C49.7196 143.64 56.1958 150.112 64.291 150.112H135.529C143.624 150.112 150.101 143.64 150.101 135.551V64.3596C150.101 56.2697 143.624 49.7978 135.529 49.7978H64.291ZM129.053 56.2697C140.386 56.2697 143.624 59.5056 143.624 70.8315V129.079C143.624 140.404 140.386 143.64 129.053 143.64H70.7672C59.4339 143.64 56.1958 140.404 56.1958 129.079V70.8315C56.1958 59.5056 59.4339 56.2697 70.7672 56.2697H129.053Z" fill="#F5F1CE"/>
<defs>
<radialGradient id="paint0_radial_22_36" cx="0" cy="0" r="1" gradientUnits="userSpaceOnUse" gradientTransform="translate(42.4339 10.1573) rotate(81.0894) scale(177.695 177.689)">
<stop stop-color="#8122E8"/>
<stop offset="0.309662" stop-color="#EA39D4"/>
<stop offset="0.47391" stop-color="#EA39D4"/>
<stop offset="0.590839" stop-color="#EA434D"/>
<stop offset="0.747688" stop-color="#ED9B39"/>
<stop offset="0.853188" stop-color="#F7CE4B"/>
</radialGradient>
<radialGradient id="paint1_radial_22_36" cx="0" cy="0" r="1" gradientUnits="userSpaceOnUse" gradientTransform="translate(156.577 107.236) rotate(-37.0243) scale(107.479 107.389)">
<stop stop-color="#EB3970"/>
<stop offset="1" stop-color="#EA39D4" stop-opacity="0.1"/>
</radialGradient>
<radialGradient id="paint2_radial_22_36" cx="0" cy="0" r="1" gradientUnits="userSpaceOnUse" gradientTransform="translate(42.4339 10.1573) rotate(81.0894) scale(177.695 177.689)">
<stop stop-color="#8122E8"/>
<stop offset="0.309662" stop-color="#EA39D4"/>
<stop offset="0.47391" stop-color="#EA39D4"/>
<stop offset="0.590839" stop-color="#EA434D"/>
<stop offset="0.747688" stop-color="#ED9B39"/>
<stop offset="0.853188" stop-color="#F7CE4B"/>
</radialGradient>
<radialGradient id="paint3_radial_22_36" cx="0" cy="0" r="1" gradientUnits="userSpaceOnUse" gradientTransform="translate(156.577 107.236) rotate(-37.0243) scale(107.479 107.389)">
<stop stop-color="#EB3970"/>
<stop offset="1" stop-color="#EA39D4" stop-opacity="0.1"/>
</radialGradient>
<radialGradient id="paint4_radial_22_36" cx="0" cy="0" r="1" gradientUnits="userSpaceOnUse" gradientTransform="translate(42.4339 10.1573) rotate(81.0894) scale(177.695 177.689)">
<stop stop-color="#8122E8"/>
<stop offset="0.309662" stop-color="#EA39D4"/>
<stop offset="0.47391" stop-color="#EA39D4"/>
<stop offset="0.590839" stop-color="#EA434D"/>
<stop offset="0.747688" stop-color="#ED9B39"/>
<stop offset="0.853188" stop-color="#F7CE4B"/>
</radialGradient>
<radialGradient id="paint5_radial_22_36" cx="0" cy="0" r="1" gradientUnits="userSpaceOnUse" gradientTransform="translate(156.577 107.236) rotate(-37.0243) scale(107.479 107.389)">
<stop stop-color="#EB3970"/>
<stop offset="1" stop-color="#EA39D4" stop-opacity="0.1"/>
</radialGradient>
</defs>
</svg>
