<svg width="100" height="100" viewBox="0 0 100 100" fill="none" xmlns="http://www.w3.org/2000/svg">
<rect width="100" height="100" rx="50" fill="#D4E9F5"/>
<path d="M65.3809 67.1905L71.7142 60.8572L60.8571 50H77.1428V40.9524H60.8571L71.7142 30.0953L65.3809 23.762L54.5238 34.6191L54.5238 18.3334H45.4761V34.6191L34.619 23.762L28.2857 30.0953L39.1428 40.9524H22.8571V50H39.1428L28.2857 60.8572L34.619 67.1905L50 51.8095L65.3809 67.1905Z" fill="#2EC17F"/>
<path d="M45.4761 60.8572H54.5238V81.6667H45.4761V60.8572Z" fill="#2EC17F"/>
<path fill-rule="evenodd" clip-rule="evenodd" d="M50 88C69 88 88 72.6191 88 50C88 27.381 69 12 50 12C31 12 12 27.381 12 50C12 72.619 31 88 50 88ZM71.7142 60.8572L65.3809 67.1905L50 51.8095L34.619 67.1905L28.2857 60.8572L39.1428 50H22.8571V40.9524H39.1428L28.2857 30.0953L34.619 23.762L45.4761 34.6191V18.3334H54.5238L54.5238 34.6191L65.3809 23.762L71.7142 30.0953L60.8571 40.9524H77.1428V50H60.8571L71.7142 60.8572ZM54.5238 60.8572H45.4761V81.6667H54.5238V60.8572Z" fill="black"/>
</svg>
