<svg width="100" height="100" viewBox="0 0 100 100" fill="none" xmlns="http://www.w3.org/2000/svg">
<rect width="100" height="100" rx="50" fill="#D4E9F5"/>
<path fill-rule="evenodd" clip-rule="evenodd" d="M16 72C16 80 20 84 28 84H72C80 84 84 80 84 72V28C84 20 80 16 72 16H28C20 16 16 20 16 27V72ZM26.1143 73.3857V37.5571H34.8V73.3857H26.1143ZM46.7429 73.3857H39.1429V53.3V37.5571H46.7429V40.5C49 38.5 51.6286 37.5571 56.5143 37.5571C62.3048 37.5571 73.8857 37.6657 73.8857 53.3V73.3857H66.2857V53.8429C66.2857 50.5857 64.6571 45.1571 56.5143 45.1571C48.3714 45.1571 46.7429 51.1286 46.7429 53.8429V73.3857ZM30.4571 34.3C27.7429 34.3 26.1143 32.6714 26.1143 29.9571C26.1143 27.2429 27.7429 25.6143 30.4571 25.6143C33.1714 25.6143 34.8 27.2429 34.8 29.9571C34.8 32.6714 33.1714 34.3 30.4571 34.3Z" fill="#346DBE"/>
<path d="M39.1429 73.3857H46.7429V53.8429C46.7429 51.1286 48.3714 45.1571 56.5143 45.1571C64.6571 45.1571 66.2857 50.5857 66.2857 53.8429V73.3857H73.8857V53.3C73.8857 37.6657 62.3048 37.5571 56.5143 37.5571C51.6286 37.5571 49 38.5 46.7429 40.5V37.5571H39.1429V53.3V73.3857Z" fill="#F5F1CE"/>
<path d="M26.1143 37.5571V73.3857H34.8V37.5571H26.1143Z" fill="#F5F1CE"/>
<path d="M26.1143 29.9571C26.1143 32.6714 27.7429 34.3 30.4571 34.3C33.1714 34.3 34.8 32.6714 34.8 29.9571C34.8 27.2429 33.1714 25.6143 30.4571 25.6143C27.7429 25.6143 26.1143 27.2429 26.1143 29.9571Z" fill="#F5F1CE"/>
</svg>
