<svg width="200" height="200" viewBox="0 0 200 200" fill="none" xmlns="http://www.w3.org/2000/svg">
<rect width="200" height="200" rx="100" fill="#D4E9F5"/>
<path d="M130.762 135.381L143.428 122.714L121.714 101H154.286V82.9048H121.714L143.428 61.1907L130.762 48.524L109.048 70.2383L109.048 37.6669H90.9523V70.2383L69.238 48.524L56.5714 61.1907L78.2856 82.9048H45.7143V101H78.2856L56.5714 122.714L69.238 135.381L99.9999 104.619L130.762 135.381Z" fill="#2EC17F"/>
<path d="M90.9523 122.714H109.048V164.333H90.9523V122.714Z" fill="#2EC17F"/>
<path fill-rule="evenodd" clip-rule="evenodd" d="M100 177C138 177 176 146.238 176 101C176 55.7619 138 25 100 25C62 25 24 55.7619 24 101C24 146.238 61.9999 177 100 177ZM143.428 122.714L130.762 135.381L99.9999 104.619L69.238 135.381L56.5714 122.714L78.2856 101H45.7143V82.9048H78.2856L56.5714 61.1907L69.238 48.524L90.9523 70.2383V37.6669H109.048L109.048 70.2383L130.762 48.524L143.428 61.1907L121.714 82.9048H154.286V101H121.714L143.428 122.714ZM109.048 122.714H90.9523V164.333H109.048V122.714Z" fill="black"/>
</svg>
