<svg width="200" height="200" viewBox="0 0 200 200" fill="none" xmlns="http://www.w3.org/2000/svg">
<rect width="200" height="200" rx="100" fill="#D4E9F5"/>
<path fill-rule="evenodd" clip-rule="evenodd" d="M32 144C32 160 40 168 56 168H144C160 168 168 160 168 144V56C168 40 160 32 144 32H56C40 32 32 40 32 54V144ZM52.2286 146.771V75.1143H69.6V146.771H52.2286ZM93.4857 146.771H78.2857V106.6V75.1143H93.4857V81C98 77 103.257 75.1143 113.029 75.1143C124.61 75.1143 147.771 75.3314 147.771 106.6V146.771H132.571V107.686C132.571 101.171 129.314 90.3143 113.029 90.3143C96.7429 90.3143 93.4857 102.257 93.4857 107.686V146.771ZM60.9143 68.6C55.4857 68.6 52.2286 65.3429 52.2286 59.9143C52.2286 54.4857 55.4857 51.2286 60.9143 51.2286C66.3429 51.2286 69.6 54.4857 69.6 59.9143C69.6 65.3429 66.3429 68.6 60.9143 68.6Z" fill="#346DBE"/>
<path d="M78.2857 146.771H93.4857V107.686C93.4857 102.257 96.7429 90.3143 113.029 90.3143C129.314 90.3143 132.571 101.171 132.571 107.686V146.771H147.771V106.6C147.771 75.3314 124.61 75.1143 113.029 75.1143C103.257 75.1143 98 77 93.4857 81V75.1143H78.2857V106.6V146.771Z" fill="#F5F1CE"/>
<path d="M52.2286 75.1143V146.771H69.6V75.1143H52.2286Z" fill="#F5F1CE"/>
<path d="M52.2286 59.9143C52.2286 65.3429 55.4857 68.6 60.9143 68.6C66.3429 68.6 69.6 65.3429 69.6 59.9143C69.6 54.4857 66.3429 51.2286 60.9143 51.2286C55.4857 51.2286 52.2286 54.4857 52.2286 59.9143Z" fill="#F5F1CE"/>
</svg>
